SplineFontDB: 3.0
FontName: Amatic-Bold
FullName: Amatic Bold
FamilyName: Amatic
Weight: Bold
Copyright: Copyright (c) 2011-12 by vernon adams. All rights reserved.
Version: 2.001
FONDName: Amatic
ItalicAngle: 0
UnderlinePosition: -204
UnderlineWidth: 102
Ascent: 1638
Descent: 410
UFOAscent: 2048
UFODescent: -53
LayerCount: 2
Layer: 0 0 "Back"  1
Layer: 1 0 "Fore"  0
FSType: 0
OS2Version: 0
OS2_WeightWidthSlopeOnly: 0
OS2_UseTypoMetrics: 0
CreationTime: 1336026831
ModificationTime: 1369574493
PfmFamily: 33
TTFWeight: 700
TTFWidth: 3
LineGap: 0
VLineGap: 0
OS2TypoAscent: 2048
OS2TypoAOffset: 0
OS2TypoDescent: -160
OS2TypoDOffset: 0
OS2TypoLinegap: 0
OS2WinAscent: 2048
OS2WinAOffset: 0
OS2WinDescent: 160
OS2WinDOffset: 0
HheadAscent: 2048
HheadAOffset: 0
HheadDescent: -160
HheadDOffset: 0
OS2SubXSize: 1331
OS2SubYSize: 1229
OS2SubXOff: 0
OS2SubYOff: 154
OS2SupXSize: 1331
OS2SupYSize: 1229
OS2SupXOff: 0
OS2SupYOff: 717
OS2StrikeYSize: 102
OS2StrikeYPos: 614
OS2Vendor: 'newt'
Lookup: 258 0 0 "'kern' Horizontal Kerning in Latin lookup 0"  {"'kern' Horizontal Kerning in Latin lookup 0 subtable" [220,22,0] "'kern' Horizontal Kerning lookup 1 kerning class 1"  } ['kern' ('DFLT' <'dflt' > 'latn' <'dflt' > ) ]
MarkAttachClasses: 1
DEI: 91125
KernClass2: 32 23 "'kern' Horizontal Kerning lookup 1 kerning class 1" 
 73 A Aacute Abreve Acircumflex Adieresis Agrave Amacron Aogonek Aring Atilde
 1 B
 8 D Dcaron
 1 F
 13 J Jcircumflex
 14 K Kcommaaccent
 28 L Lacute Lcaron Lcommaaccent
 35 N Nacute Ncaron Ncommaaccent Ntilde
 73 O Oacute Obreve Ocircumflex Odieresis Ograve Ohungarumlaut Omacron Otilde
 1 P
 28 R Racute Rcaron Rcommaaccent
 29 T Tcaron Tcommaaccent uni021A
 80 U Uacute Ubreve Ucircumflex Udieresis Ugrave Uhungarumlaut Umacron Uogonek Uring
 1 V
 1 W
 18 Y Yacute Ydieresis
 73 a aacute abreve acircumflex adieresis agrave amacron aogonek aring atilde
 1 b
 8 d dcaron
 1 f
 32 g gbreve gcommaaccent gdotaccent
 14 k kcommaaccent
 28 l lacute lcaron lcommaaccent
 1 m

StartChar: A
Encoding: 65 65 1
Width: 656
VWidth: 0
Flags: W
VStem: 462 90<450.499 873.604> 464 131<3.51562 337.44>
LayerCount: 2
UndoRedoHistory
Layer: 1
Undoes
EndUndoes
Redoes
EndRedoes
EndUndoRedoHistory
Fore
SplineSet
472 1525 m 1x40
 472 1370 552 897 552 710 c 0x80
 552 521 595 284 595 70 c 0
 595 24 574 1 527 1 c 0
 487 1 464 13 464 54 c 2
 464 321 l 1
 420 351 281 369 225 373 c 1
 174 286 182 117 124 23 c 1
 92 23 43 26 34 64 c 1
 105 167 253 1543 406 1543 c 0
 428 1543 454 1539 472 1525 c 1x40
394 1236 m 0
 394 1243 394 1249 395 1254 c 1
 347 1204 242 549 238 464 c 1
 297 448 359 441 420 441 c 0
 433 441 450 444 462 447 c 1
 452 576 394 1110 394 1236 c 0
EndSplineSet
EndChar

StartChar: AE
Encoding: 198 198 2
Width: 879
VWidth: 0
Flags: W
HStem: -12 94<555.304 778.438> 621 114<552.342 708> 621 95<550 707.844> 1450 104<542 736>
VStem: 461 95<84.7385 622 716 1283>
LayerCount: 2
UndoRedoHistory
Layer: 1
Undoes
EndUndoes
Redoes
EndRedoes
EndUndoRedoHistory
Fore
SplineSet
453 706 m 1x98
 455 855 461 1004 461 1153 c 0
 461 1196 461 1240 459 1283 c 1
 400 1087 342 889 300 688 c 1
 351 691 403 695 453 706 c 1x98
448 2 m 1
 450 3 l 1
 458 86 467 169 467 253 c 0
 467 380 457 506 457 633 c 1
 398 628 337 630 280 611 c 1
 179 226 l 2
 166 178 151 1 84 1 c 0
 61 1 44 27 44 48 c 0
 44 288 310 1103 396 1380 c 0
 413 1437 435 1544 512 1544 c 0
 565 1544 617 1554 670 1554 c 0
 707 1554 757 1546 757 1498 c 2
 757 1492 l 1
 736 1450 l 1
 671 1450 606 1447 542 1440 c 1
 544 1349 556 1258 556 1166 c 0
 556 1016 550 866 550 716 c 1xb8
 600 720 648 735 698 735 c 2
 708 735 l 1
 750 687 l 1
 750 629 683 621 637 621 c 0
 634 621 631 621 628 621 c 2xd8
 549 622 l 1
 550 442 555 262 555 82 c 1
 631 83 706 103 782 103 c 0
 811 103 850 87 850 53 c 0
 850 -8 686 -12 606 -12 c 0
 593 -12 581 -12 574 -12 c 0
 544 -12 522 -38 493 -43 c 1
 448 2 l 1
EndSplineSet
EndChar

StartChar: B
Encoding: 66 66 12
Width: 576
VWidth: 0
Flags: W
HStem: 1421 116<114 304.953>
VStem: 74 111<323.336 769 888 1417.84> 78 124<90 758.406> 361 100<1048.52 1361.62> 421 106<207.794 624.204>
LayerCount: 2
UndoRedoHistory
Layer: 1
Undoes
EndUndoes
Redoes
EndRedoes
EndUndoRedoHistory
Fore
SplineSet
214 1421 m 0xd0
 185 1421 185 1376 185 1357 c 0
 185 1201 192 1044 193 888 c 1
 286 909 330 1095 361 1173 c 1
 361 1246 l 2
 361 1321 296 1421 214 1421 c 0xd0
421 369 m 0xa8
 421 717 265 769 265 769 c 1
 192 769 l 1
 200 543 202 316 202 90 c 1
 343 112 421 232 421 369 c 0xa8
527 374 m 0
 527 282 438 -17 182 -17 c 0
 179 -17 177 -17 174 -17 c 0
 137 -17 78 -15 78 34 c 0xa8
 78 202 88 370 88 538 c 0
 88 815 74 1093 74 1370 c 0
 74 1374 74 1378 74 1382 c 0
 74 1440 77 1537 151 1537 c 0
 351 1537 461 1392 461 1201 c 0xd0
 461 1075 384 924 295 859 c 1
 477 737 527 537 527 374 c 0
EndSplineSet
EndChar

StartChar: C
Encoding: 67 67 13
Width: 649
VWidth: 0
Flags: W
HStem: -33 126<289.284 492.162> 1443 122<232.958 400>
VStem: 61 109<367.053 996.751 1001.2 1380.85>
LayerCount: 2
UndoRedoHistory
Layer: 1
Undoes
EndUndoes
Redoes
EndRedoes
EndUndoRedoHistory
Fore
SplineSet
557 166 m 0
 576 166 598 154 617 135 c 1
 617 4 472 -33 366 -33 c 0
 79 -33 51 425 51 792 c 0
 51 882 53 966 53 1037 c 0
 53 1100 55 1164 67 1226 c 1
 63 1248 61 1270 61 1290 c 0
 61 1463 210 1565 387 1565 c 0
 442 1565 530 1531 530 1465 c 0
 530 1434 501 1419 473 1419 c 0
 453 1419 411 1426 400 1444 c 1
 400 1443 l 1
 372 1443 l 1
 372 1448 l 1
 175 1448 170 1294 170 1140 c 0
 170 1093 176 1046 176 999 c 0
 176 951 158 904 158 856 c 0
 158 841 158 824 158 807 c 0
 158 549 165 93 393 93 c 0
 460 93 504 166 557 166 c 0
EndSplineSet
EndChar

StartChar: D
Encoding: 68 68 18
Width: 653
VWidth: 0
Flags: W
HStem: 1429 123<163.344 302.709>
VStem: 36 126<1210.77 1429> 113 98<117.54 740.066> 488 105<498.981 1173.84>
LayerCount: 2
UndoRedoHistory
Layer: 1
Undoes
EndUndoes
Redoes
EndRedoes
EndUndoRedoHistory
Fore
SplineSet
211 310 m 2xb0
 211 114 l 1xb0
 428 254 488 615 488 854 c 0
 488 1061 444 1429 162 1429 c 1
 162 1427 l 1xd0
 163 1054 211 683 211 310 c 2xb0
168 -5 m 0
 126 -5 68 14 68 65 c 1
 113 112 113 244 113 306 c 0xb0
 113 533 75 758 75 982 c 0
 75 1055 81 1131 81 1206 c 0
 81 1308 36 1400 36 1481 c 0xd0
 36 1548 135 1552 193 1552 c 0
 201 1552 218 1552 224 1552 c 0
 587 1552 593 1023 593 868 c 2
 593 773 l 1
 582 754 593 733 593 711 c 0
 593 503 419 -5 168 -5 c 0
EndSplineSet
EndChar

StartChar: E
Encoding: 69 69 23
Width: 457
VWidth: 0
Flags: W
HStem: -12 117<200 418.995> 750 120<201.468 344.494> 1423 128<186.633 353.19>
VStem: 62 123<1091.3 1425> 90 110<105 751.998 852 1418.7>
LayerCount: 2
UndoRedoHistory
Layer: 1
Undoes
EndUndoes
Redoes
EndRedoes
EndUndoRedoHistory
Fore
SplineSet
431 50 m 1xe8
 400 -11 315 -12 256 -12 c 2
 192 -12 l 2
 144 -12 90 -10 90 55 c 2
 90 1245 l 2xe8
 90 1316 62 1383 62 1454 c 2
 62 1461 l 1
 77 1486 91 1513 113 1533 c 1
 164 1533 214 1551 265 1551 c 0
 301 1551 359 1527 359 1484 c 0
 359 1432 308 1423 266 1423 c 0
 246 1423 227 1425 207 1425 c 0
 200 1425 192 1425 185 1424 c 1xf0
 185 1311 201 1199 201 1086 c 0
 201 1008 192 930 191 852 c 1
 223 858 254 870 287 870 c 0
 317 870 347 844 347 813 c 0
 347 782 327 750 293 750 c 0
 280 750 261 752 242 752 c 0
 221 752 210 749 200 737 c 1
 200 105 l 1
 235 107 279 111 314 111 c 0
 350 111 431 108 431 57 c 2
 431 50 l 1xe8
EndSplineSet
EndChar

StartChar: Eng
Encoding: 268 330 30
Width: 737
VWidth: 0
Flags: W
HStem: 1544 20G<107.5 188>
VStem: 67 104<374.035 1298> 83 117<2.04901 498.154> 548 122<1049.69 1592.95> 548 97<-191.525 127.537 225 1503.11>
LayerCount: 2
UndoRedoHistory
Layer: 1
Undoes
EndUndoes
Redoes
EndRedoes
EndUndoRedoHistory
Fore
SplineSet
542 -113 m 4x88
 542 -65 543 -17 543 32 c 5
 450 234 274 887 171 1298 c 1
 171 626 l 2xc8
 171 431 200 237 200 42 c 0
 200 16 161 -2 128 -2 c 0
 104 -2 83 7 83 30 c 0xa0
 83 65 93 109 93 177 c 0
 93 371 67 688 67 812 c 2
 67 1073 l 2
 67 1198 81 1324 81 1449 c 2
 81 1462 l 2
 81 1508 89 1564 126 1564 c 0
 250 1564 539 228 540 225 c 1
 540 463 548 701 548 939 c 2xc8
 548 1545 l 1
 556 1580 582 1596 615 1596 c 0
 660 1596 670 1553 670 1516 c 2
 670 1504 l 1x90
 661 1485 645 1465 645 1444 c 2
 645 42 l 6
 645 -271 620 -236 434 -388 c 5
 394 -388 360 -369 360 -325 c 4
 360 -226 542 -240 542 -113 c 4x88
EndSplineSet
EndChar

StartChar: Eth
Encoding: 270 208 32
Width: 810
VWidth: 0
Flags: W
HStem: 795 119<-41.3248 75.2245> 819 121<192.954 380> 1429 123<163.344 302.709>
VStem: 36 126<1210.77 1429> 113 98<117.54 740.123> 488 105<498.981 1173.84>
LayerCount: 2
UndoRedoHistory
Layer: 1
Undoes
EndUndoes
Redoes
EndRedoes
EndUndoRedoHistory
Fore
SplineSet
168 -5 m 0xb4
 126 -5 68 14 68 65 c 1
 113 112 113 244 113 306 c 0xac
 113 472 93 637 82 802 c 5
 58 798 33 795 8 795 c 4
 -25 795 -44 824 -44 854 c 4
 -44 906 34 914 76 914 c 5
 75 937 75 959 75 982 c 0
 75 1055 81 1131 81 1206 c 0
 81 1308 36 1400 36 1481 c 0
 36 1548 135 1552 193 1552 c 0
 201 1552 218 1552 224 1552 c 0
 587 1552 593 1023 593 868 c 2
 593 773 l 1
 582 754 593 733 593 711 c 0
 593 503 419 -5 168 -5 c 0xb4
190 814 m 5
 201 646 211 478 211 310 c 2
 211 114 l 1x6c
 428 254 488 615 488 854 c 0
 488 1061 444 1429 162 1429 c 1
 162 1427 l 2
 162 1259 172 1091 183 924 c 5
 238 931 292 940 347 940 c 4
 389 940 412 896 414 860 c 5
 380 819 l 5x74
 317 819 253 818 190 814 c 5
EndSplineSet
EndChar

StartChar: Euro
Encoding: 271 8364 33
Width: 649
VWidth: 0
Flags: W
HStem: -33 126<261.718 508.667> 654 70<-27.8786 60 170 365.492> 808 69<-34.876 55 159 359.618> 1448 117<236.488 487.609>
VStem: 53 117<263.621 653 725 808 879 1378.71>
LayerCount: 2
UndoRedoHistory
Layer: 1
Undoes
EndUndoes
Redoes
EndRedoes
EndUndoRedoHistory
Fore
SplineSet
368 700 m 0
 368 657 271 652 210 652 c 0
 193 652 178 653 170 653 c 1
 176 578 205 209 239 160 c 0
 273 111 336 93 393 93 c 0
 443 93 492 113 525 152 c 1
 547 152 569 155 590 162 c 1
 617 135 l 1
 617 4 472 -33 366 -33 c 0
 56 -33 76 450 64 654 c 1
 -15 657 l 1
 -23 664 -28 677 -28 687 c 0
 -28 721 14 724 44 724 c 0
 50 724 55 724 60 724 c 1
 56 808 l 1
 -16 808 l 1
 -30 813 -35 833 -35 845 c 0
 -35 876 -16 877 10 877 c 2
 55 877 l 1
 55 930 53 984 53 1038 c 0
 53 1101 56 1164 67 1226 c 1
 63 1248 61 1269 61 1289 c 0
 61 1462 209 1565 387 1565 c 0
 443 1565 530 1531 530 1465 c 0
 530 1434 501 1419 473 1419 c 0
 436 1419 398 1448 372 1448 c 0
 175 1448 170 1294 170 1140 c 0
 170 1047 169 972 159 879 c 1
 168 879 194 880 224 880 c 0
 283 880 361 876 361 852 c 0
 361 841 355 828 347 821 c 1
 285 814 222 813 159 811 c 1
 164 725 l 1
 227 726 291 726 354 731 c 1
 362 724 368 711 368 700 c 0
EndSplineSet
EndChar

StartChar: F
Encoding: 70 70 34
Width: 391
VWidth: 0
Flags: W
HStem: 1442 112<162.645 320.99>
VStem: 101 128<1.18661 80.5789 81.1882 562.815>
LayerCount: 2
UndoRedoHistory
Layer: 1
Undoes
EndUndoes
Redoes
EndRedoes
EndUndoRedoHistory
Fore
SplineSet
225 81 m 1
 228 72 229 64 229 56 c 0
 229 21 202 -2 160 -2 c 0
 105 -2 101 90 101 129 c 0
 101 283 71 1390 39 1440 c 1
 39 1550 154 1554 237 1554 c 0
 289 1554 324 1544 324 1484 c 0
 324 1453 294 1440 267 1440 c 0
 258 1440 238 1442 217 1442 c 0
 189 1442 160 1438 160 1419 c 0
 160 1235 189 1053 191 869 c 1
 229 876 266 891 305 891 c 0
 337 891 361 858 361 828 c 0
 361 762 236 764 191 761 c 1
 191 538 230 317 230 94 c 0
 230 90 226 85 225 81 c 1
EndSplineSet
EndChar

StartChar: G
Encoding: 71 71 35
Width: 727
VWidth: 0
Flags: W
HStem: -54 105<293.519 521.517> 363 126<384.634 540.907> 1495 96<293.607 485.387>
VStem: 52 108<266.283 1188.12> 562 118<-37.3857 4 91.7473 368.48>
LayerCount: 2
UndoRedoHistory
Layer: 1
Undoes
EndUndoes
Redoes
EndRedoes
EndUndoRedoHistory
Fore
SplineSet
562 2 m 1
 562 4 l 1
 513 -18 467 -54 411 -54 c 0
 61 -54 52 464 52 711 c 0
 52 753 51 805 51 862 c 0
 51 1158 77 1591 402 1591 c 0
 440 1591 487 1580 487 1533 c 0
 487 1503 461 1485 433 1485 c 0
 413 1485 394 1495 374 1495 c 0
 166 1495 161 927 161 744 c 0
 161 709 160 670 160 617 c 0
 160 400 178 51 407 51 c 0
 473 51 521 84 558 137 c 1
 557 190 549 329 525 371 c 1
 503 369 473 363 445 363 c 0
 408 363 375 374 375 421 c 0
 375 477 512 489 552 489 c 0
 613 489 639 434 639 380 c 0
 639 257 680 138 680 15 c 0
 680 -14 661 -41 630 -41 c 0
 601 -41 573 -26 562 2 c 1
EndSplineSet
EndChar

StartChar: H
Encoding: 72 72 40
Width: 560
VWidth: 0
Flags: W
HStem: 769 55<182.784 368.968>
VStem: 54 127<753 1510> 54 112<1076.3 1540.01> 361 100<970.722 1500> 388 112<-28.184 485.08>
LayerCount: 2
UndoRedoHistory
Layer: 1
Undoes
EndUndoes
Redoes
EndRedoes
EndUndoRedoHistory
Fore
SplineSet
54 1510 m 0xc8
 54 1537 69 1547 89 1547 c 0
 116 1547 150 1529 161 1514 c 1
 156 1462 154 1411 154 1360 c 0
 154 1220 168 1079 168 939 c 0
 168 914 166 888 166 862 c 0
 166 844 167 827 170 809 c 1
 237 811 302 822 369 824 c 1
 368 1048 361 1272 361 1496 c 2
 361 1550 l 1
 459 1550 461 1469 461 1393 c 0xb0
 461 943 500 491 500 43 c 0
 500 10 477 -31 440 -31 c 0
 401 -31 388 4 388 37 c 0
 388 278 383 519 370 759 c 1
 348 763 325 769 302 769 c 0
 261 769 219 769 181 753 c 1
 182 521 215 291 215 59 c 0
 215 34 199 5 171 5 c 0
 56 5 54 1319 54 1510 c 0xc8
EndSplineSet
EndChar

StartChar: Hbar
Encoding: 275 294 41
Width: 560
VWidth: 0
Flags: W
HStem: 769 55<182.784 368.968> 1265 74<156 353> 1534 20G<100 118>
VStem: 53 108<820.567 1261 1335 1552.74> 91 90<330.198 765.094> 353 108<830.891 1262 1337 1541.14> 388 112<-28.184 480.323>
LayerCount: 2
UndoRedoHistory
Layer: 1
Undoes
EndUndoes
Redoes
EndRedoes
EndUndoRedoHistory
Fore
SplineSet
271 1265 m 0xe0
 232 1265 192 1262 156 1261 c 1
 160 1153 168 1046 168 939 c 0
 168 914 166 888 166 862 c 0
 166 844 167 827 170 809 c 1
 237 811 302 822 369 824 c 1
 368 971 360 1119 355 1266 c 1
 331 1265 301 1265 271 1265 c 0xe0
351 1496 m 1
 350 1511 l 1
 350 1541 356 1544 370 1544 c 0
 372 1544 375 1544 377 1544 c 0
 410 1544 461 1542 461 1493 c 2
 461 1314 l 1xf4
 476 1307 485 1297 485 1284 c 0
 485 1265 475 1262 462 1262 c 1
 468 855 500 448 500 43 c 0
 500 10 477 -31 440 -31 c 0
 401 -31 388 4 388 37 c 0
 388 278 383 519 370 759 c 1
 348 763 325 769 302 769 c 0
 261 769 219 769 181 753 c 1
 182 521 215 291 215 59 c 0
 215 34 199 5 171 5 c 0
 141 5 130 16 115 41 c 0
 90 83 97 514 91 602 c 0xea
 75 824 62 1046 57 1269 c 1
 48 1274 43 1281 43 1291 c 0
 43 1303 48 1311 56 1318 c 1
 54 1385 53 1453 53 1520 c 0
 53 1540 92 1554 108 1554 c 0
 128 1554 161 1536 161 1515 c 0
 161 1467 154 1411 154 1360 c 2
 154 1335 l 1
 182 1336 227 1339 277 1339 c 0
 302 1339 328 1338 353 1337 c 1xf4
 351 1390 351 1443 351 1496 c 1
EndSplineSet
EndChar

StartChar: I
Encoding: 73 73 42
Width: 432
VWidth: 0
Flags: W
HStem: 3 110<40.0781 140.436 276 352> 1442 111<227.531 347.693>
VStem: 133 93<970.339 1427.6> 171 105<124.343 601.922>
LayerCount: 2
UndoRedoHistory
Layer: 1
Undoes
EndUndoes
Redoes
EndRedoes
EndUndoRedoHistory
Fore
SplineSet
352 8 m 1xd0
 332 8 274 3 213 3 c 0
 127 3 36 13 36 64 c 0
 36 101 66 113 98 113 c 0
 115 113 129 110 141 110 c 0
 160 110 171 118 171 158 c 0xd0
 171 474 133 789 133 1105 c 0
 133 1175 137 1244 137 1314 c 0
 137 1352 136 1390 132 1428 c 1
 117 1423 99 1419 84 1419 c 0
 57 1419 36 1430 36 1468 c 0
 36 1540 237 1553 289 1553 c 0
 320 1553 349 1529 349 1497 c 0
 349 1470 331 1442 301 1442 c 0
 287 1442 275 1443 265 1443 c 0
 241 1443 226 1437 226 1401 c 0xe0
 226 1001 276 603 276 203 c 2
 276 124 l 1
 290 126 304 127 318 127 c 0
 363 127 403 113 403 55 c 2
 403 43 l 1
 352 8 l 1xd0
EndSplineSet
EndChar

StartChar: J
Encoding: 74 74 53
Width: 419
VWidth: 0
Flags: W
HStem: 1445 108<267 385.112>
VStem: 218 110<27.05 763.282>
LayerCount: 2
UndoRedoHistory
Layer: 1
Undoes
EndUndoes
Redoes
EndRedoes
EndUndoRedoHistory
Fore
SplineSet
164 1445 m 1
 135 1439 105 1429 75 1429 c 0
 47 1429 23 1453 23 1481 c 0
 23 1553 219 1553 268 1553 c 2
 294 1553 l 2
 336 1553 386 1548 386 1497 c 0
 386 1453 336 1444 301 1444 c 0
 299 1444 297 1445 295 1445 c 2
 267 1445 l 1
 267 1429 l 2
 267 1323 291 1218 291 1112 c 0
 291 846 328 581 328 315 c 0
 328 260 327 207 327 152 c 0
 327 0 264 -147 129 -194 c 1
 89 -194 55 -175 55 -131 c 0
 55 -94 105 -61 135 -48 c 1
 163 -12 217 102 217 241 c 0
 217 334 218 429 218 525 c 0
 218 836 212 1155 164 1445 c 1
EndSplineSet
EndChar

StartChar: K
Encoding: 75 75 55
Width: 650
VWidth: 0
Flags: W
VStem: 70 130<-1.98825 573.75 1057.8 1534.1> 97 90<228.75 830.353 954 1368.44> 507 113<-44.5786 161.312>
LayerCount: 2
UndoRedoHistory
Layer: 1
Undoes
EndUndoes
Redoes
EndRedoes
EndUndoRedoHistory
Fore
SplineSet
70 1476 m 0xa0
 70 1509 93 1541 128 1541 c 0
 202 1541 204 1426 204 1375 c 0
 204 1235 198 1094 195 954 c 1
 234 1045 432 1596 502 1596 c 0
 532 1596 560 1574 560 1542 c 0
 560 1497 349 1108 323 991 c 1
 323 955 l 1
 359 864 620 48 620 11 c 0
 620 -23 587 -48 555 -48 c 0
 539 -48 523 -41 507 -40 c 1
 452 272 389 590 257 880 c 1
 203 776 187 769 187 650 c 0x60
 187 523 200 397 200 270 c 0
 200 224 200 168 200 102 c 0
 200 78 198 -7 130 -7 c 0
 72 -7 70 67 70 108 c 0xa0
 70 292 97 476 97 660 c 0x60
 97 754 100 905 100 1049 c 0
 100 1238 70 1347 70 1476 c 0xa0
EndSplineSet
EndChar

StartChar: L
Encoding: 76 76 57
Width: 430
VWidth: 0
Flags: W
HStem: -4 119<201.815 317.391 318.424 398.461> 1551 20G<95.5 124.5>
VStem: 58 112<1092.36 1568.47> 86 315<3.61108 114.295> 99 102<115 568.643>
LayerCount: 2
UndoRedoHistory
Layer: 1
Undoes
EndUndoes
Redoes
EndRedoes
EndUndoRedoHistory
Fore
SplineSet
201 115 m 1xc8
 357 115 l 1
 379 100 401 83 401 54 c 0
 401 25 380 -4 349 -4 c 0
 339 -4 327 1 318 3 c 1
 305 0 292 -1 279 -1 c 0
 257 -1 235 2 213 2 c 1
 199 -15 176 -23 155 -23 c 0
 121 -23 86 7 86 42 c 0xd0
 86 73 99 101 99 132 c 0xc8
 99 598 58 1063 58 1529 c 0
 58 1556 83 1571 108 1571 c 0
 141 1571 170 1546 170 1512 c 0xe0
 170 1266 191 1019 191 775 c 0
 191 753 196 732 193 710 c 1
 193 701 l 1
 201 523 201 345 201 167 c 2
 201 115 l 1xc8
EndSplineSet
EndChar

StartChar: Lslash
Encoding: 288 321 62
Width: 430
VWidth: 0
Flags: W
HStem: 2 113<201 317.391 318.424 398.461> 754 119<-27.3689 75.4689> 1551 20G<95.5 124.5>
VStem: 58 112<1078.08 1568.47> 81 113<320.812 768 904 1323.92> 99 102<115 569.25>
LayerCount: 2
UndoRedoHistory
Layer: 1
Undoes
EndUndoes
Redoes
EndRedoes
EndUndoRedoHistory
Fore
SplineSet
404 897 m 0xf0
 404 842 299 813 191 797 c 1
 191 795 l 2
 191 773 194 752 194 730 c 0xe8
 194 723 194 717 193 710 c 2
 193 701 l 1
 201 523 201 345 201 167 c 2
 201 115 l 1
 357 115 l 1
 379 100 401 83 401 54 c 0
 401 25 380 -4 349 -4 c 0
 339 -4 327 1 318 3 c 1
 305 0 292 -1 279 -1 c 0
 257 -1 235 2 213 2 c 0
 196 2 170 5 145 5 c 0
 116 5 86 22 86 42 c 0
 86 73 99 101 99 132 c 0xe4
 99 344 90 556 81 768 c 1xe8
 57 757 38 754 29 754 c 0
 -4 754 -38 774 -38 803 c 0
 -38 838 15 860 76 873 c 1
 67 1092 58 1310 58 1529 c 0
 58 1556 83 1571 108 1571 c 0
 141 1571 170 1546 170 1512 c 0
 170 1309 185 1106 190 904 c 1
 270 939 338 949 366 949 c 0
 384 949 404 929 404 897 c 0xf0
EndSplineSet
EndChar

StartChar: M
Encoding: 77 77 63
Width: 824
VWidth: 0
Flags: W
HStem: 1534 20G<100.375 190.5>
VStem: 73 121<16.6875 543.446> 76 101<490.852 1172> 332 164<244.953 518.477> 598 121<1167.81 1581.83> 630 126<-38.3795 525.911>
LayerCount: 2
UndoRedoHistory
Layer: 1
Undoes
EndUndoes
Redoes
EndRedoes
EndUndoRedoHistory
Fore
SplineSet
598 1517 m 1xb8
 598 1529 l 1
 604 1565 636 1587 671 1587 c 0
 697 1587 719 1560 719 1535 c 0xb8
 719 1045 756 557 756 67 c 0
 756 -2 711 -54 675 -54 c 0
 651 -54 630 -30 630 27 c 0
 630 314 622 602 622 889 c 2
 622 993 l 1
 587 801 522 605 496 414 c 1
 496 401 l 1
 485 347 483 222 405 222 c 0
 332 222 332 364 332 413 c 0
 332 660 235 931 181 1172 c 1
 179 1090 177 1007 177 925 c 0xb4
 177 644 194 364 194 83 c 0
 194 54 183 27 163 6 c 1
 85 6 73 68 73 132 c 0xd0
 73 243 83 353 83 464 c 0
 83 729 76 993 76 1257 c 0
 76 1346 77 1434 79 1522 c 1
 136 1554 l 1
 245 1546 389 674 420 528 c 1
 488 850 579 1188 598 1517 c 1xb8
EndSplineSet
EndChar

StartChar: N
Encoding: 78 78 64
Width: 737
VWidth: 0
Flags: W
HStem: 1544 20G<107.5 188>
VStem: 67 104<374.035 1298> 83 117<2.04901 498.154> 548 122<982.93 1592.95> 548 97<225 1432.23>
LayerCount: 2
UndoRedoHistory
Layer: 1
Undoes
EndUndoes
Redoes
EndRedoes
EndUndoRedoHistory
Fore
SplineSet
540 225 m 1xc0
 540 463 548 701 548 939 c 2xc8
 548 1545 l 1
 556 1580 582 1596 615 1596 c 0
 660 1596 670 1553 670 1516 c 2
 670 1504 l 1x90
 661 1485 658 1465 658 1444 c 0
 658 1193 645 939 645 687 c 2
 645 61 l 2
 645 25 622 -30 586 -30 c 0
 521 -30 294 808 171 1298 c 1
 171 626 l 2xc8
 171 431 200 237 200 42 c 0
 200 16 161 -2 128 -2 c 0
 104 -2 83 7 83 30 c 0xa0
 83 65 93 109 93 177 c 0
 93 371 67 688 67 812 c 2
 67 1073 l 2
 67 1198 81 1324 81 1449 c 0
 81 1454 81 1458 81 1462 c 0
 81 1508 89 1564 126 1564 c 0
 250 1564 539 228 540 225 c 1xc0
EndSplineSet
EndChar

StartChar: O
Encoding: 79 79 69
Width: 650
VWidth: 0
Flags: W
HStem: -57 112<292.904 411.87> 1477 108<226.521 356.782>
VStem: 57 92<421.177 1219.19> 489 93<204.958 1062.48>
LayerCount: 2
UndoRedoHistory
Layer: 1
Undoes
EndUndoes
Redoes
EndRedoes
EndUndoRedoHistory
Fore
SplineSet
273 1585 m 0
 603 1585 582 931 582 618 c 0
 582 531 565 446 564 359 c 1
 564 350 l 1
 554 306 551 261 551 215 c 0
 551 113 475 -57 355 -57 c 0
 83 -57 57 609 57 799 c 0
 57 1041 10 1585 273 1585 c 0
283 1477 m 0
 151 1477 149 979 149 861 c 0
 149 858 149 855 149 852 c 0
 149 720 194 55 359 55 c 0
 477 55 489 561 489 653 c 0
 489 797 484 1477 283 1477 c 0
EndSplineSet
EndChar

StartChar: OE
Encoding: 292 338 70
Width: 1113
VWidth: 0
Flags: W
HStem: -16 101<788 921 925 1067> 9 103<348.847 676.349> 758 96<774.423 956.832> 1433 92<743 1019.83> 1449 102<278.804 606.043>
VStem: 51 94<376.712 1233.77> 647 96<1024.51 1406.6> 688 100<131.148 600.328>
LayerCount: 2
UndoRedoHistory
Layer: 1
Undoes
EndUndoes
Redoes
EndRedoes
EndUndoRedoHistory
Fore
SplineSet
921 87 m 1x35
 925 85 l 1
 933 85 943 85 954 85 c 0
 1008 85 1090 80 1090 25 c 2
 1090 18 l 1
 1067 -16 l 1xb5
 959 -16 851 -22 743 -22 c 0
 717 -22 669 -6 669 26 c 1
 670 33 l 1
 635 22 599 9 561 9 c 0
 83 9 51 438 51 809 c 0
 51 1032 53 1551 372 1551 c 0x6e
 465 1551 568 1546 649 1494 c 1
 679 1537 l 1
 710 1537 740 1525 771 1525 c 2
 923 1525 l 2
 940 1525 957 1528 974 1529 c 1
 996 1517 1021 1498 1021 1470 c 0
 1021 1439 987 1426 961 1426 c 0
 888 1426 816 1432 743 1433 c 1x36
 743 1294 771 1157 771 1018 c 0
 771 983 767 948 767 913 c 0
 767 894 768 875 772 856 c 1
 834 854 l 2
 837 854 840 854 843 854 c 0
 860 854 875 855 888 855 c 0
 913 855 933 850 958 818 c 1
 958 780 944 754 902 754 c 0
 868 754 836 758 802 758 c 0
 793 758 783 758 774 757 c 1
 774 531 787 306 788 80 c 1
 832 83 877 87 921 87 c 1x35
145 751 m 1
 177 689 157 241 257 232 c 1
 319 158 411 112 508 112 c 0
 541 112 688 122 688 168 c 0x6d
 688 569 653 970 647 1371 c 1
 589 1436 486 1449 404 1449 c 0x6e
 172 1449 145 1127 145 957 c 0
 145 911 146 865 146 820 c 0
 146 797 146 774 145 751 c 1
EndSplineSet
EndChar

StartChar: Oslash
Encoding: 216 216 78
Width: 728
VWidth: 0
Flags: W
HStem: -57 112<336.91 457.87> 1477 108<270.292 409.064>
VStem: 100 95<422.125 1289.3> 535 94<219.953 1086.5>
LayerCount: 2
UndoRedoHistory
Layer: 1
Undoes
EndUndoes
Redoes
EndRedoes
EndUndoRedoHistory
Fore
SplineSet
329 1477 m 0
 197 1477 195 979 195 861 c 2
 195 852 l 2
 195 785 207 581 240 396 c 1
 422 1415 l 1
 397 1454 366 1477 329 1477 c 0
471 1299 m 1
 276 239 l 1
 307 132 349 55 405 55 c 0
 523 55 535 561 535 653 c 0
 535 749 533 1087 471 1299 c 1
250 47 m 1
 178 -280 l 1
 133 -224 l 1
 195 143 l 1
 114 355 103 676 103 799 c 0
 103 863 100 948 100 1039 c 0
 100 1291 125 1585 319 1585 c 0
 368 1585 410 1571 445 1545 c 1
 490 1799 l 1
 569 1799 l 1
 505 1481 l 1
 620 1313 629 976 629 734 c 0
 629 692 628 653 628 618 c 0
 628 531 611 446 610 359 c 1
 610 350 l 1
 600 306 597 261 597 215 c 0
 597 113 521 -57 401 -57 c 0
 333 -57 291 -18 250 47 c 1
EndSplineSet
EndChar

StartChar: P
Encoding: 80 80 80
Width: 495
VWidth: 0
Flags: W
HStem: 1546 20G<106 227.5>
VStem: 86 117<-7.11743 522.509> 338 105<960.641 1341.58>
LayerCount: 2
UndoRedoHistory
Layer: 1
Undoes
EndUndoes
Redoes
EndRedoes
EndUndoRedoHistory
Fore
SplineSet
96 789 m 0
 96 1059 84 1327 43 1520 c 1
 61 1546 90 1566 122 1566 c 0
 333 1566 443 1365 443 1175 c 0
 443 983 361 805 187 712 c 1
 188 499 203 287 203 74 c 0
 203 30 186 -11 135 -11 c 0
 99 -11 86 29 86 58 c 0
 86 260 96 526 96 789 c 0
338 1158 m 2
 338 1159 l 2
 338 1334 295 1362 158 1459 c 1
 159 1243 181 1027 182 811 c 1
 286 909 338 1014 338 1158 c 2
EndSplineSet
EndChar

StartChar: Q
Encoding: 81 81 81
Width: 676
VWidth: 0
Flags: W
HStem: -282 113<512.751 647.104> 1474 102<235.359 369.391>
VStem: 56 101<265.806 1091.4> 481 112<218.948 1108.71>
LayerCount: 2
UndoRedoHistory
Layer: 1
Undoes
EndUndoes
Redoes
EndRedoes
EndUndoRedoHistory
Fore
SplineSet
273 1474 m 0
 166 1474 157 775 157 653 c 0
 157 522 171 95 348 80 c 1
 348 82 l 1
 358 99 384 108 404 108 c 1
 404 107 l 1
 464 162 481 252 481 327 c 2
 481 793 l 2
 481 1004 496 1474 273 1474 c 0
593 659 m 0
 593 627 593 596 593 567 c 0
 593 369 586 236 467 70 c 1
 477 27 498 -169 554 -169 c 0
 557 -169 559 -169 562 -169 c 0
 598 -169 650 -171 650 -219 c 0
 650 -270 600 -282 559 -282 c 0
 528 -282 500 -268 474 -253 c 1
 474 -252 l 1
 376 -207 379 -69 360 20 c 1
 276 20 l 1
 82 149 56 359 56 574 c 0
 56 685 66 797 66 908 c 0
 66 943 64 994 64 1052 c 0
 64 1265 86 1576 290 1576 c 0
 634 1576 593 979 593 659 c 0
EndSplineSet
EndChar

StartChar: R
Encoding: 82 82 82
Width: 548
VWidth: 0
Flags: W
HStem: 1537 20G<115.5 228.5>
VStem: 86 101<-12.2296 859 951 1463> 390 124<-12.75 200.897>
LayerCount: 2
UndoRedoHistory
Layer: 1
Undoes
EndUndoes
Redoes
EndRedoes
EndUndoRedoHistory
Fore
SplineSet
187 859 m 1
 187 52 l 2
 187 17 181 -13 130 -13 c 0
 99 -13 78 12 78 44 c 2
 78 60 l 2
 78 460 86 861 86 1261 c 2
 86 1513 l 2
 86 1541 91 1557 140 1557 c 0
 317 1557 398 1370 398 1217 c 0
 398 1097 346 985 303 876 c 1
 306 648 443 299 514 76 c 1
 514 71 l 2
 514 35 515 -21 464 -21 c 0
 430 -21 407 8 390 34 c 1
 390 41 l 1
 374 299 253 598 187 859 c 1
283 1207 m 2
 294 1265 261 1449 191 1463 c 1
 190 1324 180 1184 180 1045 c 0
 180 1014 180 982 182 951 c 1
 207 975 230 1002 251 1030 c 1
 283 1207 l 2
EndSplineSet
EndChar

StartChar: S
Encoding: 83 83 87
Width: 523
VWidth: 0
Flags: W
HStem: -45 93<66.7991 274.393> 1456 118<298.082 377>
VStem: 63 117<1065.35 1430.07> 356 121<153.265 580.714>
LayerCount: 2
UndoRedoHistory
Layer: 1
Undoes
EndUndoes
Redoes
EndRedoes
EndUndoRedoHistory
Fore
SplineSet
180 1290 m 0
 180 939 477 751 477 342 c 0
 477 179 389 -45 197 -45 c 0
 157 -45 38 -31 38 24 c 0
 38 52 52 79 84 79 c 0
 128 79 165 48 197 48 c 0
 310 48 356 268 356 355 c 0
 356 690 63 940 63 1275 c 0
 63 1408 137 1574 291 1574 c 0
 339 1574 393 1545 412 1500 c 1
 377 1456 l 1
 349 1456 320 1460 297 1476 c 1
 215 1468 180 1360 180 1290 c 0
EndSplineSet
EndChar

StartChar: T
Encoding: 84 84 92
Width: 492
VWidth: 0
Flags: W
HStem: 1438 112<307.328 460.91>
VStem: 215 102<615.456 1421.31> 227 125<-9.7756 410.891> 243 92<94.1094 844.58>
LayerCount: 2
UndoRedoHistory
Layer: 1
Undoes
EndUndoes
Redoes
EndRedoes
EndUndoRedoHistory
Fore
SplineSet
317 925 m 0xc0
 317 765 335 615 335 454 c 0x90
 335 331 352 209 352 86 c 0
 352 46 346 -14 293 -14 c 0
 242 -14 227 48 227 89 c 0xa0
 227 198 243 307 243 416 c 0x90
 243 629 215 841 215 1054 c 0
 215 1093 218 1163 218 1233 c 0
 218 1311 214 1389 199 1424 c 1
 162 1422 125 1413 88 1413 c 0
 56 1413 21 1433 21 1469 c 0
 21 1539 340 1550 397 1550 c 0
 429 1550 463 1526 463 1492 c 0
 463 1457 433 1438 401 1438 c 0
 376 1438 352 1442 328 1442 c 0
 321 1442 314 1442 307 1441 c 1
 317 1357 321 1273 321 1189 c 0
 321 1102 317 1013 317 925 c 0xc0
EndSplineSet
EndChar

StartChar: Thorn
Encoding: 307 222 96
Width: 495
VWidth: 0
Flags: W
VStem: 62 121<851.734 1249 1343.84 1542.6> 86 117<-7.63279 495.298> 337 106<748.682 1145.59>
LayerCount: 2
UndoRedoHistory
Layer: 1
Undoes
EndUndoes
Redoes
EndRedoes
EndUndoRedoHistory
Fore
SplineSet
337 948 m 0x20
 337 1117 313 1147 184 1249 c 1
 178 1249 l 1
 178 1033 182 817 182 601 c 1
 286 699 337 804 337 948 c 0x20
64 1297 m 1
 62 1487 l 2
 62 1522 74 1548 113 1548 c 0
 173 1548 183 1483 183 1424 c 0xa0
 183 1396 181 1370 181 1353 c 1
 362 1327 443 1128 443 965 c 0
 443 773 361 595 187 502 c 1
 188 359 203 217 203 74 c 0
 203 29 186 -11 135 -11 c 0
 99 -11 86 29 86 58 c 0x60
 86 471 64 884 64 1297 c 1
EndSplineSet
EndChar

StartChar: U
Encoding: 85 85 97
Width: 699
VWidth: 0
Flags: W
HStem: -37 72<360.646 492.67>
VStem: 52 120<937.81 1476.3> 476 127<1339.97 1497> 521 104<51.85 725.598>
LayerCount: 2
UndoRedoHistory
Layer: 1
Undoes
EndUndoes
Redoes
EndRedoes
EndUndoRedoHistory
Fore
SplineSet
54 1435 m 1xd0
 44 1446 39 1462 39 1477 c 0
 39 1509 65 1540 98 1540 c 0
 166 1540 172 1443 172 1394 c 0
 172 1157 191 919 191 682 c 1
 209 641 220 492 220 444 c 0
 220 335 295 35 436 35 c 0
 520 35 521 160 521 219 c 2
 521 619 l 2xd0
 521 748 495 876 495 1005 c 2
 495 1019 l 2
 495 1059 491 1098 491 1138 c 0
 491 1255 476 1372 476 1489 c 0
 476 1525 521 1545 553 1545 c 1
 603 1497 l 1
 603 1463 l 1xe0
 602 1421 588 1380 588 1338 c 0
 588 989 625 663 625 288 c 0
 625 137 605 -37 423 -37 c 0
 84 -37 52 607 52 1115 c 0
 52 1232 54 1342 54 1435 c 1xd0
EndSplineSet
EndChar

StartChar: V
Encoding: 86 86 107
Width: 620
VWidth: 0
Flags: W
HStem: 1543 20G<75 124 518.5 571.391>
LayerCount: 2
UndoRedoHistory
Layer: 1
Undoes
EndUndoes
Redoes
EndRedoes
EndUndoRedoHistory
Fore
SplineSet
88 1563 m 0
 160 1563 303 490 334 339 c 1
 379 733 459 1130 459 1528 c 1
 478 1552 503 1569 534 1569 c 1
 577 1546 l 1
 556 1356 413 -34 350 -34 c 0
 332 -34 314 -26 302 -12 c 1
 212 359 105 1167 31 1523 c 1
 39 1549 62 1563 88 1563 c 0
EndSplineSet
EndChar

StartChar: W
Encoding: 87 87 108
Width: 901
VWidth: 0
Flags: W
HStem: 1368 20G<396.5 430.5>
VStem: 218 134<-20.5019 482.15> 357 127<944.213 1384.59> 736 116<1063.91 1535.2>
LayerCount: 2
UndoRedoHistory
Layer: 1
Undoes
EndUndoes
Redoes
EndRedoes
EndUndoRedoHistory
Fore
SplineSet
697 43 m 0
 697 5 679 -28 636 -28 c 0
 547 -28 449 788 430 893 c 1
 390 606 352 318 352 28 c 0
 352 -2 322 -29 293 -29 c 0
 221 -29 218 76 218 127 c 0
 218 250 58 1413 26 1491 c 1
 40 1517 66 1540 97 1540 c 0
 207 1540 258 645 279 503 c 1
 301 694 357 1115 357 1286 c 2
 357 1325 l 2
 357 1353 382 1388 411 1388 c 0
 450 1388 484 1374 484 1328 c 2
 484 1297 l 1
 485 1011 587 740 633 461 c 1
 668 809 736 1155 736 1506 c 0
 736 1561 747 1592 810 1592 c 0
 840 1592 873 1569 873 1536 c 0
 873 1519 864 1501 852 1489 c 1
 852 1011 697 523 697 43 c 0
EndSplineSet
EndChar

StartChar: X
Encoding: 88 88 109
Width: 520
VWidth: 0
Flags: W
VStem: 210 116<568.364 1024.15> 350 116<25.2763 300.119>
LayerCount: 2
UndoRedoHistory
Layer: 1
Undoes
EndUndoes
Redoes
EndRedoes
EndUndoRedoHistory
Fore
SplineSet
276 1087 m 1
 296 1158 339 1550 418 1550 c 0
 444 1550 479 1536 479 1505 c 0
 479 1399 326 929 326 796 c 0
 326 765 420 309 432 248 c 1
 432 236 l 1
 436 182 466 134 466 80 c 0
 466 50 440 24 410 24 c 0
 379 24 350 38 350 73 c 0
 350 231 302 385 267 538 c 1
 243 438 197 -13 93 -13 c 0
 68 -13 38 5 38 33 c 0
 38 221 210 606 210 819 c 0
 210 1045 79 1262 79 1473 c 2
 79 1478 l 1
 89 1500 109 1520 135 1520 c 0
 213 1520 258 1173 276 1087 c 1
EndSplineSet
EndChar

StartChar: Y
Encoding: 89 89 110
Width: 453
VWidth: 0
Flags: W
VStem: 25 393<1287 1534> 183 131<426.621 996.203> 212 120<-21.125 880.662>
LayerCount: 2
UndoRedoHistory
Layer: 1
Undoes
EndUndoes
Redoes
EndRedoes
EndUndoRedoHistory
Fore
SplineSet
240 1006 m 1x80
 256 1088 266 1539 364 1539 c 0
 378 1539 418 1539 418 1517 c 0x80
 418 1287 320 1062 320 828 c 0
 320 804 313 781 314 757 c 1
 314 726 l 2x40
 314 545 325 364 325 183 c 0
 325 149 333 115 332 81 c 1
 332 35 l 2
 332 -2 298 -25 264 -25 c 0
 237 -25 212 -3 212 25 c 0x20
 212 157 222 289 222 421 c 0
 222 541 183 656 183 776 c 0x40
 183 1025 25 1267 25 1513 c 0
 25 1534 56 1549 77 1549 c 0
 150 1549 215 1093 240 1006 c 1x80
EndSplineSet
EndChar

StartChar: Z
Encoding: 90 90 113
Width: 429
VWidth: 0
Flags: W
HStem: -19 104<161 345> 1441 102<68.9762 280.319> 1544 20G<300 348>
VStem: 34 354
LayerCount: 2
UndoRedoHistory
Layer: 1
Undoes
EndUndoes
Redoes
EndRedoes
EndUndoRedoHistory
Fore
SplineSet
161 85 m 1
 184 86 227 93 269 93 c 0
 324 93 377 81 377 30 c 2
 377 21 l 1
 345 -11 l 1
 261 -11 176 -19 92 -19 c 0
 61 -19 44 5 34 31 c 1
 137 197 267 1235 281 1451 c 1
 256 1449 209 1441 164 1441 c 0
 107 1441 53 1453 53 1506 c 2
 53 1515 l 1
 81 1549 l 1
 81 1550 l 1
 100 1545 119 1543 139 1543 c 0
 203 1543 268 1564 332 1564 c 0
 364 1564 388 1536 388 1505 c 0
 388 1051 266 494 161 85 c 1
EndSplineSet
EndChar

StartChar: a
Encoding: 97 97 117
Width: 621
VWidth: 0
Flags: W
HStem: 1353 20G<277.5 381>
VStem: 405 113<376.172 858> 454 125<-14.1442 301.879>
LayerCount: 2
UndoRedoHistory
Layer: 1
Undoes
EndUndoes
Redoes
EndRedoes
EndUndoRedoHistory
Fore
SplineSet
411 375 m 1xc0
 406 400 405 425 405 451 c 0
 405 680 370 907 350 1134 c 1
 307 897 248 551 230 408 c 1
 265 385 367 378 411 375 c 1xc0
424 302 m 1
 222 332 l 1
 178 174 197 -11 107 -11 c 0
 77 -11 42 11 42 44 c 0
 42 49 46 57 47 62 c 0
 134 397 207 759 252 1100 c 0
 261 1169 259 1317 296 1373 c 1
 365 1373 l 2
 397 1373 435 1359 435 1321 c 0
 435 1016 518 693 518 416 c 0xc0
 518 376 540 330 540 290 c 0
 540 239 579 99 579 41 c 2
 579 39 l 2
 579 15 568 -10 545 -19 c 1
 496 -19 454 -10 454 49 c 0xa0
 454 136 424 302 424 302 c 1
EndSplineSet
EndChar

StartChar: acute
Encoding: 317 180 121
Width: 453
VWidth: 0
Flags: W
HStem: 1291 286
VStem: 41 363
LayerCount: 2
UndoRedoHistory
Layer: 1
Undoes
EndUndoes
Redoes
EndRedoes
EndUndoRedoHistory
Fore
SplineSet
52 1339 m 0
 136 1417 272 1528 320 1573 c 1
 326 1575 331 1577 337 1577 c 0
 371 1577 404 1534 404 1500 c 0
 404 1487 399 1475 389 1468 c 0
 329 1424 167 1335 91 1295 c 0
 85 1292 80 1291 74 1291 c 0
 57 1291 41 1303 41 1318 c 0
 41 1325 44 1332 52 1339 c 0
EndSplineSet
EndChar

StartChar: ae
Encoding: 230 230 123
Width: 879
VWidth: 0
Flags: W
HStem: -14 96<555 778.438> 597 88<552.484 708> 597 79<302.391 453 550 705.516> 1240 114<544.091 736>
VStem: 44 135<47.1433 274.97> 461 95<84.3766 593 676 1083>
LayerCount: 2
UndoRedoHistory
Layer: 1
Undoes
EndUndoes
Redoes
EndRedoes
EndUndoRedoHistory
Fore
SplineSet
493 -13 m 0xdc
 477 -13 451 -1 451 19 c 0
 451 96 467 175 467 253 c 0
 467 366 457 480 457 593 c 1
 398 588 337 590 280 571 c 1
 179 226 l 2
 165 177 152 1 84 1 c 0
 61 1 44 27 44 48 c 0
 44 246 316 949 396 1180 c 0
 419 1247 427 1332 512 1344 c 0
 565 1351 616 1354 670 1354 c 0
 707 1354 757 1345 757 1298 c 2
 757 1292 l 1
 736 1250 l 1
 672 1240 607 1240 542 1240 c 1
 544 1149 556 1058 556 966 c 0
 556 869 550 773 550 676 c 1xbc
 603 678 655 685 708 685 c 1
 750 647 l 1
 750 602 691 597 650 597 c 0
 642 597 634 597 628 597 c 2
 549 598 l 1
 550 426 555 254 555 82 c 1
 631 83 706 103 782 103 c 0
 811 103 850 87 850 53 c 0
 850 -7 681 -14 573 -14 c 0
 537 -14 507 -13 493 -13 c 0xdc
453 666 m 1
 455 762 461 857 461 953 c 0
 461 996 461 1040 459 1083 c 1
 401 940 340 797 300 648 c 1
 351 650 403 655 453 666 c 1
EndSplineSet
EndChar

StartChar: ampersand
Encoding: 38 38 126
Width: 903
VWidth: 0
Flags: W
HStem: 18 85<235.174 481.243> 19 93<634.066 826> 613 83<571.417 601.758> 1450 94<312.299 418.344>
VStem: 48 95<202.653 646.229> 216 93<993 1449.02> 462 92<1156.94 1407.3> 605 92<290.853 609>
LayerCount: 2
UndoRedoHistory
Layer: 1
Undoes
EndUndoes
Redoes
EndRedoes
EndUndoRedoHistory
Fore
SplineSet
309 1291 m 2x3f
 309 1199 312 1108 312 1016 c 2
 312 993 l 1
 370 1065 462 1213 462 1291 c 0
 462 1334 412 1450 361 1450 c 0
 343 1450 325 1436 309 1400 c 1
 309 1291 l 2x3f
803 722 m 1
 831 716 861 701 861 668 c 0
 861 621 792 612 754 612 c 0
 752 612 750 613 748 613 c 2
 697 613 l 1
 697 516 696 285 613 175 c 1
 647 140 693 112 743 112 c 0
 771 112 798 118 826 118 c 1
 864 87 l 1
 864 26 809 19 760 19 c 0x7f
 686 19 621 53 562 96 c 1
 490 47 419 18 331 18 c 0xbf
 165 18 48 202 48 354 c 0
 48 600 121 733 230 945 c 1
 229 1039 216 1132 216 1226 c 2
 216 1396 l 2
 216 1502 275 1544 344 1544 c 0
 440 1544 554 1463 554 1360 c 0
 554 1188 492 1065 388 944 c 1
 373 917 336 876 336 846 c 0
 336 734 465 318 541 238 c 1
 591 352 605 477 605 600 c 2
 605 609 l 1
 582 609 580 624 571 644 c 1
 571 696 l 1
 627 696 752 705 803 722 c 1
251 789 m 1
 176 671 143 528 143 389 c 0
 143 262 197 103 349 103 c 0xbf
 390 103 470 128 499 158 c 1
 368 347 291 546 251 789 c 1
EndSplineSet
EndChar

StartChar: asciicircum
Encoding: 94 94 129
Width: 280
VWidth: 0
Flags: W
HStem: 1515 141<79.9642 204.062>
VStem: 73 137<1519.19 1649.41>
LayerCount: 2
UndoRedoHistory
Layer: 1
Undoes
EndUndoes
Redoes
EndRedoes
EndUndoRedoHistory
Fore
SplineSet
73 1575 m 0
 73 1612 93 1656 136 1656 c 0
 176 1656 210 1623 210 1583 c 0
 210 1546 184 1515 146 1515 c 0
 109 1515 73 1534 73 1575 c 0
EndSplineSet
EndChar

StartChar: asterisk
Encoding: 42 42 130
Width: 1051
VWidth: 0
Flags: W
HStem: 1096 100<136.382 425 584.452 912.298> 1547 20G<613 663.5>
VStem: 598 130<711.147 821>
LayerCount: 2
UndoRedoHistory
Layer: 1
Undoes
EndUndoes
Redoes
EndRedoes
EndUndoRedoHistory
Fore
SplineSet
583 1194 m 1
 614 1190 644 1189 675 1189 c 0
 702 1189 759 1199 810 1199 c 0
 865 1199 914 1187 914 1137 c 0
 914 1096 878 1085 843 1085 c 0
 754 1085 665 1094 576 1094 c 1
 606 1015 728 819 728 752 c 0
 728 723 705 700 676 700 c 0
 619 700 600 776 598 821 c 1
 511 1011 l 1
 471 910 434 782 377 690 c 1
 328 690 l 1
 284 736 l 1
 283 745 l 1
 288 817 410 1012 439 1096 c 1
 214 1096 l 2
 169 1096 136 1092 136 1150 c 0
 136 1175 156 1196 182 1196 c 2
 425 1196 l 1
 398 1250 289 1455 289 1501 c 0
 289 1531 318 1547 345 1547 c 0
 401 1547 471 1307 496 1258 c 1
 516 1317 577 1567 649 1567 c 0
 678 1567 706 1542 706 1512 c 0
 706 1444 613 1268 583 1194 c 1
EndSplineSet
EndChar

StartChar: at
Encoding: 64 64 131
Width: 1030
VWidth: 0
Flags: W
HStem: -120 89<325.984 653.746> 306 104<436.615 569.731> 1246 105<433.078 551.3> 1612 107<298.251 622.104>
VStem: 15 121<496.455 1393.42> 258 107<509.431 1147.44> 638 150<556 973.661> 870 115<518.392 1215.27>
LayerCount: 2
UndoRedoHistory
Layer: 1
Undoes
EndUndoes
Redoes
EndRedoes
EndUndoRedoHistory
Fore
SplineSet
430 -120 m 0
 17 -120 15 685 15 956 c 0
 15 1262 23 1719 478 1719 c 0
 906 1719 985 1150 985 767 c 0
 985 645 981 406 809 406 c 0
 770 406 734 459 706 519 c 1
 662 398 578 306 487 306 c 0
 260 306 258 661 258 851 c 0
 258 1047 262 1351 491 1351 c 0
 759 1351 759 818 788 565 c 1
 788 556 l 1
 817 510 l 1
 865 536 870 723 870 776 c 0
 870 1092 813 1612 468 1612 c 0
 152 1612 136 1300 136 1050 c 0
 136 1021 136 993 136 966 c 0
 136 956 136 943 136 930 c 0
 136 688 144 -31 434 -31 c 0
 730 -31 794 150 876 150 c 0
 888 150 894 142 894 130 c 0
 894 72 744 -120 430 -120 c 0
491 1246 m 0
 409 1246 365 1035 365 825 c 0
 365 617 409 410 503 410 c 0
 565 410 638 550 638 605 c 2
 638 759 l 2
 638 875 612 1246 491 1246 c 0
EndSplineSet
EndChar

StartChar: b
Encoding: 98 98 133
Width: 491
VWidth: 0
Flags: W
HStem: 1363 20G<121 247.5>
VStem: 65 116<85.8323 544.253> 83 111<94.8423 185.859 188.111 643 763 1286.02> 302 117<798.795 1243.82> 321 110<153.277 572.671>
LayerCount: 2
UndoRedoHistory
Layer: 1
Undoes
EndUndoes
Redoes
EndRedoes
EndUndoRedoHistory
Fore
SplineSet
194 1068 m 2xb0
 194 763 l 1
 296 766 302 939 302 1012 c 0
 302 1076 303 1278 218 1288 c 1
 199 1247 194 1128 194 1068 c 2xb0
188 333 m 0
 188 278 181 231 181 186 c 0
 181 183 183 179 183 176 c 2
 183 84 l 1
 282 107 321 217 321 308 c 0xc8
 321 400 312 619 197 643 c 1
 190 540 188 436 188 333 c 0
336 705 m 1
 425 620 431 475 431 360 c 0
 431 167 349 -20 129 -20 c 0
 67 -20 65 42 65 88 c 0xc8
 65 234 85 378 85 524 c 0
 85 740 94 957 94 1173 c 0
 94 1208 85 1244 83 1279 c 1
 83 1290 l 2
 83 1338 92 1383 150 1383 c 0
 345 1383 419 1212 419 1028 c 0xb0
 419 883 397 791 336 705 c 1
EndSplineSet
EndChar

StartChar: backslash
Encoding: 92 92 134
Width: 511
VWidth: 0
Flags: W
HStem: 1535 20G<77 150.5>
VStem: 36 441
LayerCount: 2
UndoRedoHistory
Layer: 1
Undoes
EndUndoes
Redoes
EndRedoes
EndUndoRedoHistory
Fore
SplineSet
477 31 m 0
 477 6 452 -17 431 -30 c 1
 431 -31 l 1
 309 -31 115 1145 78 1312 c 0
 64 1376 36 1439 36 1505 c 0
 36 1535 63 1555 91 1555 c 0
 210 1555 477 127 477 31 c 0
EndSplineSet
EndChar

StartChar: bar
Encoding: 124 124 135
Width: 467
VWidth: 0
Flags: W
HStem: 1564 20G<176 213>
VStem: 143 103<-78.9622 1583.27>
LayerCount: 2
UndoRedoHistory
Layer: 1
Undoes
EndUndoes
Redoes
EndRedoes
EndUndoRedoHistory
Fore
SplineSet
143 114 m 0
 143 580 129 1045 129 1510 c 0
 129 1556 152 1584 200 1584 c 0
 226 1584 242 1556 242 1533 c 0
 242 1148 246 763 246 379 c 2
 246 -29 l 2
 246 -57 222 -80 194 -80 c 0
 142 -80 143 82 143 114 c 0
EndSplineSet
EndChar

StartChar: braceleft
Encoding: 123 123 136
Width: 649
VWidth: 0
Flags: W
HStem: -48 87<355.595 553.656> 1408 87<363.527 553.704>
VStem: 240 96<52.3438 712.803 825.053 1225.19 1226.84 1387.13>
LayerCount: 2
UndoRedoHistory
Layer: 1
Undoes
EndUndoes
Redoes
EndRedoes
EndUndoRedoHistory
Fore
SplineSet
443 -48 m 0
 278 -48 240 52 240 198 c 2
 240 621 l 2
 240 785 101 673 101 766 c 0
 101 866 240 754 240 916 c 0
 240 958 230 1054 230 1130 c 0
 230 1173 233 1209 243 1226 c 1
 240 1244 238 1262 238 1280 c 0
 238 1399 306 1495 443 1495 c 0
 477 1495 586 1482 586 1435 c 0
 586 1404 556 1389 529 1389 c 0
 494 1389 463 1408 428 1408 c 0
 330 1408 330 1222 330 1157 c 0
 330 1106 338 1024 338 947 c 0
 338 875 331 806 302 768 c 1
 334 728 336 672 336 622 c 2
 336 182 l 2
 336 118 346 39 428 39 c 0
 470 39 507 62 549 62 c 0
 561 62 566 25 566 16 c 0
 566 -36 481 -48 443 -48 c 0
EndSplineSet
EndChar

StartChar: braceright
Encoding: 125 125 137
Width: 649
VWidth: 0
Flags: W
HStem: -48 87<133.296 323.191> 1408 87<133.344 318.918>
VStem: 347 100<56.5012 220.11 221.724 674.84 782.323 1389.25>
LayerCount: 2
UndoRedoHistory
Layer: 1
Undoes
EndUndoes
Redoes
EndRedoes
EndUndoRedoHistory
Fore
SplineSet
244 1495 m 0
 407 1495 445 1394 446 1249 c 2
 447 876 l 2
 447 712 576 821 576 731 c 0
 576 630 447 745 447 581 c 0
 447 538 455 421 455 330 c 0
 455 279 453 236 444 221 c 1
 447 202 448 184 448 166 c 0
 448 47 381 -48 244 -48 c 0
 210 -48 101 -35 101 12 c 0
 101 43 131 58 158 58 c 0
 193 58 224 39 259 39 c 0
 356 39 357 224 357 289 c 0
 357 346 347 443 347 534 c 0
 347 615 355 691 385 729 c 1
 353 770 348 825 348 875 c 0
 348 915 358 1021 358 1127 c 0
 358 1267 341 1408 259 1408 c 0
 217 1408 180 1385 138 1385 c 0
 126 1385 121 1422 121 1431 c 0
 121 1483 206 1495 244 1495 c 0
EndSplineSet
EndChar

StartChar: bracketleft
Encoding: 91 91 138
Width: 467
VWidth: 0
Flags: W
HStem: -112 118<156.822 345.416> 1478 99<231.942 433.141>
VStem: 42 110<6 414.613> 138 94<1053.75 1478>
LayerCount: 2
UndoRedoHistory
Layer: 1
Undoes
EndUndoes
Redoes
EndRedoes
EndUndoRedoHistory
Fore
SplineSet
152 48 m 2xe0
 152 6 l 1
 158 6 165 6 173 6 c 0
 237 6 355 2 355 -68 c 0
 355 -103 316 -112 289 -112 c 0
 238 -112 42 -108 42 -35 c 0xe0
 42 134 85 301 85 470 c 0
 85 808 138 1142 138 1480 c 0
 138 1495 136 1508 136 1519 c 0
 136 1548 143 1563 177 1577 c 1
 255 1577 l 2
 297 1577 441 1572 441 1511 c 0
 441 1481 411 1465 385 1465 c 0
 346 1465 309 1478 270 1478 c 0
 257 1478 232 1478 232 1458 c 0xd0
 232 987 152 502 152 48 c 2xe0
EndSplineSet
EndChar

StartChar: bracketright
Encoding: 93 93 139
Width: 472
VWidth: 0
Flags: W
HStem: -112 118<128.106 317.631> 1465 112<40.1842 240>
VStem: 240 96<1056.06 1476> 321 112<6 415.954>
LayerCount: 2
UndoRedoHistory
Layer: 1
Undoes
EndUndoes
Redoes
EndRedoes
EndUndoRedoHistory
Fore
SplineSet
185 -112 m 0xd0
 156 -112 118 -103 118 -68 c 0
 118 11 269 5 321 6 c 1
 321 48 l 1xd0
 308 519 240 986 240 1458 c 2
 240 1476 l 1
 195 1475 151 1465 106 1465 c 0
 75 1465 32 1471 32 1511 c 0
 32 1573 182 1577 225 1577 c 0
 241 1577 255 1578 267 1578 c 0
 316 1578 336 1569 336 1481 c 0xe0
 336 1156 392 835 392 510 c 0
 392 327 433 148 433 -35 c 0
 433 -108 236 -112 185 -112 c 0xd0
EndSplineSet
EndChar

StartChar: breve
Encoding: 320 728 140
Width: 576
VWidth: 0
Flags: W
HStem: 867 95<232.333 339.178>
VStem: 350 108<965.474 1048 1048.34 1131.85>
LayerCount: 2
UndoRedoHistory
Layer: 1
Undoes
EndUndoes
Redoes
EndRedoes
EndUndoRedoHistory
Fore
SplineSet
458 1032 m 1
 458 1031 l 1
 421 945 395 867 286 867 c 0
 159 867 114 992 114 1100 c 2
 114 1110 l 1
 152 1142 l 1
 223 1142 204 1001 260 962 c 1
 304 962 l 2
 325 962 350 1025 350 1043 c 0
 350 1088 350 1133 408 1133 c 0
 436 1133 462 1110 462 1081 c 0
 462 1075 456 1055 454 1048 c 1
 458 1032 l 1
EndSplineSet
EndChar

StartChar: brokenbar
Encoding: 321 166 141
Width: 325
VWidth: 0
Flags: W
HStem: 1564 20G<151 194>
VStem: 104 116<-75.4689 692.678 831.432 1580.46>
LayerCount: 2
UndoRedoHistory
Layer: 1
Undoes
EndUndoes
Redoes
EndRedoes
EndUndoRedoHistory
Fore
SplineSet
112 1020 m 0
 112 1183 104 1348 104 1510 c 0
 104 1556 127 1584 175 1584 c 0
 213 1584 220 1481 220 1393 c 0
 220 1346 218 1304 218 1285 c 2
 215 877 l 2
 215 849 191 826 163 826 c 0
 111 826 112 988 112 1020 c 0
157 695 m 0
 203 695 218 662 218 621 c 2
 220 -16 l 2
 220 -50 208 -80 169 -80 c 0
 141 -80 117 -57 117 -29 c 2
 114 339 l 1
 115 644 l 2
 115 668 131 695 157 695 c 0
EndSplineSet
EndChar

StartChar: bullet
Encoding: 322 8226 142
Width: 637
VWidth: 0
Flags: W
HStem: 485 526<220.976 436.586>
VStem: 105 432<600.125 881.034>
LayerCount: 2
UndoRedoHistory
Layer: 1
Undoes
EndUndoes
Redoes
EndRedoes
EndUndoRedoHistory
Fore
SplineSet
105 727 m 0
 105 814 144 878 174 920 c 1
 187 947 271 1011 301 1011 c 0
 491 1011 537 866 537 779 c 0
 537 694 500 485 310 485 c 0
 196 485 106 595 106 665 c 0
 106 687 105 705 105 727 c 0
EndSplineSet
EndChar

StartChar: c
Encoding: 99 99 143
Width: 505
VWidth: 0
Flags: W
HStem: -29 108<245.051 432.709> 1258 106<258.907 458.139>
VStem: 46 131<151.668 1129.34>
LayerCount: 2
UndoRedoHistory
Layer: 1
Undoes
EndUndoes
Redoes
EndRedoes
EndUndoRedoHistory
Fore
SplineSet
396 1364 m 0
 441 1364 459 1338 459 1312 c 0
 459 1286 441 1260 415 1258 c 1
 319 1258 l 2
 199 1258 177 913 177 827 c 2
 177 817 l 2
 177 685 168 554 168 422 c 0
 168 286 180 79 362 79 c 0
 378 79 394 86 406 97 c 1
 434 97 468 85 468 52 c 0
 468 -9 416 -29 355 -29 c 0
 290 -29 214 -6 183 14 c 0
 55 97 47 359 47 495 c 0
 47 527 46 569 46 615 c 0
 46 631 46 648 46 664 c 0
 46 1005 54 1364 396 1364 c 0
EndSplineSet
EndChar

StartChar: caron
Encoding: 324 711 145
Width: 498
VWidth: 0
Flags: W
HStem: 928 428 1336 20G<130.5 169.5>
VStem: 94 310<1310 1339>
LayerCount: 2
UndoRedoHistory
Layer: 1
Undoes
EndUndoes
Redoes
EndRedoes
EndUndoRedoHistory
Fore
SplineSet
94 1317 m 0xa0
 94 1339 118 1356 143 1356 c 0x60
 196 1356 252 1105 271 1051 c 1
 288 1148 291 1363 361 1363 c 0
 384 1363 404 1347 404 1320 c 0
 404 1310 391 1298 389 1289 c 1
 389 1252 l 2
 389 1240 331 1050 331 994 c 0
 331 960 318 928 279 928 c 0
 220 928 94 1253 94 1317 c 0xa0
EndSplineSet
EndChar

StartChar: cedilla
Encoding: 326 184 149
Width: 404
VWidth: 0
Flags: W
HStem: -484 81<84.6153 247.234> -219 128<141.59 248.731>
VStem: 91 49<-93.9224 18> 262 87<-394.919 -233.138>
LayerCount: 2
UndoRedoHistory
Layer: 1
Undoes
EndUndoes
Redoes
EndRedoes
EndUndoRedoHistory
Fore
SplineSet
185 -403 m 0
 237 -403 262 -356 262 -304 c 0
 262 -264 228 -219 164 -219 c 0
 128 -219 85 -218 82 -207 c 1
 82 -151 91 -99 91 -41 c 0
 91 -20 91 -2 97 18 c 1
 153 18 l 1
 146 -18 142 -54 140 -91 c 1
 297 -112 349 -216 349 -318 c 0
 349 -397 265 -484 180 -484 c 0
 129 -484 58 -467 58 -425 c 0
 58 -400 80 -381 104 -381 c 0
 134 -381 156 -403 185 -403 c 0
EndSplineSet
EndChar

StartChar: cent
Encoding: 327 162 150
Width: 613
VWidth: 0
Flags: W
VStem: 54 99<495.254 1082.04> 206 84<1255.8 1443.47> 288 95<12.8484 64.2493 67.1562 299.781 424.184 820.127>
LayerCount: 2
UndoRedoHistory
Layer: 1
Undoes
EndUndoes
Redoes
EndRedoes
EndUndoRedoHistory
Fore
SplineSet
218 1125 m 1x80
 166 1049 153 882 153 790 c 0
 153 699 157 444 276 424 c 1
 275 656 263 897 218 1125 c 1x80
284 203 m 1
 281 202 l 1
 281 239 289 276 289 313 c 1
 57 402 54 560 54 777 c 0
 54 943 59 1156 217 1254 c 1
 213 1292 206 1330 206 1368 c 0
 206 1403 212 1456 258 1456 c 2
 265 1456 l 1
 295 1436 l 1
 292 1414 290 1393 290 1371 c 0xc0
 290 1332 295 1293 300 1254 c 1
 359 1236 477 1218 484 1140 c 1
 482 1140 l 1
 482 1135 l 2
 482 1114 464 1084 440 1084 c 0
 408 1084 383 1112 372 1140 c 1
 314 1169 l 1
 309 1169 l 1
 314 921 370 676 370 428 c 0
 370 420 368 411 368 403 c 0
 368 399 369 395 370 391 c 1
 448 395 483 452 522 511 c 1
 563 511 581 492 581 451 c 0
 581 373 443 307 377 301 c 1
 373 275 369 249 369 222 c 0
 369 157 383 93 383 28 c 0
 383 2 361 -20 335 -20 c 2
 326 -20 l 1
 288 15 l 1xa0
 291 32 292 49 292 65 c 0
 292 111 284 157 284 203 c 1
EndSplineSet
EndChar

StartChar: circumflex
Encoding: 328 710 151
Width: 516
VWidth: 0
Flags: W
HStem: 903 416
VStem: 89 337<930 951>
LayerCount: 2
UndoRedoHistory
Layer: 1
Undoes
EndUndoes
Redoes
EndRedoes
EndUndoRedoHistory
Fore
SplineSet
170 931 m 2
 166 922 155 917 141 917 c 0
 118 917 89 930 89 957 c 0
 89 963 90 969 93 976 c 0
 200 1232 215 1319 290 1319 c 0
 342 1319 376 1126 423 964 c 0
 425 957 426 951 426 946 c 0
 426 916 400 903 379 903 c 0
 366 903 356 908 353 917 c 2
 273 1193 l 1
 170 931 l 2
EndSplineSet
EndChar

StartChar: colon
Encoding: 58 58 152
Width: 443
VWidth: 0
Flags: W
HStem: 177 152<146.707 278.981> 951 152<167.913 299.769>
VStem: 138 149<183.964 320.635> 159 149<958.168 1094.59>
LayerCount: 2
UndoRedoHistory
Layer: 1
Undoes
EndUndoes
Redoes
EndRedoes
EndUndoRedoHistory
Fore
SplineSet
138 250 m 0xe0
 138 291 174 329 215 329 c 0
 254 329 287 290 287 252 c 0
 287 206 252 177 207 177 c 0
 169 177 138 213 138 250 c 0xe0
159 1024 m 0xd0
 159 1064 194 1103 235 1103 c 0
 274 1103 308 1064 308 1026 c 0
 308 979 272 951 227 951 c 0
 189 951 159 987 159 1024 c 0xd0
EndSplineSet
EndChar

StartChar: comma
Encoding: 44 44 153
Width: 451
VWidth: 0
Flags: W
HStem: -202 387<215.342 237>
VStem: 102 242
LayerCount: 2
UndoRedoHistory
Layer: 1
Undoes
EndUndoes
Redoes
EndRedoes
EndUndoRedoHistory
Fore
SplineSet
273 185 m 4
 323 185 344 141 344 77 c 4
 344 -15 237 -202 132 -202 c 4
 116 -202 102 -192 102 -175 c 4
 102 -163 108 -146 127 -130 c 4
 207 -36 174 185 273 185 c 4
EndSplineSet
EndChar

StartChar: commaaccent
Encoding: 329 -1 154
Width: 462
VWidth: 0
Flags: W
HStem: -550 376<183 185>
VStem: 117 241
LayerCount: 2
UndoRedoHistory
Layer: 1
Undoes
EndUndoes
Redoes
EndRedoes
EndUndoRedoHistory
Fore
SplineSet
151 -550 m 0
 127 -550 117 -544 117 -527 c 1
 117 -527 183 -174 302 -174 c 1
 316 -185 358 -183 358 -215 c 0
 358 -317 185 -550 151 -550 c 0
EndSplineSet
EndChar

StartChar: copyright
Encoding: 169 169 155
Width: 1207
VWidth: 0
Flags: W
HStem: -20 101<394.421 757.015> 225 107<520.462 709.959> 1387 112<530.265 669.495> 1713 99<432.635 663.106>
VStem: 98 118<484.855 1345.77> 311 120<464.637 909.452> 997 114<484.553 1133.97>
LayerCount: 2
UndoRedoHistory
Layer: 1
Undoes
EndUndoes
Redoes
EndRedoes
EndUndoRedoHistory
Fore
SplineSet
98 924 m 0
 98 1208 148 1812 539 1812 c 0
 1001 1812 1111 1105 1111 757 c 0
 1111 403 1028 -20 588 -20 c 0
 143 -20 130 311 110 660 c 0
 105 748 98 836 98 924 c 0
215 940 m 1
 216 940 l 1
 216 825 228 710 235 595 c 0
 249 366 261 81 562 81 c 0
 819 81 921 234 976 464 c 1
 974 470 973 476 973 483 c 0
 973 516 997 558 997 589 c 2
 997 894 l 2
 997 971 972 1046 958 1121 c 0
 919 1328 860 1528 681 1658 c 0
 647 1683 608 1713 563 1713 c 0
 257 1713 215 1160 215 940 c 1
441 911 m 1
 440 911 l 1
 432 878 431 844 431 809 c 0
 431 799 431 782 431 758 c 0
 431 629 444 332 618 332 c 0
 716 332 734 440 800 440 c 0
 837 440 854 404 854 372 c 0
 854 283 702 225 628 225 c 0
 557 225 500 265 436 291 c 1
 324 504 311 570 311 813 c 0
 311 817 311 821 311 825 c 0
 311 1028 314 1499 594 1499 c 0
 696 1499 835 1380 835 1275 c 0
 835 1247 814 1223 785 1223 c 0
 685 1223 693 1387 603 1387 c 0
 450 1387 449 1026 437 921 c 1
 441 911 l 1
EndSplineSet
EndChar

StartChar: currency
Encoding: 330 164 156
Width: 895
VWidth: 0
Flags: W
HStem: 205 100<324.476 554.537> 1181 104<370.717 559.602>
VStem: 137 110<431.034 695.578 696 988.906> 678 119<200.822 251 545.8 959.329>
LayerCount: 2
UndoRedoHistory
Layer: 1
Undoes
EndUndoes
Redoes
EndRedoes
EndUndoRedoHistory
Fore
SplineSet
679 251 m 1
 679 248 l 1
 654 293 l 1
 589 235 502 205 415 205 c 0
 346 205 281 243 233 290 c 1
 216 253 196 201 147 201 c 0
 103 201 83 236 83 276 c 0
 83 315 148 360 169 392 c 1
 140 446 137 507 137 567 c 0
 137 692 141 977 209 1078 c 1
 186 1119 112 1160 112 1209 c 0
 112 1235 135 1255 160 1255 c 0
 212 1255 241 1209 268 1172 c 1
 295 1202 356 1285 398 1285 c 0
 477 1285 554 1259 620 1216 c 1
 654 1260 681 1351 749 1351 c 2
 759 1351 l 1
 802 1304 l 1
 798 1241 707 1165 707 1141 c 0
 707 1019 797 902 797 772 c 0
 797 643 730 525 730 396 c 0
 730 335 807 308 807 247 c 0
 807 219 785 195 757 195 c 0
 722 195 683 212 679 251 c 1
247 696 m 1
 250 696 l 1
 251 687 252 678 252 669 c 0
 252 641 247 614 247 585 c 0
 247 527 254 462 301 421 c 1
 301 332 374 305 451 305 c 0
 641 305 678 640 678 779 c 0
 678 840 653 1027 617 1071 c 1
 588 1077 568 1103 565 1132 c 1
 535 1165 486 1181 442 1181 c 0
 416 1181 351 1121 335 1100 c 1
 350 1086 l 1
 350 1055 344 1009 303 1009 c 0
 278 1009 247 774 247 696 c 1
EndSplineSet
EndChar

StartChar: d
Encoding: 100 100 157
Width: 610
VWidth: 0
Flags: W
HStem: -12 104<216 317.714>
VStem: 73 143<97.25 621.219> 79 106<607.109 1254.72> 438 104<274.022 1031.9>
LayerCount: 2
UndoRedoHistory
Layer: 1
Undoes
EndUndoes
Redoes
EndRedoes
EndUndoRedoHistory
Fore
SplineSet
55 1286 m 0xb0
 55 1322 93 1353 127 1353 c 0
 377 1353 546 1054 546 808 c 0
 546 778 542 741 542 705 c 0
 542 667 542 629 542 592 c 0
 542 340 526 119 273 -12 c 1
 125 -12 l 2
 75 -12 73 190 73 256 c 0xd0
 73 471 79 686 79 901 c 0
 79 1027 55 1184 55 1286 c 0xb0
216 141 m 2
 216 92 l 1xd0
 420 92 438 480 438 612 c 0
 438 784 432 1231 200 1258 c 1
 187 1188 185 1116 185 1045 c 0xb0
 185 743 216 443 216 141 c 2
EndSplineSet
EndChar

StartChar: degree
Encoding: 332 176 159
Width: 728
VWidth: 0
Flags: W
HStem: 438 77<246.15 470.519> 901 69<247.601 479.111>
VStem: 101 77<581.049 829.402> 559 68<610.561 826.042>
LayerCount: 2
UndoRedoHistory
Layer: 1
Undoes
EndUndoes
Redoes
EndRedoes
EndUndoRedoHistory
Fore
SplineSet
101 731 m 0
 101 867 192 970 333 970 c 0
 570 970 627 821 627 733 c 0
 627 649 579 438 334 438 c 0
 143 438 101 617 101 731 c 0
343 901 m 0
 213 901 178 773 178 665 c 0
 178 607 252 515 342 515 c 0
 524 515 559 668 559 729 c 0
 559 792 517 901 343 901 c 0
EndSplineSet
EndChar

StartChar: dieresis
Encoding: 333 168 160
Width: 631
VWidth: 0
Flags: W
HStem: 954 141<110.829 239.519 390.922 520.34>
VStem: 105 141<963.054 1089.7> 385 141<960.578 1091>
LayerCount: 2
UndoRedoHistory
Layer: 1
Undoes
EndUndoes
Redoes
EndRedoes
EndUndoRedoHistory
Fore
SplineSet
164 954 m 0
 125 954 105 984 105 1021 c 0
 105 1061 134 1095 175 1095 c 0
 213 1095 246 1065 246 1026 c 0
 246 984 203 954 164 954 c 0
385 1023 m 0
 385 1062 419 1098 458 1098 c 0
 495 1098 526 1061 526 1025 c 0
 526 983 489 954 449 954 c 0
 413 954 385 988 385 1023 c 0
EndSplineSet
EndChar

StartChar: divide
Encoding: 334 247 161
Width: 684
VWidth: 0
Flags: W
HStem: 369 141<275.297 401.906> 590 111<59.5993 627.411> 789 141<274.002 404.422>
VStem: 270 141<374.829 503.519 794.922 924.34>
LayerCount: 2
UndoRedoHistory
Layer: 1
Undoes
EndUndoes
Redoes
EndRedoes
EndUndoRedoHistory
Fore
SplineSet
411 428 m 0
 411 389 380 369 344 369 c 0
 304 369 270 398 270 439 c 0
 270 477 300 510 339 510 c 0
 381 510 411 467 411 428 c 0
342 789 m 0
 303 789 267 823 267 862 c 0
 267 899 304 930 340 930 c 0
 382 930 411 893 411 853 c 0
 411 817 377 789 342 789 c 0
57 655 m 0
 57 683 75 701 103 701 c 2
 404 701 l 2
 446 701 488 708 530 708 c 0
 572 708 629 701 629 647 c 0
 629 613 601 600 571 600 c 0
 427 600 282 590 139 590 c 0
 94 590 57 604 57 655 c 0
EndSplineSet
EndChar

StartChar: dollar
Encoding: 36 36 162
Width: 519
VWidth: 0
Flags: W
HStem: -45 93<82.7991 247> 1456 118<279.286 483>
VStem: -1 99<1068.27 1376.04> 200 2<1536.03 1594.15> 202 70<1185.1 1433 1559 1632.24> 225 88<506.024 647 757.024 830.25 937 1070.75> 254 95<-255.989 -43 113 325.651> 419 94<175.43 531.167>
LayerCount: 2
UndoRedoHistory
Layer: 1
Undoes
EndUndoes
Redoes
EndRedoes
EndUndoRedoHistory
Fore
SplineSet
276 1464 m 1xe9
 305 822 l 1
 409 685 513 540 513 342 c 0
 513 218 465 59 349 -10 c 1
 349 -155 l 1
 351 -208 337 -258 290 -258 c 0
 256 -258 254 -222 254 -195 c 2
 254 -179 l 1xe3
 254 -179 253 -128 250 -43 c 1
 238 -45 226 -45 213 -45 c 0
 173 -45 54 -31 54 24 c 0
 54 52 68 79 100 79 c 0
 144 79 181 48 213 48 c 0
 225 48 236 49 247 52 c 1
 241 236 233 506 225 774 c 1xe5
 115 924 -1 1073 -1 1245 c 0
 -1 1350 66 1473 202 1535 c 1xe9
 201 1557 201 1577 200 1595 c 0xf1
 193 1701 272 1669 272 1586 c 2
 272 1559 l 1
 310 1568 351 1574 397 1574 c 0
 445 1574 499 1545 518 1500 c 1
 483 1456 l 1
 422 1456 346 1484 276 1464 c 1xe9
220 937 m 1
 214 1122 209 1298 205 1433 c 1
 129 1385 98 1308 98 1258 c 0
 98 1137 152 1035 220 937 c 1
337 113 m 1
 394 183 419 291 419 345 c 0
 419 453 374 551 313 647 c 1xe5
 337 113 l 1
EndSplineSet
EndChar

StartChar: dotaccent
Encoding: 335 729 163
Width: 355
VWidth: 0
Flags: W
HStem: 102 152<111.707 244.769>
VStem: 103 150<109.168 245.635>
LayerCount: 2
UndoRedoHistory
Layer: 1
Undoes
EndUndoes
Redoes
EndRedoes
EndUndoRedoHistory
Fore
SplineSet
103 175 m 0
 103 216 139 254 180 254 c 0
 219 254 253 215 253 177 c 0
 253 130 217 102 172 102 c 0
 134 102 103 138 103 175 c 0
EndSplineSet
EndChar

StartChar: uni0307
Encoding: 336 775 164
Width: 384
VWidth: 0
Flags: W
HStem: 1390 152<128.707 261.769>
VStem: 120 150<1397.17 1533.64>
LayerCount: 2
UndoRedoHistory
Layer: 1
Undoes
EndUndoes
Redoes
EndRedoes
EndUndoRedoHistory
Fore
SplineSet
120 1463 m 0
 120 1504 156 1542 197 1542 c 0
 236 1542 270 1503 270 1465 c 0
 270 1418 234 1390 189 1390 c 0
 151 1390 120 1426 120 1463 c 0
EndSplineSet
EndChar

StartChar: dotlessi
Encoding: 337 305 165
Width: 499
VWidth: 0
Flags: W
HStem: 16 114<126 187.624 306 461.724> 1254 102<25.7058 178.779>
VStem: 174 112<131.752 1242>
LayerCount: 2
UndoRedoHistory
Layer: 1
Undoes
EndUndoes
Redoes
EndRedoes
EndUndoRedoHistory
Fore
SplineSet
298 184 m 1
 296 185 l 1
 296 166 295 147 306 131 c 1
 322 128 l 1
 337 128 358 130 381 130 c 0
 422 130 465 122 465 79 c 0
 465 43 432 16 397 16 c 0
 374 16 352 23 329 23 c 0
 313 23 288 0 251 0 c 0
 229 0 205 4 188 20 c 1
 180 19 171 18 163 18 c 0
 132 18 102 26 87 55 c 1
 87 78 98 100 119 110 c 1
 126 118 l 1
 184 118 l 1
 185 127 188 136 188 145 c 0
 188 290 174 435 174 580 c 0
 174 732 185 884 185 1036 c 0
 185 1109 182 1182 175 1254 c 1
 136 1256 l 2
 121 1257 105 1254 89 1254 c 0
 55 1254 25 1262 25 1309 c 0
 25 1353 87 1356 126 1356 c 0
 132 1356 138 1356 143 1356 c 0
 199 1356 406 1355 406 1273 c 0
 406 1263 398 1244 394 1235 c 1
 324 1230 l 1
 289 1242 l 1
 295 1186 297 1129 297 1072 c 0
 297 942 286 811 286 681 c 0
 286 536 301 391 301 246 c 1
 298 184 l 1
EndSplineSet
EndChar

StartChar: uni0237
Encoding: 338 567 166
Width: 520
VWidth: 0
Flags: W
HStem: 1205 154<333.64 406.22> 1242 117<69.2371 217>
VStem: 222 109<791.681 1225> 240 112<-18.6931 628.319>
LayerCount: 2
UndoRedoHistory
Layer: 1
Undoes
EndUndoes
Redoes
EndRedoes
EndUndoRedoHistory
Fore
SplineSet
352 158 m 1x90
 276 33 364 -254 106 -254 c 2
 82 -254 l 1
 21 -193 l 1
 19 -174 l 1
 19 -133 146 -64 181 -46 c 1
 227 8 240 117 240 187 c 0x90
 240 536 222 884 222 1233 c 1
 217 1242 l 1
 175 1247 60 1252 60 1312 c 0
 60 1342 103 1359 127 1359 c 0x60
 187 1359 492 1327 492 1253 c 0
 492 1222 464 1205 436 1205 c 0
 401 1205 367 1219 332 1225 c 1
 331 1208 l 1xa0
 331 933 352 657 352 382 c 2
 352 158 l 1x90
EndSplineSet
EndChar

StartChar: dcroat
Encoding: 339 273 167
Width: 610
VWidth: 0
Flags: W
HStem: -12 104<216 317.714> 651 119<-35.3248 258.891> 665 121<15.1719 296>
VStem: 73 143<97.25 621.219> 79 106<607.109 1254.72> 438 104<274.022 1031.9>
LayerCount: 2
UndoRedoHistory
Layer: 1
Undoes
EndUndoes
Redoes
EndRedoes
EndUndoRedoHistory
Fore
SplineSet
296 665 m 1xa4
 193 665 180 668 88 658 c 1
 64 654 39 651 14 651 c 0
 -19 651 -38 680 -38 710 c 0
 -38 762 40 770 82 770 c 1xc4
 172 778 174 786 263 786 c 0
 305 786 328 742 330 706 c 1
 296 665 l 1xa4
EndSplineSet
Refer: 157 100 N 1 0 0 1 0 0 2
EndChar

StartChar: e
Encoding: 101 101 168
Width: 455
VWidth: 0
Flags: W
HStem: -27 104<186.383 415.736> 718 107<188.098 361.724>
VStem: 72 122<77.0451 718 822.47 1233.18> 75 331<-16.2949 76.9902 1236.42 1306.95>
LayerCount: 2
UndoRedoHistory
Layer: 1
Undoes
EndUndoes
Redoes
EndRedoes
EndUndoRedoHistory
Fore
SplineSet
406 1261 m 0xd0
 406 1229 373 1207 346 1197 c 1
 296 1214 244 1230 191 1236 c 1
 193 1207 194 1177 194 1148 c 0
 194 1050 185 952 185 854 c 0
 185 844 189 832 191 822 c 1
 208 822 236 825 264 825 c 0
 313 825 363 816 363 769 c 0
 363 742 339 714 298 714 c 4
 278 714 256 716 240 718 c 1
 188 718 l 1
 192 666 194 615 194 563 c 0
 194 440 185 315 185 192 c 0
 185 139 188 77 189 77 c 0
 223 77 282 82 340 82 c 0
 380 82 418 73 418 32 c 0
 418 -13 367 -27 330 -27 c 2
 157 -27 l 2
 121 -27 87 1 85 36 c 1
 85 90 l 2
 85 117 82 145 82 174 c 0
 82 261 72 349 72 436 c 0xe0
 72 635 86 835 86 1034 c 0
 86 1092 75 1149 75 1207 c 0
 75 1266 84 1352 161 1352 c 0
 203 1352 406 1323 406 1261 c 0xd0
EndSplineSet
EndChar

StartChar: eight
Encoding: 56 56 174
Width: 531
VWidth: 0
Flags: W
HStem: -82 88<234.762 350.666> 1515 92<191 259.365>
VStem: 63 100<1207.12 1514.93> 108 95<82.5952 520.987> 285 91<1010.01 1513.4> 372 92<22.6514 496.989>
LayerCount: 2
UndoRedoHistory
Layer: 1
Undoes
EndUndoes
Redoes
EndRedoes
EndUndoRedoHistory
Fore
SplineSet
204 863 m 0xd4
 204 1040 63 1225 63 1421 c 0
 63 1510 102 1607 205 1607 c 2
 248 1607 l 1
 373 1530 376 1466 376 1313 c 0xe8
 376 1160 338 1010 304 862 c 1
 395 651 466 349 466 119 c 0
 466 103 469 87 465 72 c 1
 464 61 l 1
 464 60 l 1
 427 -24 366 -82 270 -82 c 0
 140 -82 108 98 108 198 c 0
 108 421 204 672 204 863 c 0xd4
203 190 m 2xd4
 203 188 l 2
 203 151 213 115 229 81 c 1
 229 71 l 1
 231 50 245 6 272 6 c 0
 350 6 372 74 372 140 c 0
 372 348 318 552 261 750 c 1
 216 604 203 345 203 190 c 2xd4
212 1515 m 1
 191 1515 l 1
 191 1516 l 1
 166 1488 163 1449 163 1413 c 0
 163 1317 209 1101 240 1007 c 1
 268 1106 285 1209 285 1312 c 0xe8
 285 1342 269 1516 234 1516 c 1
 212 1515 l 1
EndSplineSet
EndChar

StartChar: ellipsis
Encoding: 341 8230 175
Width: 936
VWidth: 0
Flags: W
HStem: -32 152<111.707 244.769 406.707 539.769 701.707 834.769>
VStem: 103 150<-24.8322 111.635> 398 150<-24.8322 111.635> 693 150<-24.8322 111.635>
CounterMasks: 1 70
LayerCount: 2
UndoRedoHistory
Layer: 1
Undoes
EndUndoes
Redoes
EndRedoes
EndUndoRedoHistory
Fore
SplineSet
693 41 m 0
 693 82 729 120 770 120 c 0
 809 120 843 81 843 43 c 0
 843 -4 807 -32 762 -32 c 0
 724 -32 693 4 693 41 c 0
398 41 m 0
 398 82 434 120 475 120 c 0
 514 120 548 81 548 43 c 0
 548 -4 512 -32 467 -32 c 0
 429 -32 398 4 398 41 c 0
103 41 m 0
 103 82 139 120 180 120 c 0
 219 120 253 81 253 43 c 0
 253 -4 217 -32 172 -32 c 0
 134 -32 103 4 103 41 c 0
EndSplineSet
EndChar

StartChar: emdash
Encoding: 343 8212 177
Width: 1162
VWidth: 0
Flags: W
HStem: 673 109<126.5 1034.18>
LayerCount: 2
UndoRedoHistory
Layer: 1
Undoes
EndUndoes
Redoes
EndRedoes
EndUndoRedoHistory
Fore
SplineSet
647 779 m 2
 669 779 731 782 799 782 c 0
 910 782 1038 773 1038 725 c 0
 1038 683 953 673 866 673 c 0
 793 673 720 680 693 680 c 2
 325 677 l 2
 307 677 278 674 247 674 c 0
 188 674 124 683 124 733 c 0
 124 761 142 779 170 779 c 2
 647 779 l 2
EndSplineSet
EndChar

StartChar: endash
Encoding: 344 8211 178
Width: 924
VWidth: 0
Flags: W
HStem: 636 105<116.288 802.902>
LayerCount: 2
UndoRedoHistory
Layer: 1
Undoes
EndUndoes
Redoes
EndRedoes
EndUndoRedoHistory
Fore
SplineSet
332 737 m 2
 361 737 441 741 527 741 c 0
 660 741 808 731 808 683 c 0
 808 654 788 636 760 636 c 0
 572 636 385 646 197 646 c 0
 166 646 115 649 115 691 c 0
 115 719 133 737 161 737 c 2
 332 737 l 2
EndSplineSet
EndChar

StartChar: eng
Encoding: 345 331 179
Width: 827
VWidth: 0
Flags: W
HStem: 2 21G<105.5 152> 1334 20G<163.5 236> 1342 20G<124 151>
VStem: 64 112<66.7961 1145> 644 106<788.978 1342.12>
LayerCount: 2
UndoRedoHistory
Layer: 1
Undoes
EndUndoes
Redoes
EndRedoes
EndUndoRedoHistory
Fore
SplineSet
603 189 m 1xd8
 636 534 644 881 644 1228 c 0
 644 1244 641 1264 641 1283 c 0
 641 1315 649 1344 692 1344 c 0
 734 1344 750 1302 750 1264 c 2
 750 1109 l 1
 748 636 771 -512 455 -512 c 0
 415 -512 381 -493 381 -449 c 0
 381 -350 538 -454 563 -237 c 0
 572 -159 571 -80 579 -1 c 1
 520 136 230 1021 176 1145 c 1
 176 114 l 1
 183 99 197 83 197 66 c 0
 197 32 169 2 135 2 c 0
 76 2 68 84 68 127 c 0
 68 361 64 595 64 829 c 0
 64 956 76 1084 76 1211 c 0
 76 1274 97 1322 151 1362 c 1xb8
 151 1349 l 1
 156 1352 161 1354 166 1354 c 0
 306 1354 548 324 603 189 c 1xd8
EndSplineSet
EndChar

StartChar: equal
Encoding: 61 61 181
Width: 684
VWidth: 0
Flags: W
HStem: 579 101<58.2878 617.027> 764 108<60.605 626.718>
VStem: 57 572
LayerCount: 2
UndoRedoHistory
Layer: 1
Undoes
EndUndoes
Redoes
EndRedoes
EndUndoRedoHistory
Fore
SplineSet
470 872 m 2
 539 872 629 866 629 818 c 0
 629 774 515 764 413 764 c 0
 334 764 261 770 258 770 c 0
 240 770 210 767 180 767 c 0
 121 767 57 776 57 826 c 0
 57 854 75 872 103 872 c 2
 470 872 l 2
410 680 m 2
 508 680 619 674 619 626 c 0
 619 597 599 579 571 579 c 0
 427 579 283 589 139 589 c 0
 108 589 57 592 57 634 c 0
 57 662 75 680 103 680 c 2
 410 680 l 2
EndSplineSet
EndChar

StartChar: eth
Encoding: 347 240 182
Width: 473
VWidth: 0
Flags: W
HStem: -15 87<210.571 310.452> 1335 20G<457.5 482.5> 1473 109<124.52 225.273>
VStem: 85 101<83.7946 775.188> 345 95<248.077 872.441>
LayerCount: 2
UndoRedoHistory
Layer: 1
Undoes
EndUndoes
Redoes
EndRedoes
EndUndoRedoHistory
Fore
SplineSet
254 72 m 0
 329 72 320 160 324 211 c 0
 336 370 345 518 345 681 c 0
 345 761 338 853 286 885 c 1
 187 859 187 472 187 390 c 0
 187 378 186 354 186 325 c 0
 186 228 193 72 254 72 c 0
493 1326 m 0
 493 1289 414 1272 388 1267 c 1
 432 1062 440 850 440 641 c 0
 440 522 431 402 431 283 c 0
 431 159 424 -15 259 -15 c 0
 98 -15 88 173 88 305 c 1
 88 305 85 340 85 400 c 0
 85 581 109 956 299 956 c 0
 307 956 316 955 325 954 c 1
 312 1053 298 1153 277 1251 c 1
 221 1245 164 1242 108 1242 c 0
 95 1242 91 1265 91 1272 c 0
 91 1319 225 1336 257 1340 c 1
 248 1374 229 1450 201 1473 c 1
 168 1478 119 1499 119 1539 c 0
 119 1565 149 1582 172 1582 c 0
 285 1582 340 1441 366 1351 c 1
 403 1353 439 1355 476 1355 c 0
 489 1355 493 1333 493 1326 c 0
EndSplineSet
EndChar

StartChar: exclam
Encoding: 33 33 183
Width: 286
VWidth: 0
Flags: W
HStem: -46 171<54.8292 196.666> 1552 20G<154 189>
VStem: 41 169<-36.7426 112.311> 88 137<1047.78 1560.65> 90 94<310.522 971.374>
LayerCount: 2
UndoRedoHistory
Layer: 1
Undoes
EndUndoes
Redoes
EndRedoes
EndUndoRedoHistory
Fore
SplineSet
210 26 m 0xe0
 210 -27 165 -46 109 -46 c 0
 84 -46 41 -20 41 33 c 1
 41 78 78 125 126 125 c 0
 181 125 210 77 210 26 c 0xe0
184 446 m 0xc8
 184 348 166 306 146 306 c 0
 120 306 90 375 90 482 c 0xc8
 90 596 98 713 98 821 c 0
 98 1045 88 1269 88 1493 c 0
 88 1537 133 1572 175 1572 c 0
 203 1572 225 1550 225 1522 c 0xd0
 225 1195 182 870 182 543 c 0
 182 511 184 478 184 446 c 0xc8
EndSplineSet
EndChar

StartChar: f
Encoding: 102 102 185
Width: 483
VWidth: 0
Flags: W
HStem: 640 114<201.165 335.551> 1243 121<220 349.449>
VStem: 99 102<764.755 1242.62> 107 113<765.031 1243>
LayerCount: 2
UndoRedoHistory
Layer: 1
Undoes
EndUndoes
Redoes
EndRedoes
EndUndoRedoHistory
Fore
SplineSet
201 753 m 1xe0
 211 753 224 754 239 754 c 0
 283 754 338 747 338 700 c 0
 338 662 300 640 266 640 c 0
 243 640 207 645 185 652 c 1
 185 72 l 2
 185 6 163 -18 132 -18 c 0
 110 -18 84 -6 59 13 c 1
 88 333 82 655 99 975 c 1
 99 1025 l 1xe0
 104 1118 107 1210 107 1303 c 0
 107 1344 150 1364 186 1364 c 0
 240 1364 455 1358 455 1281 c 0
 455 1229 390 1223 351 1223 c 1
 318 1239 280 1243 244 1243 c 2
 220 1243 l 1
 220 1219 l 1xd0
 219 1082 201 945 201 808 c 2
 201 753 l 1xe0
EndSplineSet
EndChar

StartChar: five
Encoding: 53 53 186
Width: 429
VWidth: 0
Flags: W
HStem: -37 104<114.598 228.294> 1488 88<99 237>
VStem: 27 72<1077.88 1486.75> 335 98<122.676 746.685>
LayerCount: 2
UndoRedoHistory
Layer: 1
Undoes
EndUndoes
Redoes
EndRedoes
EndUndoRedoHistory
Fore
SplineSet
27 1008 m 0
 27 1043 38 1077 38 1112 c 0
 38 1256 10 1398 -12 1540 c 1
 23 1576 l 1
 190 1576 l 2
 227 1576 275 1572 275 1524 c 2
 275 1513 l 1
 237 1482 l 1
 186 1482 l 1
 186 1488 l 1
 99 1488 l 1
 105 1325 123 1164 139 1002 c 1
 192 996 260 996 305 965 c 0
 407 895 433 553 433 434 c 0
 433 234 433 95 260 -36 c 1
 250 -36 238 -37 225 -37 c 0
 176 -37 113 -31 113 21 c 0
 113 54 148 67 176 67 c 0
 195 67 214 61 229 50 c 1
 303 75 335 259 335 328 c 0
 335 585 331 891 102 891 c 0
 34 891 27 955 27 1008 c 0
EndSplineSet
EndChar

StartChar: foundryicon
Encoding: 349 -1 187
Width: 1251
VWidth: 0
Flags: W
LayerCount: 2
UndoRedoHistory
Layer: 1
Undoes
EndUndoes
Redoes
EndRedoes
EndUndoRedoHistory
Fore
SplineSet
604 375 m 2
 592 375 l 1
 541 332 449 260 397 221 c 1
 373 201 293 115 266 115 c 0
 248 115 231 119 231 141 c 0
 231 160 240 168 246 186 c 1
 270 297 324 418 354 516 c 1
 354 516 356 518 356 520 c 1
 354 522 l 1
 295 604 213 668 137 735 c 0
 104 764 18 791 18 840 c 0
 18 860 33 870 57 870 c 0
 68 870 197 848 279 848 c 1
 469 840 l 1
 563 1075 l 1
 594 1122 608 1235 666 1235 c 0
 684 1235 715 1206 715 1188 c 0
 715 1110 750 971 768 895 c 1
 778 848 l 1
 836 844 909 842 981 842 c 0
 1051 842 1110 848 1171 848 c 0
 1198 848 1225 838 1225 807 c 0
 1225 793 1147 750 1128 735 c 1
 1050 664 978 570 881 522 c 1
 881 510 l 2
 881 457 909 389 922 344 c 1
 930 342 975 135 975 106 c 0
 975 86 963 72 942 72 c 0
 889 72 723 375 604 375 c 2
EndSplineSet
EndChar

StartChar: four
Encoding: 52 52 188
Width: 554
VWidth: 0
Flags: W
HStem: -38 21G<329 371> 480 96<191.003 267.828> 507 94<374.164 488.656>
VStem: 89 102<584.719 1104.6> 120 94<712.475 1542.12> 269 100<596 1022.94> 285 89<117.609 138.828 143.139 490.459 733.062 1170> 287 113<-33.0306 335.861 340.406 486.376>
LayerCount: 2
UndoRedoHistory
Layer: 1
Undoes
EndUndoes
Redoes
EndRedoes
EndUndoRedoHistory
Fore
SplineSet
288 1160 m 0xd4
 288 1191 322 1206 341 1206 c 1
 373 1170 l 1
 373 1137 373 1105 373 1072 c 0
 373 913 373 753 369 596 c 1xd4
 384 597 406 601 428 601 c 0
 459 601 489 593 489 557 c 0
 489 513 443 507 407 507 c 0
 392 507 374 505 374 489 c 0xa2
 374 436 380 190 395 155 c 1
 393 143 391 130 391 117 c 0
 391 103 392 89 400 76 c 1
 400 39 l 2
 400 9 390 -38 352 -38 c 0
 306 -38 287 23 287 59 c 2
 287 66 l 1xa1
 294 90 298 115 298 140 c 0
 298 207 283 272 283 339 c 0
 283 369 285 398 285 428 c 0
 285 449 284 470 281 491 c 1
 244 489 206 480 169 480 c 1
 169 479 l 1
 138 479 113 493 89 512 c 1
 89 539 91 565 98 591 c 1
 91 628 89 666 89 706 c 0xd2
 89 844 120 991 120 1124 c 2
 120 1503 l 2
 120 1525 122 1543 159 1543 c 0
 188 1543 220 1524 220 1492 c 0
 220 1440 211 1386 211 1333 c 0
 211 1321 210 1308 210 1296 c 0
 210 1284 211 1271 214 1259 c 1
 214 1252 l 1xc8
 218 1216 220 1179 220 1143 c 0
 220 969 191 796 191 622 c 0
 191 607 192 591 194 576 c 1
 219 577 244 581 269 587 c 1
 270 780 288 983 288 1160 c 0xd4
EndSplineSet
EndChar

StartChar: fraction
Encoding: 351 8260 190
Width: 512
VWidth: 0
Flags: W
HStem: 1533 20G<400.5 437>
VStem: 37 441
LayerCount: 2
UndoRedoHistory
Layer: 1
Undoes
EndUndoes
Redoes
EndRedoes
EndUndoRedoHistory
Fore
SplineSet
37 30 m 0
 37 340 297 1099 366 1453 c 0
 372 1483 378 1553 423 1553 c 0
 451 1553 478 1533 478 1503 c 0
 478 1437 451 1374 436 1311 c 0
 357 972 279 632 205 292 c 0
 192 233 158 -31 83 -31 c 2
 75 -31 l 1
 54 -18 37 5 37 30 c 0
EndSplineSet
EndChar

StartChar: g
Encoding: 103 103 191
Width: 638
VWidth: 0
Flags: W
HStem: -16 107<269.079 419.152> 518 105<304.531 460.555> 1252 102<267.543 434.395>
VStem: 46 122<227.601 1079.57> 462 123<413.388 518.998> 462 101<127.734 517.74>
LayerCount: 2
UndoRedoHistory
Layer: 1
Undoes
EndUndoes
Redoes
EndRedoes
EndUndoRedoHistory
Fore
SplineSet
338 -16 m 0xf4
 44 -16 46 356 46 622 c 0
 46 897 32 1354 348 1354 c 0
 383 1354 435 1349 435 1302 c 0
 435 1268 401 1247 370 1247 c 0
 355 1247 341 1252 327 1252 c 0
 178 1252 168 732 168 629 c 0
 168 434 175 91 363 91 c 0
 457 91 462 316 462 417 c 0
 462 430 462 442 462 450 c 2
 462 511 l 1
 447 519 431 519 414 519 c 0
 403 519 389 518 374 518 c 0
 339 518 303 524 303 565 c 0
 303 606 337 624 373 624 c 1
 373 623 l 1
 401 623 l 2
 465 623 585 619 585 560 c 0xf8
 585 509 563 462 563 411 c 0
 563 341 573 266 573 194 c 0
 573 50 452 -16 338 -16 c 0xf4
EndSplineSet
EndChar

StartChar: germandbls
Encoding: 223 223 195
Width: 576
VWidth: 0
Flags: W
HStem: 1473 112<206.257 325.239>
VStem: 73 100<840.484 1445.06> 78 126<-44.4471 494.942> 361 100<1060.57 1443.53> 421 99<251.075 670.414>
LayerCount: 2
UndoRedoHistory
Layer: 1
Undoes
EndUndoes
Redoes
EndRedoes
EndUndoRedoHistory
Fore
SplineSet
338 49 m 1x88
 334 48 327 45 323 45 c 0
 304 45 274 57 274 81 c 0
 274 134 421 240 421 409 c 0x88
 421 789 243 776 243 854 c 0
 243 898 361 1106 361 1274 c 0
 361 1321 340 1473 271 1473 c 0
 193 1473 173 1350 173 1294 c 0xd0
 173 878 204 463 204 46 c 0
 204 -2 195 -47 138 -47 c 0
 103 -47 78 -37 78 4 c 0xa0
 78 182 88 360 88 538 c 0
 88 775 73 1012 73 1249 c 0
 73 1375 105 1585 271 1585 c 0
 428 1585 461 1367 461 1249 c 0xd0
 461 1109 407 977 335 859 c 1
 488 744 520 635 520 444 c 0
 520 294 457 143 338 49 c 1x88
EndSplineSet
EndChar

StartChar: grave
Encoding: 96 96 196
Width: 506
VWidth: 0
Flags: W
HStem: 1543 209
VStem: 48 393
LayerCount: 2
UndoRedoHistory
Layer: 1
Undoes
EndUndoes
Redoes
EndRedoes
EndUndoRedoHistory
Fore
SplineSet
116 1752 m 0
 131 1752 441 1599 441 1557 c 0
 441 1549 435 1543 426 1543 c 0
 388 1543 48 1645 48 1672 c 0
 48 1699 80 1752 116 1752 c 0
EndSplineSet
EndChar

StartChar: greater
Encoding: 62 62 197
Width: 523
VWidth: 0
Flags: W
VStem: 369 118<698 859.118>
LayerCount: 2
UndoRedoHistory
Layer: 1
Undoes
EndUndoes
Redoes
EndRedoes
EndUndoRedoHistory
Fore
SplineSet
369 702 m 0
 369 908 114 1202 112 1411 c 1
 167 1446 l 1
 167 1444 l 1
 254 1404 484 788 487 698 c 1
 126 -19 l 1
 113 -19 101 -23 88 -23 c 0
 67 -23 45 -6 45 24 c 0
 45 116 369 654 369 702 c 0
EndSplineSet
EndChar

StartChar: guillemotleft
Encoding: 354 171 198
Width: 681
VWidth: 0
Flags: W
VStem: 250 117<612.14 835.988> 474 151<1255.47 1396.27>
LayerCount: 2
UndoRedoHistory
Layer: 1
Undoes
EndUndoes
Redoes
EndRedoes
EndUndoRedoHistory
Fore
SplineSet
704 49 m 5
 702 19 687 -22 650 -22 c 4
 638 -22 622 -22 610 -18 c 4
 578 -8 290 612 250 698 c 5
 253 798 436 1125 474 1255 c 4
 485 1293 512 1447 573 1447 c 4
 575 1447 577 1446 580 1446 c 5
 625 1411 l 5
 598 1193 367 869 367 702 c 4
 367 679 641 135 678 69 c 5
 704 49 l 5
390 1440 m 1
 283 1193 210 929 96 687 c 1
 129 526 453 65 453 -13 c 0
 453 -45 415 -59 389 -59 c 0
 344 -59 -15 607 -15 697 c 0
 -15 749 208 1261 246 1361 c 1
 250 1398 282 1456 307 1483 c 1
 307 1485 l 1
 313 1486 320 1489 326 1489 c 0
 355 1489 388 1473 390 1440 c 1
EndSplineSet
EndChar

StartChar: guillemotright
Encoding: 355 187 199
Width: 682
VWidth: 0
Flags: W
VStem: 56 151<1241.02 1399> 313 118<698 836.974>
LayerCount: 2
UndoRedoHistory
Layer: 1
Undoes
EndUndoes
Redoes
EndRedoes
EndUndoRedoHistory
Fore
SplineSet
74 -19 m 2
 73 -19 71 -19 70 -19 c 0
 57 -19 45 -23 32 -23 c 0
 -5 -23 -21 19 -22 49 c 1
 3 69 l 1
 39 136 313 680 313 702 c 0
 313 908 58 1202 56 1411 c 1
 101 1446 l 1
 111 1444 l 1
 185 1410 187 1324 207 1255 c 0
 245 1123 428 803 431 698 c 1
 74 -19 l 2
357 1490 m 4
 361 1490 368 1487 372 1486 c 5
 375 1486 l 5
 375 1484 l 5
 376 1485 l 5
 404 1457 433 1402 438 1363 c 5
 476 1264 698 751 698 700 c 4
 698 610 339 -56 295 -56 c 4
 269 -56 230 -43 230 -10 c 4
 230 68 554 528 588 689 c 5
 473 928 441 1211 292 1433 c 5
 295 1467 323 1490 357 1490 c 4
EndSplineSet
EndChar

StartChar: guilsinglleft
Encoding: 356 8249 200
Width: 524
VWidth: 0
Flags: W
VStem: 37 117<609.156 835.988> 261 151<1255.47 1396.27>
LayerCount: 2
UndoRedoHistory
Layer: 1
Undoes
EndUndoes
Redoes
EndRedoes
EndUndoRedoHistory
Fore
SplineSet
491 49 m 1
 489 19 474 -22 437 -22 c 0
 422 -22 408 -19 393 -18 c 1
 252 197 149 465 37 698 c 1
 40 798 223 1125 261 1255 c 0
 272 1293 299 1447 360 1447 c 0
 362 1447 364 1446 367 1446 c 1
 412 1411 l 1
 385 1193 154 869 154 702 c 0
 154 679 428 135 465 69 c 1
 491 49 l 1
EndSplineSet
EndChar

StartChar: guilsinglright
Encoding: 357 8250 201
Width: 523
VWidth: 0
Flags: W
VStem: 112 151<1241.02 1399> 369 118<698 836.974>
LayerCount: 2
UndoRedoHistory
Layer: 1
Undoes
EndUndoes
Redoes
EndRedoes
EndUndoRedoHistory
Fore
SplineSet
130 -19 m 2
 129 -19 127 -19 126 -19 c 0
 113 -19 101 -23 88 -23 c 0
 51 -23 35 19 34 49 c 1
 59 69 l 1
 95 136 369 680 369 702 c 0
 369 908 114 1202 112 1411 c 1
 157 1446 l 1
 167 1444 l 1
 241 1410 243 1324 263 1255 c 0
 301 1123 484 803 487 698 c 1
 130 -19 l 2
EndSplineSet
EndChar

StartChar: h
Encoding: 104 104 202
Width: 571
VWidth: 0
Flags: W
HStem: 632 80<191.198 357.391> 1335 20G<110 155> 1354 20G<391 416.5>
VStem: 71 118<17.887 651 713.636 1351.52> 347 119<913.22 1372.03>
LayerCount: 2
UndoRedoHistory
Layer: 1
Undoes
EndUndoes
Redoes
EndRedoes
EndUndoRedoHistory
Fore
SplineSet
367 548 m 2xb8
 367 556 l 1
 368 576 370 595 370 615 c 0
 370 621 358 628 358 634 c 2
 358 636 l 1
 345 633 333 632 321 632 c 0
 276 632 236 649 189 651 c 1
 188 576 189 500 189 425 c 2
 189 416 l 2
 189 304 201 191 201 79 c 0
 201 44 183 5 143 5 c 0
 83 5 71 134 71 283 c 0
 71 391 77 509 77 595 c 0
 77 643 80 681 74 702 c 1
 74 712 l 1
 77 752 82 792 82 832 c 0
 82 986 68 1140 68 1294 c 0
 68 1325 94 1355 126 1355 c 0xd8
 184 1355 191 1276 191 1233 c 0
 191 1063 183 892 183 722 c 1
 220 712 258 712 295 712 c 2
 369 712 l 1
 373 719 374 729 374 738 c 0
 374 932 347 1125 347 1320 c 0
 347 1351 376 1374 406 1374 c 0
 427 1374 446 1362 466 1356 c 1
 466 912 503 208 505 62 c 0
 505 20 468 0 434 0 c 0
 344 0 367 400 367 548 c 2xb8
EndSplineSet
EndChar

StartChar: hbar
Encoding: 358 295 203
Width: 571
VWidth: 0
Flags: W
HStem: 632 80<191.198 357.391> 1062 75<190 353> 1335 20G<110 155> 1354 20G<391 416.5>
VStem: 71 118<84.2507 416 425 649.885 713.875 1064.38 1137 1351.52> 347 119<1139.86 1372.03> 370 100<728.784 1060.89> 382 123<4.27088 521.633>
LayerCount: 2
UndoRedoHistory
Layer: 1
Undoes
EndUndoes
Redoes
EndRedoes
EndUndoRedoHistory
Fore
SplineSet
374 738 m 0xc8
 374 847 365 957 358 1066 c 1
 332 1065 302 1065 271 1065 c 0
 244 1065 216 1064 189 1062 c 1
 186 949 183 835 183 722 c 1
 220 712 258 712 295 712 c 2
 369 712 l 1
 373 719 374 729 374 738 c 0xc8
485 1084 m 0
 485 1069 479 1063 470 1062 c 1xda
 479 650 503 178 505 62 c 0
 505 20 468 0 434 0 c 0
 407 0 383 13 382 38 c 0xd9
 378 165 371 366 371 548 c 1
 367 556 l 1
 368 576 370 595 370 615 c 0
 370 621 369 628 369 634 c 1
 358 636 l 1
 345 633 333 632 321 632 c 0
 276 632 236 649 189 651 c 1
 188 576 183 500 183 425 c 1
 189 416 l 1
 189 304 201 191 201 79 c 0
 201 44 183 5 143 5 c 0
 83 5 71 134 71 283 c 0
 71 391 77 509 77 595 c 0
 77 643 75 681 69 702 c 1
 74 712 l 1
 77 752 82 792 82 832 c 0
 82 909 78 986 75 1064 c 1
 55 1068 43 1076 43 1091 c 0
 43 1109 55 1121 72 1127 c 1
 69 1182 68 1238 68 1294 c 0
 68 1325 94 1355 126 1355 c 0xea
 184 1355 191 1276 191 1233 c 0
 191 1201 191 1169 190 1137 c 1
 215 1138 245 1139 277 1139 c 0
 302 1139 328 1138 353 1137 c 1
 349 1198 347 1259 347 1320 c 0
 347 1351 376 1374 406 1374 c 0
 427 1374 446 1362 466 1356 c 1xdc
 466 1280 467 1197 469 1110 c 1
 479 1103 485 1094 485 1084 c 0
EndSplineSet
EndChar

StartChar: hungarumlaut
Encoding: 359 733 204
Width: 684
VWidth: 0
Flags: W
HStem: 0 440<414 428>
LayerCount: 2
UndoRedoHistory
Layer: 1
Undoes
EndUndoes
Redoes
EndRedoes
EndUndoRedoHistory
Fore
SplineSet
150 0 m 5
 150 13 l 5
 155 79 414 440 452 440 c 4
 477 440 500 424 500 402 c 4
 500 303 210 17 150 0 c 5
428 13 m 5
 414 13 408 26 408 40 c 4
 408 90 745 440 792 440 c 4
 822 440 847 416 854 392 c 5
 826 318 494 49 428 13 c 5
EndSplineSet
EndChar

StartChar: hyphen
Encoding: 45 45 205
AltUni2: 002015.ffffffff.0
Width: 731
VWidth: 0
Flags: W
HStem: 656 142<184.467 547.522>
VStem: 145 442<697.994 754.885>
LayerCount: 2
UndoRedoHistory
Layer: 1
Undoes
EndUndoes
Redoes
EndRedoes
EndUndoRedoHistory
Fore
SplineSet
587 739 m 0
 587 666 270 656 212 656 c 0
 179 656 145 680 145 715 c 0
 145 787 462 798 519 798 c 0
 552 798 587 775 587 739 c 0
EndSplineSet
EndChar

StartChar: i
Encoding: 105 105 206
Width: 499
VWidth: 0
Flags: W
HStem: 18 100<90.8906 187.998 295 462.574> 1254 102<25.7058 178.779 289 450.134>
VStem: 174 112<128 1256>
LayerCount: 2
UndoRedoHistory
Layer: 1
Undoes
EndUndoes
Redoes
EndRedoes
EndUndoRedoHistory
Fore
SplineSet
296 185 m 2
 296 166 295 144 295 128 c 1
 322 128 l 2
 337 128 358 130 381 130 c 0
 422 130 465 122 465 79 c 0
 465 43 432 16 397 16 c 0
 373 16 340 16 307 16 c 0
 261 16 214 16 188 20 c 1
 180 19 171 18 163 18 c 0
 108 18 90 40 90 64 c 0
 90 90 110 117 126 118 c 1
 184 118 l 1
 185 127 188 136 188 145 c 0
 188 290 174 435 174 580 c 0
 174 732 185 884 185 1036 c 0
 185 1109 182 1184 175 1256 c 1
 136 1256 l 2
 121 1256 105 1254 89 1254 c 0
 55 1254 25 1262 25 1309 c 0
 25 1353 87 1356 126 1356 c 0
 217 1356 300 1356 370 1356 c 0
 431 1356 453 1335 453 1313 c 0
 453 1288 426 1262 394 1262 c 2
 289 1262 l 1
 295 1199 297 1136 297 1072 c 0
 297 942 286 811 286 681 c 0
 286 536 296 391 296 246 c 2
 296 185 l 2
EndSplineSet
EndChar

StartChar: j
Encoding: 106 106 216
Width: 520
VWidth: 0
Flags: W
HStem: 1245 94<60.1241 217 331 491.779>
VStem: 217 114<799.883 1244.91> 240 112<-22.9195 628.319>
LayerCount: 2
UndoRedoHistory
Layer: 1
Undoes
EndUndoes
Redoes
EndRedoes
EndUndoRedoHistory
Fore
SplineSet
352 164 m 2xa0
 352 46 329 -193 41 -193 c 0
 21 -193 17 -183 17 -168 c 0
 17 -158 19 -146 19 -134 c 0
 19 -106 130 -102 181 -46 c 0
 229 6 240 117 240 187 c 0xa0
 240 536 217 884 217 1233 c 2
 217 1242 l 1
 175 1246 60 1249 60 1292 c 0
 60 1322 103 1339 127 1339 c 0
 187 1339 492 1325 492 1293 c 0
 492 1262 464 1245 436 1245 c 2
 331 1245 l 1xc0
 331 963 352 664 352 382 c 2
 352 164 l 2xa0
EndSplineSet
EndChar

StartChar: k
Encoding: 107 107 218
Width: 637
VWidth: 0
Flags: W
HStem: 1337 20G<153 183>
VStem: 66 110<-27.628 683.082> 105 124<862.956 1353.94>
LayerCount: 2
UndoRedoHistory
Layer: 1
Undoes
EndUndoes
Redoes
EndRedoes
EndUndoRedoHistory
Fore
SplineSet
572 1289 m 1xa0
 571 1284 380 976 352 919 c 1
 352 878 348 838 348 797 c 0
 348 678 474 252 536 149 c 0
 561 108 602 71 602 19 c 0
 602 -13 574 -35 544 -35 c 0
 405 -35 271 626 250 752 c 1
 194 641 176 519 176 396 c 2
 176 17 l 2
 176 -14 162 -31 134 -31 c 0
 94 -31 66 -7 66 34 c 2
 66 656 l 2xc0
 66 877 105 1097 105 1318 c 1
 116 1342 140 1357 166 1357 c 0
 200 1357 229 1328 229 1294 c 2
 229 1288 l 1
 203 1243 202 1038 202 915 c 2
 202 842 l 1
 241 912 440 1344 493 1344 c 0
 526 1344 572 1329 572 1289 c 1xa0
EndSplineSet
EndChar

StartChar: l
Encoding: 108 108 221
Width: 467
VWidth: 0
Flags: W
HStem: -9 87<189.917 375.232> 1335 20G<117 166>
VStem: 67 109<83.2345 482.203> 93 91<525.094 1301.56>
LayerCount: 2
UndoRedoHistory
Layer: 1
Undoes
EndUndoes
Redoes
EndRedoes
EndUndoRedoHistory
Fore
SplineSet
184 545 m 0xd0
 184 435 176 333 176 219 c 0
 176 154 185 78 245 78 c 0
 264 78 297 81 330 81 c 0
 384 81 440 72 440 21 c 0
 440 -11 405 -29 378 -33 c 1
 319 -14 257 -9 195 -9 c 1
 174 -21 149 -28 125 -28 c 0
 91 -28 67 7 67 39 c 0xe0
 67 344 93 649 93 954 c 2
 93 969 l 1
 87 1033 81 1097 81 1161 c 0
 81 1207 82 1355 152 1355 c 0
 180 1355 204 1332 204 1304 c 0
 204 1252 190 1200 190 1148 c 0
 190 984 196 820 196 656 c 1
 185 630 184 599 184 570 c 0
 184 562 184 553 184 545 c 0xd0
EndSplineSet
EndChar

StartChar: less
Encoding: 60 60 226
Width: 524
VWidth: 0
Flags: W
HStem: -22 71<448.766 468.784>
VStem: 37 117<599.547 839.5>
LayerCount: 2
UndoRedoHistory
Layer: 1
Undoes
EndUndoes
Redoes
EndRedoes
EndUndoRedoHistory
Fore
SplineSet
37 698 m 1
 39 756 296 1447 360 1447 c 0
 362 1447 364 1446 367 1446 c 1
 412 1411 l 1
 385 1193 154 869 154 702 c 0
 154 679 428 115 465 49 c 1
 491 49 l 1
 489 19 474 -22 437 -22 c 0
 285 -22 95 577 37 698 c 1
EndSplineSet
EndChar

StartChar: logicalnot
Encoding: 372 172 227
Width: 467
VWidth: 0
Flags: W
HStem: 711 124<-10.051 378.653> 733 115<385.249 671.316>
VStem: 670 93<539.768 725.968>
LayerCount: 2
UndoRedoHistory
Layer: 1
Undoes
EndUndoes
Redoes
EndRedoes
EndUndoRedoHistory
Fore
SplineSet
30 711 m 0xa0
 2 711 -21 735 -21 763 c 0
 -21 822 90 835 197 835 c 0xa0
 276 835 352 828 380 828 c 0
 492 828 603 848 715 848 c 0
 747 848 782 824 782 790 c 0
 782 766 775 741 763 720 c 1
 763 658 768 596 787 537 c 1
 783 509 765 475 733 475 c 0
 679 475 670 536 670 592 c 0
 670 618 672 643 672 659 c 0
 672 682 671 705 667 727 c 1
 642 728 616 733 591 733 c 0x60
 404 733 217 711 30 711 c 0xa0
EndSplineSet
EndChar

StartChar: lslash
Encoding: 373 322 228
Width: 467
VWidth: 0
Flags: W
HStem: -28 106<125 183 197.906 438.571> -9 87<179.64 375.232> 1335 20G<117 166>
VStem: 67 109<78.0553 481.72> 93 97<224.335 649.195 775 1301.56>
LayerCount: 2
UndoRedoHistory
Layer: 1
Undoes
EndUndoes
Redoes
EndRedoes
EndUndoRedoHistory
Fore
SplineSet
392 771 m 0xa8
 392 723 311 714 196 686 c 1
 185 650 184 609 184 570 c 0
 184 562 184 553 184 545 c 0
 184 435 176 333 176 219 c 0
 176 154 181 78 183 78 c 0xb0
 216 78 273 81 330 81 c 0
 384 81 440 72 440 21 c 0
 440 -11 405 -29 378 -33 c 1
 319 -14 257 -9 195 -9 c 1x70
 174 -21 149 -28 125 -28 c 0
 91 -28 67 7 67 39 c 0xb0
 67 45 78 446 86 650 c 1
 36 626 -3 618 -23 618 c 0
 -36 618 -50 634 -50 657 c 0
 -50 697 14 721 89 736 c 1
 91 809 93 881 93 954 c 2
 93 969 l 1
 87 1033 81 1097 81 1161 c 0
 81 1207 82 1355 152 1355 c 0
 180 1355 204 1332 204 1304 c 0
 204 1252 190 1200 190 1148 c 0
 190 1024 194 899 195 775 c 1
 267 800 331 807 355 807 c 0
 373 807 392 793 392 771 c 0xa8
EndSplineSet
EndChar

StartChar: m
Encoding: 109 109 229
Width: 1013
VWidth: 0
Flags: W
HStem: -40 21G<103.5 145>
VStem: 58 123<-38.2814 459.067> 795 116<836.203 1059> 824 133<-101.197 278.921> 825 107<25.0788 728.29>
LayerCount: 2
UndoRedoHistory
Layer: 1
Undoes
EndUndoes
Redoes
EndRedoes
EndUndoRedoHistory
Fore
SplineSet
795 806 m 0xe0
 795 890 803 975 803 1059 c 1
 763 937 598 114 511 114 c 0
 457 114 426 149 426 202 c 0
 426 348 273 904 220 1065 c 1
 203 740 181 415 181 89 c 0
 181 69 184 47 184 28 c 0
 184 -10 174 -40 116 -40 c 0
 91 -40 58 -20 58 9 c 0
 58 427 121 843 121 1261 c 1
 114 1272 109 1288 109 1301 c 0
 109 1340 158 1351 188 1351 c 0
 255 1351 494 520 522 370 c 1
 563 505 729 1348 836 1348 c 0
 867 1348 911 1329 911 1292 c 0xe0
 911 1002 937 693 937 423 c 0
 937 351 932 279 932 207 c 2
 932 206 l 2xc8
 932 176 948 23 948 20 c 1
 953 8 957 -6 957 -19 c 0
 957 -58 932 -107 888 -107 c 0
 829 -107 824 -21 824 21 c 0xd0
 824 108 825 196 825 283 c 0xc8
 825 461 795 643 795 806 c 0xe0
EndSplineSet
EndChar

StartChar: macron
Encoding: 374 175 230
Width: 651
VWidth: 0
Flags: W
HStem: 700 104<107.103 543.981>
VStem: 104 442<717.664 787.638>
LayerCount: 2
UndoRedoHistory
Layer: 1
Undoes
EndUndoes
Redoes
EndRedoes
EndUndoRedoHistory
Fore
SplineSet
546 749 m 0
 546 712 510 704 480 704 c 0
 460 704 399 700 332 700 c 0
 226 700 104 709 104 756 c 0
 104 797 165 800 194 800 c 0
 214 800 273 804 338 804 c 0
 436 804 546 795 546 749 c 0
EndSplineSet
EndChar

StartChar: minus
Encoding: 375 8722 231
Width: 684
VWidth: 0
Flags: W
HStem: 590 111<59.5993 627.411>
VStem: 57 572<601.597 700.631>
LayerCount: 2
UndoRedoHistory
Layer: 1
Undoes
EndUndoes
Redoes
EndRedoes
EndUndoRedoHistory
Fore
SplineSet
57 655 m 0
 57 683 75 701 103 701 c 2
 404 701 l 2
 446 701 488 708 530 708 c 0
 572 708 629 701 629 647 c 0
 629 613 601 600 571 600 c 0
 427 600 282 590 139 590 c 0
 94 590 57 604 57 655 c 0
EndSplineSet
EndChar

StartChar: uni00B5
Encoding: 376 181 232
AltUni2: 0003bc.ffffffff.0
Width: 641
VWidth: 0
Flags: W
HStem: -31 62<238.307 353.341> 1335 20G<67.0204 111> 1369 20G<495.5 550>
VStem: 68 92<247.796 1301.64> 75 111<-245.401 11 70.7803 692.406> 439 123<417.506 1014.43> 465 118<915.672 1386.63>
LayerCount: 2
UndoRedoHistory
Layer: 1
Undoes
EndUndoes
Redoes
EndRedoes
EndUndoRedoHistory
Fore
SplineSet
520 1389 m 0xe2
 580 1389 583 1336 583 1290 c 0xe2
 583 1221 569 1151 569 1084 c 0
 569 1027 560 970 560 913 c 0
 560 901 562 890 562 878 c 0
 562 874 562 869 561 865 c 0
 519 665 593 -31 298 -31 c 0
 250 -31 212 -15 182 11 c 1
 184 -48 186 -107 186 -166 c 0
 186 -211 172 -248 121 -248 c 0
 93 -248 75 -230 75 -202 c 2
 75 99 l 2xec
 75 215 68 356 68 475 c 2
 68 484 l 2
 68 697 79 824 79 1013 c 0
 79 1114 74 1213 54 1306 c 1
 76 1355 l 1
 146 1355 160 1289 160 1232 c 2
 160 675 l 2
 160 530 189 386 189 241 c 0
 189 152 204 31 319 31 c 0
 411 31 439 480 439 559 c 1xf4
 453 808 465 1057 465 1307 c 0
 465 1319 464 1330 464 1341 c 0
 464 1369 471 1389 520 1389 c 0xe2
EndSplineSet
EndChar

StartChar: multiply
Encoding: 377 215 233
Width: 684
VWidth: 0
Flags: W
HStem: 399 481
VStem: 88 338<613 838.5>
LayerCount: 2
UndoRedoHistory
Layer: 1
Undoes
EndUndoes
Redoes
EndRedoes
EndUndoRedoHistory
Fore
SplineSet
479 412 m 1
 456 434 348 557 333 562 c 1
 307 560 247 430 181 430 c 0
 151 430 119 460 119 490 c 0
 119 528 227 601 253 638 c 1
 207 681 88 755 88 823 c 0
 88 854 118 880 148 880 c 0
 174 880 305 748 337 721 c 1
 393 750 435 866 510 866 c 0
 538 866 564 839 564 811 c 0
 564 745 426 707 426 643 c 0
 426 583 585 539 585 473 c 0
 585 435 550 399 512 399 c 1
 479 412 l 1
EndSplineSet
EndChar

StartChar: n
Encoding: 110 110 234
Width: 827
VWidth: 0
Flags: W
HStem: 2 21G<105.5 152> 1334 20G<163.5 236> 1342 20G<124 151>
VStem: 64 112<66.7961 1145> 644 106<788.978 1342.12>
LayerCount: 2
UndoRedoHistory
Layer: 1
Undoes
EndUndoes
Redoes
EndRedoes
EndUndoRedoHistory
Fore
SplineSet
603 189 m 1xd8
 636 534 644 881 644 1228 c 0
 644 1244 641 1264 641 1283 c 0
 641 1315 649 1344 692 1344 c 0
 734 1344 750 1302 750 1264 c 2
 750 1109 l 1
 749 951 728 92 676 11 c 1
 653 4 628 -6 604 -6 c 0
 545 -6 554 55 535 93 c 0
 535 95 536 98 536 102 c 0
 536 219 232 1016 176 1145 c 1
 176 114 l 1
 183 99 197 83 197 66 c 0
 197 32 169 2 135 2 c 0
 76 2 68 84 68 127 c 0
 68 361 64 595 64 829 c 0
 64 956 76 1084 76 1211 c 0
 76 1274 97 1322 151 1362 c 1xb8
 151 1349 l 1
 156 1352 161 1354 166 1354 c 0
 306 1354 548 324 603 189 c 1xd8
EndSplineSet
EndChar

StartChar: nine
Encoding: 57 57 238
Width: 563
VWidth: 0
Flags: W
HStem: 1527 87<240.925 357.247>
VStem: 94 100<1089.75 1483.18> 359 68<284.357 643.586> 366 98<1013.41 1521.27>
LayerCount: 2
UndoRedoHistory
Layer: 1
Undoes
EndUndoes
Redoes
EndRedoes
EndUndoRedoHistory
Fore
SplineSet
440 237 m 1xd0
 439 188 426 139 426 90 c 0
 426 78 427 64 427 49 c 0
 427 9 409 -34 359 -34 c 1
 327 4 l 1
 357 94 359 502 359 686 c 0xe0
 359 772 356 848 355 931 c 1
 206 965 94 1087 94 1243 c 0
 94 1370 121 1614 292 1614 c 0
 433 1614 464 1547 464 1420 c 0
 464 1026 440 631 440 237 c 1xd0
357 1009 m 1
 365 1148 366 1288 366 1427 c 0xd0
 366 1480 357 1527 293 1527 c 0
 212 1527 194 1306 194 1247 c 0
 194 1085 254 1067 357 1009 c 1
EndSplineSet
EndChar

StartChar: numbersign
Encoding: 35 35 240
Width: 748
VWidth: 0
Flags: W
HStem: 571 112<33.858 176 282.376 324> 585 100<282 460.608 570 675.873> 945 101<102 220> 960 94<327.194 494.545 607 673> 1547 20G<301.5 349.787 621 642>
VStem: 220 94<690.219 948> 273 90<1094.28 1520> 401 106<-39 368.584> 496 74<699.065 953.838> 579 101<1253.77 1565.31>
LayerCount: 2
UndoRedoHistory
Layer: 1
Undoes
EndUndoes
Redoes
EndRedoes
EndUndoRedoHistory
Fore
SplineSet
676 637 m 1x1ac0
 677 637 l 1
 676 592 628 585 593 586 c 2
 563 587 l 1
 545 378 507 171 507 -39 c 1
 472 -81 l 1
 443 -81 401 -74 401 -37 c 0
 401 171 459 374 466 581 c 1
 419 585 371 585 324 585 c 1x5940
 274 582 l 1
 262 488 249 -80 163 -80 c 0
 138 -80 105 -65 105 -36 c 0
 105 170 137 375 176 576 c 1
 158 574 137 571 116 571 c 0
 72 571 31 583 31 637 c 0
 31 676 81 683 127 683 c 0
 152 683 176 681 189 681 c 1
 204 769 213 859 220 948 c 1
 207 947 188 945 169 945 c 0
 123 945 72 955 72 1004 c 2
 72 1014 l 1
 102 1047 l 1
 123 1047 144 1046 165 1046 c 0xad40
 186 1046 207 1047 228 1049 c 1
 245 1185 273 1320 273 1457 c 0
 273 1468 272 1481 272 1494 c 0
 272 1530 278 1567 325 1567 c 2
 340 1567 l 1
 363 1520 l 1
 363 1365 328 1213 326 1058 c 1
 344 1054 362 1054 381 1054 c 0
 422 1054 465 1052 505 1062 c 1
 537 1219 554 1377 579 1535 c 1
 592 1552 610 1566 632 1566 c 0
 652 1566 680 1546 680 1525 c 0
 680 1369 611 1223 607 1067 c 1
 673 1067 l 1
 716 1020 l 1
 709 991 698 959 662 959 c 1
 595 962 l 1
 576 875 571 786 570 698 c 1
 577 698 584 699 591 699 c 0
 632 699 676 687 676 637 c 1x1ac0
282 686 m 1
 290 685 299 685 307 685 c 0
 359 685 412 685 463 691 c 1
 478 777 495 864 496 952 c 1
 465 959 432 960 400 960 c 0
 371 960 342 959 314 954 c 1x5cc0
 290 867 285 776 282 686 c 1
EndSplineSet
EndChar

StartChar: o
Encoding: 111 111 241
Width: 651
VWidth: 0
Flags: W
HStem: -38 85<253.712 381.212> 1269 109<126.5 377.11>
VStem: 51 111<272.02 713.998 714 1196.13> 478 106<199.6 1011.19>
LayerCount: 2
UndoRedoHistory
Layer: 1
Undoes
EndUndoes
Redoes
EndRedoes
EndUndoRedoHistory
Fore
SplineSet
584 798 m 2
 584 783 l 2
 584 706 588 628 588 551 c 0
 588 368 573 -38 315 -38 c 0
 82 -38 51 410 51 626 c 0
 51 658 53 677 53 704 c 0
 53 711 52 714 50 714 c 1
 50 751 l 2
 50 860 49 1378 204 1378 c 0
 490 1378 584 1114 584 798 c 2
282 1269 m 0
 184 1269 170 1141 170 1027 c 0
 170 981 172 937 172 906 c 0
 172 843 162 780 162 717 c 0
 162 613 173 47 307 47 c 0
 464 47 478 454 478 564 c 0
 478 723 452 882 451 1041 c 1
 451 1077 l 1
 448 1171 384 1269 282 1269 c 0
EndSplineSet
EndChar

StartChar: oe
Encoding: 382 339 246
Width: 846
VWidth: 0
Flags: W
HStem: -38 85<257.712 385.486> -27 91<587.543 805.969> 718 79<589.028 762.715> 1214 138<597.628 762.85> 1269 79<217.499 387.003>
VStem: 54 109<272.02 713.998 714 1137.17> 455 140<571.453 718 797.985 1204.82> 498 97<64.0502 127 1178 1251.24>
LayerCount: 2
UndoRedoHistory
Layer: 1
Undoes
EndUndoes
Redoes
EndRedoes
EndUndoRedoHistory
Fore
SplineSet
595 1256 m 1x35
 595 1148 l 2x36
 595 1145 586 961 586 867 c 0
 586 840 589 818 592 797 c 1
 615 797 659 801 686 801 c 0
 727 801 764 792 764 769 c 0
 764 744 747 718 719 718 c 2
 589 718 l 1
 593 666 595 615 595 563 c 0
 595 440 586 315 586 192 c 0
 586 133 589 64 590 64 c 0
 624 64 683 69 741 69 c 0
 774 69 806 60 806 19 c 0
 806 -16 763 -27 731 -27 c 2
 558 -27 l 2x75
 522 -27 488 1 486 36 c 1
 486 127 l 1
 463 16 393 -38 319 -38 c 0
 86 -38 55 410 55 626 c 0
 55 658 57 677 57 704 c 0
 57 711 56 714 54 714 c 1
 54 751 l 2
 54 887 62 1348 293 1348 c 0xad
 388 1348 465 1269 498 1178 c 1
 498 1332 516 1352 562 1352 c 0
 604 1352 807 1323 807 1261 c 0
 807 1242 795 1214 767 1214 c 0
 711 1214 651 1250 595 1256 c 1x35
286 1269 m 0xae
 179 1269 163 1078 163 909 c 0
 163 835 166 765 166 717 c 0
 166 613 177 47 311 47 c 0
 468 47 482 454 482 564 c 0
 482 723 456 882 455 1041 c 1
 455 1077 l 1
 452 1171 388 1269 286 1269 c 0xae
EndSplineSet
EndChar

StartChar: ogonek
Encoding: 383 731 247
Width: 427
VWidth: 0
Flags: W
HStem: -366 65<162.224 269.156>
VStem: 90 70<-300.91 -147.67>
LayerCount: 2
UndoRedoHistory
Layer: 1
Undoes
EndUndoes
Redoes
EndRedoes
EndUndoRedoHistory
Fore
SplineSet
337 -7 m 1
 266 -66 160 -145 160 -250 c 0
 160 -266 165 -301 187 -301 c 0
 218 -301 248 -286 273 -268 c 1
 287 -302 l 1
 287 -342 213 -366 181 -366 c 0
 122 -366 90 -313 90 -259 c 0
 90 -141 187 -38 282 20 c 1
 337 -7 l 1
EndSplineSet
EndChar

StartChar: one
Encoding: 49 49 251
Width: 452
VWidth: 0
Flags: W
HStem: -9 95<116.602 213.985> -8 104<312 468.517> 1479 96<-19.6194 147.154>
VStem: 152 85<1033.58 1475.06> 214 98<96.1245 533.76>
LayerCount: 2
UndoRedoHistory
Layer: 1
Undoes
EndUndoes
Redoes
EndRedoes
EndUndoRedoHistory
Fore
SplineSet
152 1308 m 0xb0
 152 1329 155 1356 155 1383 c 0
 155 1432 144 1479 84 1479 c 0
 71 1479 54 1477 37 1477 c 0
 7 1477 -21 1483 -21 1521 c 0
 -21 1574 101 1575 144 1575 c 0
 177 1575 231 1574 249 1541 c 1
 243 1513 237 1484 237 1455 c 0xb0
 237 1329 268 1205 268 1079 c 0
 268 756 312 433 312 109 c 2
 312 96 l 1
 337 98 362 102 387 102 c 1
 387 103 l 1
 423 103 474 99 474 52 c 0
 474 -4 312 -8 241 -8 c 0x68
 211 -8 203 -9 180 -9 c 0
 139 -9 116 -3 116 47 c 0
 116 75 121 86 169 86 c 0
 193 86 214 93 214 120 c 0xa8
 214 519 152 923 152 1308 c 0xb0
EndSplineSet
EndChar

StartChar: oslash
Encoding: 248 248 255
Width: 741
VWidth: 0
Flags: W
HStem: -38 85<302.466 433.212> 1269 109<178.5 410.586> 1540 20G<458.757 523>
VStem: 103 111<266.462 713.998 714 1196.13> 530 106<199.6 1011.19>
LayerCount: 2
UndoRedoHistory
Layer: 1
Undoes
EndUndoes
Redoes
EndRedoes
EndUndoRedoHistory
Fore
SplineSet
192 -227 m 1
 230 32 l 1
 120 166 103 463 103 626 c 0
 103 658 105 677 105 704 c 0
 105 711 104 714 102 714 c 1
 102 751 l 2
 102 860 101 1378 256 1378 c 0
 323 1378 379 1364 426 1338 c 1
 462 1560 l 1
 523 1560 l 1
 483 1296 l 1
 594 1194 636 1008 636 798 c 2
 636 783 l 2
 636 706 640 628 640 551 c 0
 640 368 625 -38 367 -38 c 0
 337 -38 310 -31 286 -17 c 1
 242 -274 l 1
 192 -227 l 1
302 89 m 1
 318 63 337 47 359 47 c 0
 516 47 530 454 530 564 c 0
 530 723 504 882 503 1041 c 1
 503 1077 l 1
 502 1117 490 1158 468 1192 c 1
 302 89 l 1
258 215 m 1
 412 1247 l 1
 389 1261 363 1269 334 1269 c 0
 236 1269 222 1141 222 1027 c 0
 222 981 224 937 224 906 c 0
 224 843 214 780 214 717 c 0
 214 650 219 391 258 215 c 1
EndSplineSet
EndChar

StartChar: p
Encoding: 112 112 257
Width: 483
VWidth: 0
Flags: W
HStem: -39 21G<101.6 153> 628 85<190 248.398> 1231 111<186 207.985 208 290.212>
VStem: 68 121<27.0923 642.032 713 1076.81> 87 99<714.702 1228.54> 312 112<776.535 1210.27>
LayerCount: 2
UndoRedoHistory
Layer: 1
Undoes
EndUndoes
Redoes
EndRedoes
EndUndoRedoHistory
Fore
SplineSet
71 1270 m 1xec
 76 1297 93 1342 126 1342 c 2
 216 1342 l 2
 381 1342 424 1180 424 1044 c 0
 424 831 421 699 189 628 c 1
 189 409 l 2
 189 279 205 151 205 21 c 0
 205 -14 170 -39 136 -39 c 1
 93 -14 l 1
 71 85 68 186 68 287 c 0xf4
 68 409 76 530 76 652 c 1
 69 668 64 685 64 702 c 2
 64 709 l 1
 83 747 84 841 84 885 c 0
 84 944 87 1012 87 1080 c 0
 87 1147 85 1213 71 1270 c 1xec
208 1228 m 1
 208 1231 188 1231 186 1231 c 1
 186 1115 l 2xec
 186 982 189 849 190 716 c 1
 190 713 l 1
 309 729 312 969 312 1059 c 0
 312 1136 308 1228 208 1228 c 1
EndSplineSet
EndChar

StartChar: paragraph
Encoding: 182 182 258
Width: 887
VWidth: 0
Flags: W
HStem: 1098 98<246.375 504> 1738 116<780 854.093> 1769 107<581.5 664.476>
VStem: 36 112<1293.64 1455> 465 121<-5.50609 510> 486 111<1246.66 1746.59> 508 116<536.297 1098 1196 1434.07> 680 114<706.848 1383.38>
LayerCount: 2
UndoRedoHistory
Layer: 1
Undoes
EndUndoes
Redoes
EndRedoes
EndUndoRedoHistory
Fore
SplineSet
149 1454 m 1x95
 148 1455 l 1
 148 1224 296 1196 491 1196 c 0
 495 1196 502 1199 506 1200 c 1
 506 1366 486 1531 486 1697 c 1
 488 1740 l 1
 461 1748 434 1748 406 1748 c 0
 259 1748 149 1591 149 1454 c 1x95
780 1739 m 1
 781 1540 794 1341 794 1142 c 0
 794 850 782 557 782 265 c 0
 782 188 794 113 794 36 c 0
 794 4 767 -20 736 -20 c 0
 669 -20 661 52 661 103 c 0
 661 461 680 819 680 1177 c 0
 680 1326 665 1474 665 1623 c 0
 665 1642 668 1666 668 1689 c 0
 668 1731 658 1769 606 1769 c 0
 599 1769 597 1700 597 1689 c 0xb5
 597 1452 624 1217 624 980 c 0xb3
 624 674 586 370 586 64 c 0
 586 21 576 -8 527 -8 c 0
 491 -8 465 21 465 56 c 0xb9
 465 359 508 661 508 964 c 0
 508 1009 505 1053 504 1098 c 1
 333 1098 95 1118 49 1321 c 0
 44 1342 45 1364 36 1384 c 1
 36 1747 201 1823 531 1854 c 1xd3
 548 1871 570 1876 593 1876 c 0xb3
 620 1876 647 1864 673 1859 c 1
 672 1858 l 1
 728 1865 l 1
 737 1854 l 1
 772 1852 860 1838 860 1790 c 0
 860 1759 832 1738 803 1738 c 0xd3
 795 1738 788 1739 780 1739 c 1
EndSplineSet
EndChar

StartChar: parenleft
Encoding: 40 40 259
Width: 418
VWidth: 0
Flags: W
VStem: 52 102<455.64 1245.71>
LayerCount: 2
UndoRedoHistory
Layer: 1
Undoes
EndUndoes
Redoes
EndRedoes
EndUndoRedoHistory
Fore
SplineSet
396 -319 m 1
 394 -318 l 1
 385 -340 364 -361 338 -361 c 0
 146 -361 52 701 52 881 c 0
 52 1001 131 1651 273 1651 c 2
 282 1651 l 1
 318 1621 l 1
 317 1545 273 1484 245 1416 c 0
 181 1259 154 1048 154 879 c 0
 154 583 185 139 308 -130 c 0
 337 -193 379 -251 396 -319 c 1
EndSplineSet
EndChar

StartChar: parenright
Encoding: 41 41 260
Width: 434
VWidth: 0
Flags: W
VStem: 285 103<460.006 1230.58>
LayerCount: 2
UndoRedoHistory
Layer: 1
Undoes
EndUndoes
Redoes
EndRedoes
EndUndoRedoHistory
Fore
SplineSet
388 817 m 1
 388 815 l 1
 387 651 249 -303 79 -303 c 0
 52 -303 25 -284 25 -255 c 0
 25 -217 92 -112 111 -71 c 0
 214 158 285 564 285 816 c 0
 285 993 261 1253 194 1416 c 0
 168 1480 120 1538 120 1610 c 2
 120 1621 l 1
 157 1650 l 1
 323 1650 386 954 388 817 c 1
EndSplineSet
EndChar

StartChar: percent
Encoding: 37 37 261
Width: 1077
VWidth: 0
Flags: W
HStem: 2 114<785.403 895.778> 700 100<190.496 306.316> 733 105<786.547 894.242> 1449 104<194.402 293.591>
VStem: 46 99<843.274 1394.82> 350 94<1140 1383.74> 643 98<154.892 690.361> 658 111<1437 1533.66> 940 100<163.189 687.24>
LayerCount: 2
UndoRedoHistory
Layer: 1
Undoes
EndUndoes
Redoes
EndRedoes
EndUndoRedoHistory
Fore
SplineSet
940 467 m 2xbe80
 940 535 928 733 832 733 c 0
 748 733 741 428 741 366 c 0
 741 329 776 116 816 116 c 0
 935 116 940 303 940 386 c 2
 940 467 l 2xbe80
222 1449 m 0
 184 1449 145 1210 145 1165 c 0
 145 1102 152 800 238 800 c 0xdc80
 346 800 350 1017 350 1092 c 0
 350 1179 350 1449 222 1449 c 0
657 1438 m 1
 658 1437 l 1
 659 1467 674 1536 715 1536 c 0
 743 1536 769 1517 769 1487 c 0x9d80
 769 1294 552 558 497 308 c 0
 482 241 454 -4 367 -8 c 1
 346 4 328 27 328 52 c 0
 328 272 584 1167 657 1438 c 1
811 2 m 0
 675 2 643 270 643 370 c 0
 643 504 644 838 838 838 c 0xbe80
 1017 838 1040 612 1040 478 c 2
 1040 378 l 2
 1040 229 1003 2 811 2 c 0
444 1140 m 1
 443 1141 l 1
 391 999 506 700 241 700 c 0xdc80
 47 700 46 1025 46 1163 c 0
 46 1255 79 1553 215 1553 c 0
 420 1553 444 1300 444 1147 c 2
 444 1140 l 1
EndSplineSet
EndChar

StartChar: period
Encoding: 46 46 262
Width: 445
VWidth: 0
Flags: W
HStem: -32 152<156.707 289.769>
VStem: 148 150<-24.8322 111.635>
LayerCount: 2
UndoRedoHistory
Layer: 1
Undoes
EndUndoes
Redoes
EndRedoes
EndUndoRedoHistory
Fore
SplineSet
148 41 m 0
 148 82 184 120 225 120 c 0
 264 120 298 81 298 43 c 0
 298 -4 262 -32 217 -32 c 0
 179 -32 148 4 148 41 c 0
EndSplineSet
EndChar

StartChar: periodcentered
Encoding: 389 183 263
Width: 295
VWidth: 0
Flags: W
HStem: 633 152<82.7074 215.769>
VStem: 74 150<640.168 776.635>
LayerCount: 2
UndoRedoHistory
Layer: 1
Undoes
EndUndoes
Redoes
EndRedoes
EndUndoRedoHistory
Fore
SplineSet
74 706 m 0
 74 747 110 785 151 785 c 0
 190 785 224 746 224 708 c 0
 224 661 188 633 143 633 c 0
 105 633 74 669 74 706 c 0
EndSplineSet
EndChar

StartChar: plus
Encoding: 43 43 264
Width: 853
VWidth: 0
Flags: W
HStem: 602 99<140.461 341 468.406 711.089>
VStem: 341 127<391.577 598.692 701.11 963.367> 354 133<336.484 550.423>
LayerCount: 2
UndoRedoHistory
Layer: 1
Undoes
EndUndoes
Redoes
EndRedoes
EndUndoRedoHistory
Fore
SplineSet
354 385 m 0xa0
 354 451 341 518 341 584 c 2
 341 599 l 1xc0
 313 599 267 590 227 590 c 0
 180 590 140 602 140 655 c 0
 140 682 157 708 186 708 c 0
 226 708 267 701 307 701 c 0
 323 701 338 702 354 705 c 1
 352 755 342 805 342 855 c 0
 342 900 349 968 408 968 c 0
 440 968 460 942 460 909 c 0
 460 901 460 892 460 884 c 0
 461 853 460 701 487 701 c 0xa0
 512 701 560 709 606 709 c 0
 661 709 712 697 712 647 c 0
 712 615 686 591 654 591 c 0
 613 591 574 602 533 602 c 0
 499 602 468 593 468 553 c 0xc0
 468 498 487 444 487 389 c 0
 487 353 452 333 420 333 c 0
 391 333 354 352 354 385 c 0xa0
EndSplineSet
EndChar

StartChar: plusminus
Encoding: 390 177 265
Width: 773
VWidth: 0
Flags: W
HStem: 135 111<102.599 670.411> 602 99<100.472 302 428.59 671.089>
VStem: 302 126<707.344 884 904 964.219> 314 134<336.688 550.423> 320 108<391.577 584 701.11 852.656>
LayerCount: 2
UndoRedoHistory
Layer: 1
Undoes
EndUndoes
Redoes
EndRedoes
EndUndoRedoHistory
Fore
SplineSet
100 200 m 0xd0
 100 228 118 246 146 246 c 2
 448 246 l 2
 490 246 532 253 574 253 c 0
 616 253 672 246 672 192 c 0
 672 158 644 145 614 145 c 0
 470 145 325 135 182 135 c 0
 137 135 100 149 100 200 c 0xd0
314 385 m 0
 314 451 320 518 320 584 c 1xc8
 302 599 l 1xe0
 274 599 228 590 188 590 c 0
 141 590 100 602 100 655 c 0
 100 682 117 708 146 708 c 0
 186 708 228 701 268 701 c 0
 284 701 298 702 314 705 c 1xd0
 312 755 302 805 302 855 c 0
 302 900 309 968 368 968 c 0
 400 968 428 942 428 909 c 2
 428 904 l 1xe0
 420 884 l 1
 421 853 421 701 448 701 c 0xd0
 473 701 520 709 566 709 c 0
 621 709 672 697 672 647 c 0
 672 615 646 591 614 591 c 0
 573 591 535 602 494 602 c 0
 460 602 428 593 428 553 c 0xc8
 428 498 448 444 448 389 c 0
 448 353 412 333 380 333 c 0
 351 333 314 352 314 385 c 0
EndSplineSet
EndChar

StartChar: q
Encoding: 113 113 266
Width: 644
VWidth: 0
Flags: W
HStem: -434 108<444.651 548.581> 1288 81<226.986 372.831>
VStem: 52 99<294.576 1145.31> 473 109<361.962 1153.35>
LayerCount: 2
UndoRedoHistory
Layer: 1
Undoes
EndUndoes
Redoes
EndRedoes
EndUndoRedoHistory
Fore
SplineSet
502 -434 m 1
 502 -432 l 1
 449 -432 382 -427 344 -385 c 1
 344 -276 320 -169 299 -62 c 1
 6 1 52 426 52 754 c 0
 52 903 67 1369 283 1369 c 1
 313 1356 346 1353 376 1341 c 0
 570 1262 582 990 582 812 c 0
 582 635 579 30 399 -49 c 1
 399 -143 435 -235 455 -326 c 1
 496 -326 550 -333 550 -384 c 0
 550 -412 530 -434 502 -434 c 1
271 1288 m 0
 172 1288 151 785 151 699 c 0
 151 590 151 7 293 6 c 1
 312 14 333 18 353 18 c 0
 408 18 473 439 473 511 c 2
 473 869 l 2
 473 1004 459 1288 271 1288 c 0
EndSplineSet
EndChar

StartChar: question
Encoding: 63 63 267
Width: 464
VWidth: 0
Flags: W
HStem: -8 156<141.498 275.104> 1447 100<172.885 250.169>
VStem: 63 105<1205.05 1445.1> 131 155<-1.32812 137.301> 153 100<229 698.255> 268 110<948.819 1441.41>
LayerCount: 2
UndoRedoHistory
Layer: 1
Undoes
EndUndoes
Redoes
EndRedoes
EndUndoRedoHistory
Fore
SplineSet
131 68 m 0xd0
 131 107 171 148 211 148 c 0
 248 148 286 102 286 70 c 0
 286 15 251 -8 203 -8 c 0
 163 -8 131 31 131 68 c 0xd0
63 1359 m 0xe4
 63 1446 93 1547 203 1547 c 0
 363 1547 378 1388 378 1260 c 0
 378 945 253 823 253 366 c 0
 253 332 253 267 254 229 c 1
 193 229 222 223 203 223 c 0
 182 223 163 232 153 269 c 1xcc
 153 632 268 949 268 1258 c 0
 268 1297 266 1447 207 1447 c 0
 174 1447 168 1397 168 1356 c 0
 168 1341 174 1299 182 1245 c 0
 182 1241 145 1203 121 1203 c 0
 59 1203 63 1308 63 1359 c 0xe4
EndSplineSet
EndChar

StartChar: quotedbl
Encoding: 34 34 269
Width: 359
VWidth: 0
Flags: W
HStem: 1193 385<-34.1162 7.7585 164.909 205.993>
VStem: -40 91<1232.31 1577.75> 146 95<1209.24 1575.8>
LayerCount: 2
UndoRedoHistory
Layer: 1
Undoes
EndUndoes
Redoes
EndRedoes
EndUndoRedoHistory
Fore
SplineSet
175 1193 m 2
 162 1193 146 1435 146 1531 c 0
 146 1559 179 1578 207 1578 c 0
 226 1578 236 1556 241 1531 c 1
 238 1433 215 1193 182 1193 c 2
 175 1193 l 2
-31 1193 m 2
 -35 1193 -40 1435 -40 1531 c 0
 -40 1559 -17 1578 1 1578 c 0
 31 1578 46 1556 50 1525 c 0
 50 1521 51 1514 51 1511 c 0
 51 1407 16 1193 -24 1193 c 2
 -31 1193 l 2
EndSplineSet
EndChar

StartChar: quotedblbase
Encoding: 392 8222 270
Width: 660
VWidth: 0
Flags: W
HStem: -370 496
VStem: 103 483
LayerCount: 2
UndoRedoHistory
Layer: 1
Undoes
EndUndoes
Redoes
EndRedoes
EndUndoRedoHistory
Fore
SplineSet
565 126 m 4
 578 126 586 110 586 81 c 4
 586 -100 451 -370 394 -370 c 4
 379 -370 372 -354 372 -329 c 4
 372 -226 445 126 565 126 c 4
121 -371 m 1
 108 -368 103 -354 103 -333 c 0
 103 -285 175 116 272 116 c 0
 300 116 309 95 309 71 c 0
 309 -107 200 -371 121 -371 c 1
EndSplineSet
EndChar

StartChar: quotedblleft
Encoding: 393 8220 271
Width: 559
VWidth: 0
Flags: W
HStem: 1081 496
VStem: 69 463
LayerCount: 2
UndoRedoHistory
Layer: 1
Undoes
EndUndoes
Redoes
EndRedoes
EndUndoRedoHistory
Fore
SplineSet
90 1081 m 0
 77 1081 69 1097 69 1126 c 0
 69 1307 204 1577 261 1577 c 0
 276 1577 283 1561 283 1536 c 0
 283 1433 210 1081 90 1081 c 0
514 1578 m 5
 527 1575 532 1562 532 1541 c 4
 532 1493 460 1091 363 1091 c 4
 335 1091 325 1112 325 1136 c 4
 325 1314 435 1578 514 1578 c 5
EndSplineSet
EndChar

StartChar: quotedblright
Encoding: 394 8221 272
Width: 560
VWidth: 0
Flags: W
HStem: 1082 496
VStem: 69 473
LayerCount: 2
UndoRedoHistory
Layer: 1
Undoes
EndUndoes
Redoes
EndRedoes
EndUndoRedoHistory
Fore
SplineSet
521 1578 m 0
 534 1578 542 1562 542 1533 c 0
 542 1352 407 1082 350 1082 c 0
 335 1082 328 1098 328 1123 c 1
 388 1377 376 1578 521 1578 c 0
87 1081 m 1
 74 1084 69 1098 69 1119 c 0
 69 1167 141 1568 238 1568 c 0
 266 1568 275 1547 275 1523 c 0
 275 1345 166 1081 87 1081 c 1
EndSplineSet
EndChar

StartChar: quoteleft
Encoding: 395 8216 273
Width: 354
VWidth: 0
Flags: W
HStem: 1081 496<205 211>
VStem: 70 214
LayerCount: 2
UndoRedoHistory
Layer: 1
Undoes
EndUndoes
Redoes
EndRedoes
EndUndoRedoHistory
Fore
SplineSet
91 1081 m 0
 78 1081 70 1097 70 1126 c 0
 70 1307 205 1577 262 1577 c 0
 277 1577 284 1561 284 1536 c 0
 284 1433 211 1081 91 1081 c 0
EndSplineSet
EndChar

StartChar: quoteright
Encoding: 396 8217 274
Width: 349
VWidth: 0
Flags: W
HStem: 1081 487<144 169>
VStem: 72 206
LayerCount: 2
UndoRedoHistory
Layer: 1
Undoes
EndUndoes
Redoes
EndRedoes
EndUndoRedoHistory
Fore
SplineSet
90 1081 m 1
 77 1084 72 1098 72 1119 c 0
 72 1167 144 1568 241 1568 c 0
 269 1568 278 1547 278 1523 c 0
 278 1345 169 1081 90 1081 c 1
EndSplineSet
EndChar

StartChar: quotesinglbase
Encoding: 397 8218 275
Width: 349
VWidth: 0
Flags: W
HStem: -333 487<144 169>
VStem: 72 206
LayerCount: 2
UndoRedoHistory
Layer: 1
Undoes
EndUndoes
Redoes
EndRedoes
EndUndoRedoHistory
Fore
SplineSet
90 -333 m 1
 77 -330 72 -316 72 -295 c 0
 72 -247 144 154 241 154 c 0
 269 154 278 133 278 109 c 0
 278 -69 169 -333 90 -333 c 1
EndSplineSet
EndChar

StartChar: quotesingle
Encoding: 39 39 276
Width: 359
VWidth: 0
Flags: W
HStem: 1193 385<164.909 213.761>
VStem: 146 111<1232.31 1525>
LayerCount: 2
UndoRedoHistory
Layer: 1
Undoes
EndUndoes
Redoes
EndRedoes
EndUndoRedoHistory
Fore
SplineSet
175 1193 m 2
 162 1193 146 1435 146 1531 c 0
 146 1559 179 1578 207 1578 c 0
 237 1578 252 1556 261 1531 c 1
 256 1525 l 1
 256 1521 257 1514 257 1511 c 0
 257 1407 222 1193 182 1193 c 2
 175 1193 l 2
EndSplineSet
EndChar

StartChar: r
Encoding: 114 114 277
Width: 504
VWidth: 0
Flags: W
HStem: 1289 76<167.004 248.812>
VStem: 63 104<831.08 1287.55> 98 66<68.2561 464> 282 102<876.383 1263.79>
LayerCount: 2
UndoRedoHistory
Layer: 1
Undoes
EndUndoes
Redoes
EndRedoes
EndUndoRedoHistory
Fore
SplineSet
282 1098 m 0xd0
 282 1175 276 1287 174 1289 c 1
 172 1280 167 1269 167 1260 c 0
 167 1102 174 945 175 787 c 1
 247 824 282 1023 282 1098 c 0xd0
426 -35 m 0
 302 -35 240 573 191 686 c 1
 166 686 l 1
 166 615 164 540 164 464 c 0
 164 319 170 169 203 37 c 1
 180 -18 l 1
 123 -18 l 1
 96 12 l 1
 97 58 98 103 98 149 c 0xb0
 98 518 63 898 63 1268 c 0
 63 1314 74 1365 131 1365 c 0
 265 1365 384 1295 384 1149 c 2
 384 1005 l 2
 384 912 321 817 279 736 c 1
 325 533 351 296 438 107 c 0
 450 80 472 47 472 17 c 0
 472 -10 455 -35 426 -35 c 0
EndSplineSet
EndChar

StartChar: registered
Encoding: 174 174 280
Width: 1216
VWidth: 0
Flags: W
HStem: -190 106<564 739.308> 1525 110<494.201 659.769> 1832 106<485.117 745.249>
VStem: 102 120<504.971 1362.54> 365 114<1132.74 1510.74> 390 118<338.38 889.501> 390 97<1004.03 1404.98> 424 129<148.406 676.777> 695 122<1110.78 1493.18> 1001 113<364.15 1254.39>
LayerCount: 2
UndoRedoHistory
Layer: 1
Undoes
EndUndoes
Redoes
EndRedoes
EndUndoRedoHistory
Fore
SplineSet
636 -190 m 0xf0c0
 135 -190 102 358 102 757 c 0
 102 800 102 855 102 917 c 0
 102 1292 136 1938 632 1938 c 0
 757 1938 871 1851 942 1755 c 1
 1066 1679 1114 968 1114 807 c 0
 1114 470 1113 -190 636 -190 c 0xf0c0
874 1655 m 0
 844 1716 716 1832 647 1832 c 0
 245 1832 222 1241 222 954 c 0
 222 747 224 179 362 27 c 0
 398 -13 444 -31 485 -64 c 1
 545 -76 l 1
 564 -84 l 1
 981 -79 1000 396 1000 706 c 0
 1000 759 1001 812 1001 866 c 0
 1001 1136 991 1416 874 1655 c 0
895 199 m 0
 895 175 861 143 838 143 c 0
 716 143 614 797 568 914 c 1
 513 891 l 1
 511 859 508 828 508 796 c 0xf4c0
 508 600 553 406 553 210 c 0
 553 174 537 143 497 143 c 0
 461 143 424 169 424 208 c 0xf1c0
 424 224 425 240 425 256 c 0
 425 327 423 399 416 470 c 0
 409 539 390 606 390 676 c 2xf4c0
 390 1075 l 2xf2c0
 390 1202 365 1327 365 1454 c 0xf8c0
 365 1603 447 1635 581 1635 c 0
 788 1635 817 1433 817 1270 c 0
 817 1023 687 1007 676 969 c 1
 679 888 824 425 858 314 c 1
 865 314 l 1
 865 271 895 239 895 199 c 0
587 1525 m 0
 497 1525 479 1475 479 1407 c 0xf8c0
 479 1364 487 1312 487 1263 c 0xf2c0
 487 1175 488 1086 510 1000 c 1
 631 1049 695 1142 695 1272 c 0
 695 1275 695 1277 695 1280 c 0
 695 1359 693 1525 587 1525 c 0
EndSplineSet
EndChar

StartChar: ring
Encoding: 400 730 281
Width: 685
VWidth: 0
Flags: W
HStem: 102 77<224.189 448.696> 565 69<226.485 458.111>
VStem: 80 76<245.049 490.722> 538 68<277.643 490.042>
LayerCount: 2
UndoRedoHistory
Layer: 1
Undoes
EndUndoes
Redoes
EndRedoes
EndUndoRedoHistory
Fore
SplineSet
80 395 m 0
 80 531 171 634 312 634 c 0
 549 634 606 485 606 397 c 0
 606 313 557 102 312 102 c 0
 121 102 80 281 80 395 c 0
322 565 m 0
 192 565 156 437 156 329 c 0
 156 271 230 179 320 179 c 0
 502 179 538 332 538 393 c 0
 538 456 496 565 322 565 c 0
EndSplineSet
EndChar

StartChar: s
Encoding: 115 115 282
Width: 445
VWidth: 0
Flags: W
HStem: -23 94<141 231.991> 1261 120<182.681 324.031>
VStem: 50 100<886.855 1239.35> 295 100<147.571 556.658>
LayerCount: 2
UndoRedoHistory
Layer: 1
Undoes
EndUndoes
Redoes
EndRedoes
EndUndoRedoHistory
Fore
SplineSet
150 1075 m 0
 150 811 395 689 395 342 c 0
 395 191 325 -19 141 -23 c 1
 141 -28 l 1
 97 -22 55 3 49 51 c 1
 72 86 l 1
 100 82 128 71 157 71 c 0
 268 71 295 286 295 367 c 0
 295 631 50 790 50 1086 c 0
 50 1194 99 1381 235 1381 c 0
 279 1381 336 1349 336 1300 c 0
 336 1273 309 1261 286 1261 c 0
 272 1261 255 1266 243 1273 c 1
 175 1271 150 1127 150 1075 c 0
EndSplineSet
EndChar

StartChar: section
Encoding: 167 167 287
Width: 520
VWidth: 0
Flags: W
HStem: 1 120<150.969 298.011>
VStem: 80 100<647.631 923.368> 113 82<1120.98 1340.9> 325 100<135.063 400.062> 340 100<554.16 803.38>
LayerCount: 2
UndoRedoHistory
Layer: 1
Undoes
EndUndoes
Redoes
EndRedoes
EndUndoRedoHistory
Fore
SplineSet
340 649 m 0xc8
 340 754 278 840 224 925 c 1
 196 890 180 840 180 795 c 0
 180 701 237 622 291 549 c 1
 319 573 340 612 340 649 c 0xc8
440 634 m 0
 440 566 408 502 351 465 c 1
 393 399 425 326 425 246 c 0
 425 139 363 1 240 1 c 0
 196 1 139 33 139 82 c 0
 139 109 166 121 189 121 c 0
 203 121 220 116 232 109 c 1
 294 110 325 206 325 257 c 0
 325 457 80 550 80 820 c 0xd0
 80 895 110 972 171 1018 c 1
 132 1099 113 1186 113 1275 c 0
 113 1385 168 1443 280 1443 c 0
 307 1443 381 1430 381 1392 c 0
 381 1308 195 1405 195 1277 c 0xa0
 195 1046 440 943 440 634 c 0
EndSplineSet
EndChar

StartChar: semicolon
Encoding: 59 59 288
Width: 438
VWidth: 0
Flags: W
HStem: 952 152<187.913 319.769>
VStem: 179 149<959.168 1095.59>
LayerCount: 2
UndoRedoHistory
Layer: 1
Undoes
EndUndoes
Redoes
EndRedoes
EndUndoRedoHistory
Fore
SplineSet
244 359 m 0
 294 359 315 315 315 251 c 0
 315 159 223 -28 133 -28 c 0
 117 -28 103 -18 103 -1 c 0
 103 11 109 28 128 44 c 0
 192 138 166 359 244 359 c 0
179 1025 m 0
 179 1065 214 1104 255 1104 c 0
 294 1104 328 1065 328 1027 c 0
 328 980 292 952 247 952 c 0
 209 952 179 988 179 1025 c 0
EndSplineSet
EndChar

StartChar: seven
Encoding: 55 55 289
Width: 467
VWidth: 0
Flags: W
HStem: 1498 84<71.584 296>
VStem: 75 119<24 118.765>
LayerCount: 2
UndoRedoHistory
Layer: 1
Undoes
EndUndoes
Redoes
EndRedoes
EndUndoRedoHistory
Fore
SplineSet
193 119 m 1
 194 114 194 108 194 101 c 0
 194 55 164 -11 114 -11 c 1
 75 24 l 1
 75 80 98 129 112 182 c 0
 219 587 287 1070 296 1494 c 1
 280 1496 264 1498 248 1498 c 0
 205 1498 161 1493 118 1489 c 1
 96 1499 70 1522 70 1549 c 0
 70 1580 210 1582 258 1582 c 2
 296 1582 l 2
 342 1582 386 1578 400 1523 c 1
 328 1169 308 448 193 119 c 1
EndSplineSet
EndChar

StartChar: six
Encoding: 54 54 290
Width: 562
VWidth: 0
Flags: W
HStem: -14 87<275.737 366.75> 1475 111<267.162 355.896>
VStem: 95 100<396.787 1318.58> 378 96<74.2303 658.876>
LayerCount: 2
UndoRedoHistory
Layer: 1
Undoes
EndUndoes
Redoes
EndRedoes
EndUndoRedoHistory
Fore
SplineSet
95 880 m 0
 95 1030 94 1586 315 1586 c 0
 335 1586 363 1567 363 1545 c 0
 363 1505 318 1482 285 1475 c 1
 228 1419 200 1044 196 949 c 1
 207 951 218 952 228 952 c 0
 464 952 474 396 474 236 c 0
 474 114 464 -14 309 -14 c 0
 67 -14 95 635 95 880 c 0
325 73 m 0
 377 73 378 177 378 212 c 0
 378 320 358 860 240 882 c 1
 198 853 195 814 195 770 c 0
 195 635 200 73 325 73 c 0
EndSplineSet
EndChar

StartChar: slash
Encoding: 47 47 291
Width: 512
VWidth: 0
Flags: W
HStem: 1547 20G<438.5 451>
VStem: 423 57<1460.54 1565.57>
LayerCount: 2
UndoRedoHistory
Layer: 1
Undoes
EndUndoes
Redoes
EndRedoes
EndUndoRedoHistory
Fore
SplineSet
423 1553 m 0
 426 1562 434 1567 443 1567 c 0
 459 1567 480 1552 480 1520 c 0
 480 1515 479 1509 478 1503 c 0
 443 1324 173 181 75 -31 c 1
 72 -46 63 -54 55 -54 c 0
 43 -54 31 -38 31 -9 c 0
 31 2 33 15 37 30 c 0
 74 153 347 1303 423 1553 c 0
EndSplineSet
EndChar

StartChar: sterling
Encoding: 163 163 293
Width: 712
VWidth: 0
Flags: W
HStem: 2 21G<94 111.5> 27 98<282.032 674.59> 894 72<26.1966 103 217 452.925> 1359 21G<368.5 437.5> 1535 97<220.083 325.654>
VStem: 78 99<980.036 1491.81> 227 97<178.522 648.799>
LayerCount: 2
UndoRedoHistory
Layer: 1
Undoes
EndUndoes
Redoes
EndRedoes
EndUndoRedoHistory
Fore
SplineSet
652 146 m 0
 683 146 707 123 707 96 c 0
 707 59 658 27 559 27 c 0
 450 27 382 57 278 68 c 1
 278 71 l 1
 241 70 129 21 94 2 c 1
 94 6 l 1
 69 8 36 23 36 53 c 0
 36 123 123 125 165 158 c 0
 212 194 227 325 227 382 c 0
 227 559 161 725 120 894 c 1
 40 894 26 906 26 918 c 0
 26 920 26 922 26 924 c 0
 26 943 29 966 103 966 c 1
 100 1057 78 1147 78 1238 c 0
 78 1329 97 1632 263 1632 c 2
 288 1632 l 2
 368 1632 455 1474 455 1403 c 0
 455 1380 452 1359 423 1359 c 0
 314 1359 363 1535 269 1535 c 0
 202 1535 177 1340 177 1270 c 2
 177 1243 l 2
 177 1154 178 1062 196 976 c 1
 265 976 332 979 401 979 c 0
 427 979 453 957 453 928 c 0
 453 909 360 910 217 900 c 1
 248 728 324 554 324 378 c 0
 324 305 298 238 277 169 c 1
 367 162 452 125 542 125 c 0
 581 125 615 146 652 146 c 0
EndSplineSet
EndChar

StartChar: t
Encoding: 116 116 294
Width: 493
VWidth: 0
Flags: W
HStem: 1237 104<302.453 461.562> 1255 105<27.4468 196.646>
VStem: 197 100<820.949 1250.72> 253 112<33 503.359>
LayerCount: 2
UndoRedoHistory
Layer: 1
Undoes
EndUndoes
Redoes
EndRedoes
EndUndoRedoHistory
Fore
SplineSet
253 190 m 0x90
 253 213 255 237 256 260 c 1
 244 299 199 1154 197 1255 c 1
 155 1256 23 1255 23 1316 c 0
 23 1344 65 1360 88 1360 c 0x60
 181 1360 273 1341 366 1341 c 0
 376 1341 387 1342 399 1342 c 0
 431 1342 463 1336 463 1293 c 0
 463 1257 427 1237 395 1237 c 0
 363 1237 332 1247 301 1251 c 1
 300 1245 297 1237 297 1230 c 0xa0
 297 841 365 456 365 67 c 0
 365 34 328 6 295 6 c 1
 257 33 l 1
 257 85 253 138 253 190 c 0x90
EndSplineSet
EndChar

StartChar: thorn
Encoding: 408 254 298
Width: 495
VWidth: 0
Flags: W
VStem: 64 117<723.339 1129 1223.84 1542.82> 86 117<-7.20312 465.766> 337 106<678.276 1025.73>
LayerCount: 2
UndoRedoHistory
Layer: 1
Undoes
EndUndoes
Redoes
EndRedoes
EndUndoRedoHistory
Fore
SplineSet
337 828 m 0x20
 337 998 313 1027 184 1129 c 1
 178 1129 l 1
 178 943 182 757 182 571 c 1
 276 635 337 710 337 828 c 0x20
64 1178 m 1xa0
 62 1487 l 2
 62 1522 74 1548 113 1548 c 0
 175 1548 188 1463 188 1380 c 0
 188 1318 181 1258 181 1233 c 1xa0
 362 1207 443 1008 443 845 c 0
 443 670 345 540 187 472 c 1
 188 339 203 207 203 74 c 0
 203 29 186 -11 135 -11 c 0
 99 -11 86 28 86 58 c 0x60
 86 432 64 805 64 1178 c 1xa0
EndSplineSet
EndChar

StartChar: three
Encoding: 51 51 299
Width: 476
VWidth: 0
Flags: W
HStem: -20 84<161.565 325.444> 1360 21G<32 89.5> 1477 96<126.05 238.64>
VStem: 290 102<1020.98 1419.96> 368 103<100.329 698.896>
LayerCount: 2
UndoRedoHistory
Layer: 1
Undoes
EndUndoes
Redoes
EndRedoes
EndUndoRedoHistory
Fore
SplineSet
392 1124 m 0xf0
 392 1040 343 993 300 927 c 1
 438 844 471 509 471 361 c 0
 471 213 458 -20 259 -20 c 0
 202 -20 108 5 108 76 c 0
 108 101 110 110 142 110 c 0
 184 110 174 64 243 64 c 0
 358 64 368 207 368 294 c 0xe8
 368 482 366 694 243 849 c 1
 237 847 230 847 222 847 c 0
 192 847 159 859 159 889 c 0
 160 950 290 1016 290 1150 c 0
 290 1216 276 1477 183 1477 c 0
 107 1477 131 1360 48 1360 c 0
 16 1360 -8 1387 -13 1416 c 1
 21 1501 90 1573 187 1573 c 0
 358 1573 392 1292 392 1124 c 0xf0
EndSplineSet
EndChar

StartChar: tilde
Encoding: 411 732 302
Width: 675
VWidth: 0
Flags: W
HStem: 1038 103<332.897 464.589> 1125 99<201.794 305.75>
VStem: 99 477<1099 1139>
LayerCount: 2
UndoRedoHistory
Layer: 1
Undoes
EndUndoes
Redoes
EndRedoes
EndUndoRedoHistory
Fore
SplineSet
509 1223 m 0xa0
 556 1223 576 1194 576 1170 c 0
 576 1099 515 1038 444 1038 c 0xa0
 285 1038 307 1125 226 1125 c 1
 178 1107 227 1065 173 1046 c 1
 136 1046 99 1063 99 1105 c 0
 99 1167 152 1224 247 1224 c 0x60
 296 1224 378 1141 420 1141 c 0
 479 1141 449 1223 509 1223 c 0xa0
EndSplineSet
EndChar

StartChar: trademark
Encoding: 412 8482 303
Width: 1037
VWidth: 0
Flags: W
HStem: 1475 120<327.859 447> 1475 99<67 219.141>
VStem: 218 106<658.456 718.667 721.531 1482.69> 457 125<630.754 1253.11> 832 112<791.719 1139> 958 1<786 793>
LayerCount: 2
UndoRedoHistory
Layer: 1
Undoes
EndUndoes
Redoes
EndRedoes
EndUndoRedoHistory
Fore
SplineSet
228 787 m 0xbc
 228 924 218 1061 218 1198 c 0
 218 1266 224 1332 224 1400 c 0
 224 1428 223 1456 220 1484 c 1
 202 1482 163 1475 126 1475 c 0
 84 1475 44 1484 44 1520 c 2
 44 1533 l 1
 67 1574 l 1x7c
 172 1583 277 1595 382 1595 c 0
 404 1595 425 1591 447 1591 c 1
 486 1552 l 1
 486 1547 l 1
 489 1574 534 1616 561 1616 c 0
 588 1616 606 1594 622 1575 c 1
 619 1565 618 1554 618 1542 c 0
 618 1433 704 1229 717 1129 c 1
 764 1259 800 1393 830 1528 c 0
 841 1576 846 1639 910 1639 c 0
 939 1639 966 1617 966 1587 c 0
 966 1442 944 1298 944 1153 c 0
 944 1031 958 908 958 786 c 1
 959 793 l 2
 959 790 959 788 959 785 c 0
 959 728 957 625 882 625 c 0
 853 625 828 642 828 673 c 0
 828 752 840 829 840 908 c 0
 840 985 834 1062 832 1139 c 1
 820 1102 801 1077 801 1036 c 1
 796 1027 l 1
 792 981 770 845 708 845 c 0
 620 845 595 1174 574 1254 c 1
 570 1168 570 1082 570 996 c 0
 570 928 582 861 582 793 c 0
 582 742 580 621 505 621 c 0
 466 621 457 658 457 690 c 0
 457 764 470 836 470 910 c 0
 470 1002 468 1095 468 1189 c 0
 468 1303 471 1417 483 1529 c 1
 473 1486 423 1485 387 1485 c 1
 329 1487 l 1
 325 1448 324 1408 324 1369 c 0
 324 1206 337 1044 337 881 c 0
 337 827 336 773 332 719 c 1
 334 712 340 698 340 691 c 0
 340 654 301 637 271 629 c 1
 217 657 l 1
 227 688 228 723 228 757 c 0
 228 767 228 777 228 787 c 0xbc
EndSplineSet
EndChar

StartChar: two
Encoding: 50 50 304
Width: 537
VWidth: 0
Flags: W
HStem: 4 103<171.5 449.531>
VStem: 382 98<854.226 1465.89>
LayerCount: 2
UndoRedoHistory
Layer: 1
Undoes
EndUndoes
Redoes
EndRedoes
EndUndoRedoHistory
Fore
SplineSet
167 86 m 1
 244 99 331 107 409 107 c 1
 434 89 452 70 452 49 c 0
 452 35 444 20 425 4 c 1
 321 4 217 -15 113 -15 c 0
 77 -15 38 7 38 47 c 2
 38 55 l 1
 96 125 114 218 151 299 c 0
 293 614 382 886 382 1236 c 0
 382 1305 378 1492 284 1500 c 1
 228 1470 254 1327 178 1327 c 0
 140 1327 128 1357 128 1390 c 0
 128 1465 168 1586 260 1586 c 1
 260 1587 l 1
 479 1587 480 1357 480 1201 c 0
 480 772 274 409 167 86 c 1
EndSplineSet
EndChar

StartChar: u
Encoding: 117 117 306
Width: 641
VWidth: 0
Flags: W
HStem: -31 122<219.062 367.636> 1369 20G<495.5 550>
VStem: 68 92<247.796 1342.92> 465 118<915.672 1386.63>
LayerCount: 2
UndoRedoHistory
Layer: 1
Undoes
EndUndoes
Redoes
EndRedoes
EndUndoRedoHistory
Fore
SplineSet
298 -31 m 0
 93 -31 68 257 68 473 c 1
 63 693 63 821 63 1013 c 0
 63 1114 57 1203 54 1306 c 1
 68 1337 83 1349 98 1349 c 0
 131 1349 160 1287 160 1232 c 2
 160 675 l 2
 160 530 189 386 189 241 c 0
 189 177 204 91 319 91 c 0
 456 91 465 862 465 1192 c 0
 465 1242 465 1281 465 1307 c 0
 465 1319 464 1330 464 1341 c 0
 464 1369 471 1389 520 1389 c 0
 580 1389 583 1336 583 1290 c 0
 583 1221 569 1151 569 1084 c 0
 569 1027 560 970 560 913 c 0
 560 901 562 890 562 878 c 0
 562 676 563 -31 298 -31 c 0
EndSplineSet
EndChar

StartChar: underscore
Encoding: 95 95 314
Width: 844
VWidth: 0
Flags: W
HStem: -94 94<-5.59619 847.109>
LayerCount: 2
UndoRedoHistory
Layer: 1
Undoes
EndUndoes
Redoes
EndRedoes
EndUndoRedoHistory
Fore
SplineSet
800 2 m 0
 835 2 850 -16 850 -36 c 0
 850 -57 828 -82 794 -82 c 0
 764 -82 733 -82 705 -84 c 0
 494 -84 284 -94 73 -94 c 0
 29 -94 -6 -71 -6 -50 c 0
 -6 -22 16 0 44 0 c 0
 264 0 483 0 703 0 c 0
 735 0 768 2 800 2 c 0
EndSplineSet
EndChar

StartChar: uni00AD
Encoding: 173 173 315
Width: 646
VWidth: 0
Flags: W
HStem: 656 142<141.467 504.522>
VStem: 102 442<697.994 754.885>
LayerCount: 2
UndoRedoHistory
Layer: 1
Undoes
EndUndoes
Redoes
EndRedoes
EndUndoRedoHistory
Fore
SplineSet
544 739 m 0
 544 666 227 656 169 656 c 0
 136 656 102 680 102 715 c 0
 102 787 419 798 476 798 c 0
 509 798 544 775 544 739 c 0
EndSplineSet
EndChar

StartChar: Dcroat
Encoding: 417 272 316
Width: 653
VWidth: 0
Flags: W
HStem: 746 101<-69.676 79 195 368.058> 1429 123<163.344 302.709>
VStem: 36 126<1210.77 1429> 75 113<312.89 742 847 1299.82> 113 98<117.54 735.25> 488 105<498.981 1173.84>
LayerCount: 2
UndoRedoHistory
Layer: 1
Undoes
EndUndoes
Redoes
EndRedoes
EndUndoRedoHistory
Fore
SplineSet
371 791 m 0xd4
 371 754 335 746 305 746 c 0
 289 746 246 743 195 742 c 1
 204 598 211 454 211 310 c 2
 211 114 l 1xcc
 428 254 488 615 488 854 c 0
 488 1061 444 1429 162 1429 c 1
 162 1427 l 2xe4
 163 1233 175 1040 188 847 c 1
 192 847 195 847 199 847 c 0
 286 847 371 831 371 791 c 0xd4
168 -5 m 0
 126 -5 68 14 68 65 c 1
 113 112 113 244 113 306 c 0xcc
 113 453 97 599 86 744 c 1
 3 748 -71 761 -71 798 c 0
 -71 839 -10 842 19 842 c 0
 29 842 51 842 79 843 c 1
 76 889 75 936 75 982 c 0xd4
 75 1055 81 1131 81 1206 c 0
 81 1308 36 1400 36 1481 c 0xe4
 36 1548 135 1552 193 1552 c 0
 201 1552 218 1552 224 1552 c 0
 587 1552 593 1023 593 868 c 2
 593 773 l 1
 582 754 593 733 593 711 c 0
 593 503 419 -5 168 -5 c 0
EndSplineSet
EndChar

StartChar: dcroat
Encoding: 418 273 317
Width: 610
VWidth: 0
Flags: W
HStem: -12 104<216 317.714> 673 78<-58.5965 76.9993 196 330.981>
VStem: 73 143<97.25 622.219> 79 106<232.266 672 755 1254.72> 438 104<274.022 1031.9>
LayerCount: 2
UndoRedoHistory
Layer: 1
Undoes
EndUndoes
Redoes
EndRedoes
EndUndoRedoHistory
Fore
SplineSet
79 901 m 0xd8
 79 1027 55 1184 55 1286 c 0
 55 1322 93 1353 127 1353 c 0
 377 1353 546 1054 546 808 c 0
 546 778 542 741 542 705 c 0
 542 667 542 629 542 592 c 0
 542 340 526 119 273 -12 c 1
 125 -12 l 2
 75 -12 73 190 73 256 c 0xe8
 73 257 75 534 77 673 c 1
 3 676 -59 685 -59 707 c 0
 -59 748 2 751 31 751 c 0
 103 751 79 835 79 901 c 0xd8
193 755 m 1
 262 754 333 743 333 701 c 0
 333 680 297 676 267 676 c 0
 257 676 229 673 196 672 c 1
 205 495 216 318 216 141 c 2
 216 92 l 1xe8
 420 92 438 480 438 612 c 0
 438 784 432 1231 200 1258 c 1
 187 1188 185 1116 185 1045 c 0xd8
 185 948 189 852 193 755 c 1
EndSplineSet
EndChar

StartChar: uni030F
Encoding: 421 783 320
Width: 997
VWidth: 0
Flags: W
HStem: -8 398
VStem: 198 592
LayerCount: 2
UndoRedoHistory
Layer: 1
Undoes
EndUndoes
Redoes
EndRedoes
EndUndoRedoHistory
Fore
SplineSet
532 8 m 1
 469 67 239 279 217 304 c 1
 198 338 l 1
 205 364 229 390 258 390 c 0
 294 390 552 76 552 32 c 0
 552 19 546 8 532 8 c 1
516 331 m 0
 516 347 545 360 568 360 c 0
 596 360 786 66 790 13 c 1
 777 -8 l 1
 730 37 516 254 516 331 c 0
EndSplineSet
EndChar

StartChar: uni0311
Encoding: 422 785 321
Width: 575
VWidth: 0
Flags: W
HStem: 1047 95<229.932 335.325>
VStem: 350 112<877.045 960.662>
LayerCount: 2
UndoRedoHistory
Layer: 1
Undoes
EndUndoes
Redoes
EndRedoes
EndUndoRedoHistory
Fore
SplineSet
453 961 m 1
 455 954 462 934 462 928 c 0
 462 899 436 876 408 876 c 0
 357 876 350 910 350 953 c 0
 350 975 330 1047 303 1047 c 2
 260 1047 l 1
 204 1008 222 867 151 867 c 1
 113 899 l 1
 113 1010 152 1142 286 1142 c 0
 395 1142 421 1064 458 978 c 1
 455 973 455 967 453 961 c 1
EndSplineSet
EndChar

StartChar: uni0326
Encoding: 423 806 322
Width: 462
VWidth: 0
Flags: W
HStem: -550 376<183 185>
VStem: 117 241
LayerCount: 2
UndoRedoHistory
Layer: 1
Undoes
EndUndoes
Redoes
EndRedoes
EndUndoRedoHistory
Fore
SplineSet
151 -550 m 0
 127 -550 117 -544 117 -527 c 1
 117 -527 183 -174 302 -174 c 1
 316 -185 358 -183 358 -215 c 0
 358 -317 185 -550 151 -550 c 0
EndSplineSet
EndChar

StartChar: v
Encoding: 118 118 325
Width: 666
VWidth: 0
Flags: W
HStem: 1376 20G<65.5 146.5 499.5 588.5>
VStem: 531 93<1129.18 1395.94>
LayerCount: 2
UndoRedoHistory
Layer: 1
Undoes
EndUndoes
Redoes
EndRedoes
EndUndoRedoHistory
Fore
SplineSet
343 247 m 1
 420 630 468 1019 531 1396 c 1
 577 1396 l 2
 600 1396 624 1377 624 1351 c 0
 624 1170 544 998 515 821 c 0
 488 658 480 -24 304 -24 c 1
 266 7 l 1
 266 377 176 754 84 1110 c 0
 71 1161 28 1274 28 1319 c 0
 28 1345 53 1366 78 1366 c 0
 215 1366 320 404 343 247 c 1
EndSplineSet
EndChar

StartChar: w
Encoding: 119 119 326
Width: 802
VWidth: 0
Flags: W
HStem: 1357 20G<674.5 711.5>
VStem: 31 125<995.393 1323.99> 334 116<962.833 1186> 515 138<-56.1296 296.487> 610 106<538.901 1287.17> 641 103<856.796 1376.48>
LayerCount: 2
UndoRedoHistory
Layer: 1
Undoes
EndUndoes
Redoes
EndRedoes
EndUndoRedoHistory
Fore
SplineSet
653 139 m 0xf0
 653 86 653 -69 574 -69 c 0
 526 -69 515 -13 515 25 c 0xf0
 515 308 453 648 409 942 c 1
 405 903 402 865 402 826 c 0
 402 700 353 -43 245 -43 c 0
 99 -43 98 1142 31 1293 c 1
 42 1316 65 1329 90 1329 c 0
 150 1329 156 1238 156 1195 c 0
 156 888 236 589 247 283 c 1
 290 573 334 884 334 1186 c 1
 389 1210 l 1
 419 1210 450 1194 450 1160 c 2
 450 1143 l 1
 531 871 531 586 572 307 c 1
 602 531 610 758 610 984 c 0xe8
 610 1087 641 1189 641 1292 c 1
 636 1305 634 1316 634 1327 c 0
 634 1357 652 1377 697 1377 c 0
 726 1377 749 1360 749 1329 c 0
 749 1301 751 1272 744 1245 c 1
 744 1234 l 1xe4
 724 1173 716 1109 716 1046 c 2
 716 896 l 2xe8
 716 644 653 371 653 139 c 0xf0
EndSplineSet
EndChar

StartChar: x
Encoding: 120 120 327
Width: 471
VWidth: 0
Flags: W
HStem: 3 21G<335 391> 1337 20G<318 374.833>
VStem: 65 115<-4.74931 299.403> 181 103<436.437 888.828> 268 94<918.495 1306.6>
LayerCount: 2
UndoRedoHistory
Layer: 1
Undoes
EndUndoes
Redoes
EndRedoes
EndUndoRedoHistory
Fore
SplineSet
234 894 m 1xf0
 249 981 268 1069 268 1158 c 0
 268 1181 267 1204 267 1225 c 0
 267 1286 277 1335 359 1357 c 1
 397 1309 l 1
 362 1258 362 1193 362 1133 c 2
 362 1109 l 1xe8
 330 1021 284 741 284 646 c 0
 284 475 432 175 432 54 c 0
 432 24 405 3 377 3 c 0
 293 3 248 353 231 433 c 1
 211 320 213 203 179 93 c 1
 180 86 180 78 180 69 c 0
 180 33 169 -7 127 -7 c 0
 100 -7 65 8 65 40 c 0
 65 253 181 447 181 660 c 0
 181 733 87 1172 54 1219 c 1
 54 1241 l 1
 41 1254 35 1274 35 1292 c 0
 35 1322 72 1334 96 1334 c 0
 170 1334 216 979 234 894 c 1xf0
EndSplineSet
EndChar

StartChar: y
Encoding: 121 121 328
Width: 513
VWidth: 0
Flags: W
HStem: 1342 20G<379 436>
VStem: 230 125<368.688 830.058> 254 101<19.2493 716.172>
LayerCount: 2
UndoRedoHistory
Layer: 1
Undoes
EndUndoes
Redoes
EndRedoes
EndUndoRedoHistory
Fore
SplineSet
355 109 m 2xa0
 355 53 350 -28 288 -28 c 0
 261 -28 241 -6 231 17 c 1
 254 62 254 300 254 364 c 0xa0
 254 464 234 564 230 664 c 1
 230 717 l 1
 190 825 30 1202 30 1288 c 2
 30 1299 l 1
 76 1333 l 1
 155 1331 238 951 264 877 c 1
 294 954 334 1362 424 1362 c 0
 448 1362 474 1346 474 1319 c 0
 474 1118 359 932 355 726 c 1xc0
 355 109 l 2xa0
EndSplineSet
EndChar

StartChar: yen
Encoding: 426 165 331
Width: 876
VWidth: 0
Flags: W
HStem: 762 113<133 413> 776 119<137.501 413 539 837.768> 948 108<163 421.406 545 850.186>
VStem: 422 117<320.489 773 887 950>
LayerCount: 2
UndoRedoHistory
Layer: 1
Undoes
EndUndoes
Redoes
EndRedoes
EndUndoRedoHistory
Fore
SplineSet
18 1764 m 1xb0
 21 1759 l 1
 37 1766 54 1774 71 1774 c 0
 170 1774 415 1293 472 1207 c 1
 509 1302 628 1832 725 1832 c 0
 755 1832 783 1809 783 1778 c 1
 781 1768 l 1
 720 1589 656 1422 609 1238 c 0
 593 1176 560 1121 545 1059 c 1
 570 1056 l 1
 598 1056 664 1066 725 1066 c 0
 792 1066 852 1054 852 1005 c 0
 852 955 780 948 739 948 c 0
 736 948 733 948 730 948 c 2
 539 950 l 1
 539 887 l 1
 564 887 625 895 687 895 c 0
 767 895 847 881 847 820 c 0
 847 789 816 766 787 766 c 2
 679 766 l 1
 700 776 l 1
 534 776 l 1x70
 533 564 503 354 503 142 c 0
 503 128 504 111 504 94 c 0
 504 45 496 -8 435 -8 c 0
 407 -8 370 6 370 40 c 2
 370 45 l 1
 397 112 413 663 413 773 c 1
 411 773 408 773 406 773 c 0
 343 773 279 762 216 762 c 0
 211 762 207 762 202 762 c 2
 171 763 l 1
 147 776 128 798 117 823 c 1
 133 875 l 1
 229 875 326 878 422 883 c 1
 424 907 424 930 424 954 c 1
 423 958 l 1
 396 957 331 948 270 948 c 0
 201 948 138 960 138 1010 c 2
 138 1017 l 1
 163 1056 l 1
 216 1056 268 1052 321 1052 c 0
 355 1052 389 1054 423 1059 c 1
 423 1071 l 1
 243 1251 211 1535 18 1705 c 1
 18 1764 l 1xb0
EndSplineSet
EndChar

StartChar: z
Encoding: 122 122 332
Width: 493
VWidth: 0
Flags: W
HStem: 18 87<158.039 360.965> 1244 115<128.009 344>
VStem: 41 409
LayerCount: 2
UndoRedoHistory
Layer: 1
Undoes
EndUndoes
Redoes
EndRedoes
EndUndoRedoHistory
Fore
SplineSet
344 1256 m 1
 288 1254 233 1244 177 1244 c 0
 147 1244 124 1272 124 1301 c 0
 124 1356 284 1359 349 1359 c 1
 388 1359 450 1355 450 1302 c 0
 450 1172 373 1059 353 933 c 0
 308 653 189 264 157 105 c 1
 192 105 l 2
 221 105 249 111 278 111 c 1
 278 112 l 1
 313 112 361 109 361 62 c 0
 361 25 320 12 290 12 c 0
 250 12 209 18 169 18 c 0
 142 18 123 -4 96 -4 c 0
 69 -4 41 15 41 42 c 0
 41 339 248 878 344 1256 c 1
EndSplineSet
EndChar

StartChar: zero
Encoding: 48 48 336
Width: 660
VWidth: 0
Flags: W
HStem: 7 93<311.611 409.253> 1543 20G<201.5 417>
VStem: 98 98<806.091 1484.36> 471 95<191.177 977.111>
LayerCount: 2
UndoRedoHistory
Layer: 1
Undoes
EndUndoes
Redoes
EndRedoes
EndUndoRedoHistory
Fore
SplineSet
471 568 m 0
 471 848 449 1490 249 1518 c 1
 204 1481 196 1451 196 1395 c 0
 196 1260 204 1125 204 990 c 0
 204 923 225 857 225 790 c 0
 225 685 233 100 365 100 c 0
 452 100 471 497 471 568 c 0
98 1222 m 0
 98 1408 131 1563 272 1563 c 0
 562 1563 566 798 566 521 c 0
 566 373 558 7 346 7 c 0
 88 7 98 976 98 1222 c 0
EndSplineSet
EndChar

StartChar: asciitilde
Encoding: 126 126 381
Width: 675
VWidth: 0
Flags: W
HStem: 1038 103<326.059 544.589> 1125 99<111.794 251.523>
VStem: 9 647<1099 1139>
LayerCount: 2
UndoRedoHistory
Layer: 1
Undoes
EndUndoes
Redoes
EndRedoes
EndUndoRedoHistory
Fore
SplineSet
589 1223 m 0xa0
 636 1223 656 1194 656 1170 c 0
 656 1099 595 1038 524 1038 c 0xa0
 240 1038 216 1121 136 1125 c 1
 88 1107 137 1065 83 1046 c 1
 46 1046 9 1063 9 1105 c 0
 9 1167 62 1224 157 1224 c 0x60
 255 1224 416 1141 500 1141 c 0
 559 1141 529 1223 589 1223 c 0xa0
EndSplineSet
EndChar

StartChar: daggerdbl
Encoding: 474 8225 382
Width: 853
VWidth: 0
Flags: W
HStem: 171 99<153.461 354 488.464 724.089> 602 99<140.461 341 468.406 711.089>
VStem: 354 114<275.692 598.902 701.11 965.679> 367 133<-94.5156 149.906>
LayerCount: 2
UndoRedoHistory
Layer: 1
Undoes
EndUndoes
Redoes
EndRedoes
EndUndoRedoHistory
Fore
SplineSet
354 385 m 0xe0
 354 451 341 518 341 584 c 2
 341 599 l 1
 313 599 267 590 227 590 c 0
 180 590 140 602 140 655 c 0
 140 682 157 708 186 708 c 0
 226 708 267 701 307 701 c 0
 323 701 338 702 354 705 c 1
 352 755 342 805 342 855 c 0
 342 900 349 968 408 968 c 0
 440 968 460 942 460 909 c 2
 460 884 l 1
 461 853 460 701 487 701 c 0
 512 701 560 709 606 709 c 0
 661 709 712 697 712 647 c 0
 712 615 686 591 654 591 c 0
 613 591 574 602 533 602 c 0
 499 602 468 598 468 596 c 0xe0
 468 546 484 270 500 270 c 0
 525 270 573 278 619 278 c 0
 674 278 725 266 725 216 c 0
 725 184 699 160 667 160 c 0
 626 160 587 171 546 171 c 0
 512 171 481 169 481 162 c 0
 481 94 500 26 500 -42 c 0
 500 -78 465 -98 433 -98 c 0
 404 -98 367 -79 367 -46 c 0xd0
 367 20 354 87 354 153 c 2
 354 168 l 1xe0
 326 168 280 159 240 159 c 0
 193 159 153 171 153 224 c 0
 153 251 170 277 199 277 c 0
 239 277 280 270 320 270 c 0
 336 270 351 271 367 274 c 1xd0
 366 310 354 352 354 385 c 0xe0
EndSplineSet
EndChar

StartChar: dagger
Encoding: 475 8224 383
Width: 853
VWidth: 0
Flags: W
HStem: 590 118<142.388 341 468.023 709.701>
VStem: 341 127<129.528 598.902 701.11 963.367> 367 133<-94.5156 378.248>
LayerCount: 2
UndoRedoHistory
Layer: 1
Undoes
EndUndoes
Redoes
EndRedoes
EndUndoRedoHistory
Fore
SplineSet
354 385 m 0xa0
 354 451 341 518 341 584 c 2
 341 599 l 1
 313 599 267 590 227 590 c 0
 180 590 140 602 140 655 c 0
 140 682 157 708 186 708 c 0
 226 708 267 701 307 701 c 0
 323 701 338 702 354 705 c 1
 352 755 342 805 342 855 c 0
 342 900 349 968 408 968 c 0
 440 968 460 942 460 909 c 2
 460 884 l 1
 460 853 460 701 466 701 c 0
 495 701 552 709 606 709 c 0
 661 709 712 697 712 647 c 0
 712 615 686 591 654 591 c 0
 613 591 574 602 533 602 c 0
 499 602 468 598 468 596 c 0xc0
 468 331 500 173 500 -42 c 0
 500 -78 465 -98 433 -98 c 0
 404 -98 367 -79 367 -46 c 0
 367 94 354 241 354 385 c 0xa0
EndSplineSet
EndChar

StartChar: ordfeminine
Encoding: 480 170 388
Width: 621
VWidth: 0
Flags: W
HStem: 66 94<14.4038 617.109> 1353 20G<277.5 431>
VStem: 494 125<255.856 568.07>
LayerCount: 2
UndoRedoHistory
Layer: 1
Undoes
EndUndoes
Redoes
EndRedoes
EndUndoRedoHistory
Fore
SplineSet
570 160 m 2
 605 160 620 144 620 124 c 0
 620 103 598 78 564 78 c 0
 534 78 503 78 475 76 c 1
 348 76 220 66 93 66 c 0
 49 66 14 89 14 110 c 0
 14 138 36 160 64 160 c 2
 570 160 l 2
451 645 m 1
 429 755 413 967 380 1184 c 1
 341 1019 286 777 270 678 c 1
 305 655 407 648 451 645 c 1
619 311 m 2
 619 309 l 2
 619 285 608 260 585 251 c 1
 536 251 494 260 494 319 c 0
 494 406 464 572 464 572 c 1
 262 602 l 1
 218 444 237 259 147 259 c 0
 117 259 82 281 82 314 c 0
 82 554 217 859 252 1100 c 0
 261 1169 259 1317 296 1373 c 1
 365 1373 l 2
 497 1373 619 431 619 311 c 2
EndSplineSet
EndChar

StartChar: ordmasculine
Encoding: 481 186 389
Width: 621
VWidth: 0
Flags: W
HStem: 66 94<14.4038 617.109> 269 115<238.195 402.531> 1269 109<133.718 386.375>
VStem: 49 113<497.392 1230.61> 479 105<470.47 1148.35>
LayerCount: 2
UndoRedoHistory
Layer: 1
Undoes
EndUndoes
Redoes
EndRedoes
EndUndoRedoHistory
Fore
SplineSet
584 908 m 2
 584 893 l 2
 584 816 588 738 588 661 c 0
 588 539 573 269 315 269 c 0
 82 269 51 584 51 736 c 0
 51 765 49 817 49 880 c 0
 49 1078 66 1378 204 1378 c 0
 490 1378 584 1164 584 908 c 2
282 1269 m 0
 184 1269 170 1157 170 1057 c 0
 170 1042 172 1027 172 1016 c 0
 172 953 162 890 162 827 c 0
 162 758 173 384 307 384 c 0
 464 384 478 612 478 674 c 0
 478 713 479 759 479 808 c 0
 479 1015 462 1269 282 1269 c 0
570 160 m 2
 605 160 620 144 620 124 c 0
 620 103 598 78 564 78 c 0
 534 78 503 76 475 76 c 0
 348 76 220 66 93 66 c 0
 49 66 14 89 14 110 c 0
 14 138 36 160 64 160 c 2
 570 160 l 2
EndSplineSet
EndChar

